<svg width="283" height="206" viewBox="0 0 283 206" fill="none" xmlns="http://www.w3.org/2000/svg">
<path d="M183.812 12.5938C188.993 18.5482 193.42 29.9533 195.958 37.6977C201.028 32.84 206.133 27.0214 211.311 21.8911L211.578 21.8842C212.551 23.1315 213.901 26.9493 214.49 28.5566C218.962 40.775 219.346 49.6028 219.343 62.4278C218.388 63.2976 214.646 65.494 213.332 66.4288C209.434 69.2005 206.371 72.088 203.124 75.7276C202.685 76.2213 200.882 78.157 200.707 78.679C200.68 81.0272 200.378 83.572 200.382 85.7258C199.627 91.8096 199.298 97.9408 198.016 103.957C197.781 105.062 197.515 106.331 197.335 107.444C198.07 106.961 199.917 105.421 200.718 104.806C202.799 103.197 204.947 101.693 207.154 100.299C211.086 97.8285 214.679 96.178 218.786 94.1205C221.68 92.6706 224.624 91.0326 227.524 89.5342C228.765 99.901 227.664 106.367 226.269 116.614C228.901 113.934 231.827 109.083 233.654 105.65C234.271 104.49 235.806 101.128 236.462 100.352C245.824 95.315 254.996 89.8285 265.369 87.6246C266.184 87.4514 269.372 86.6848 269.871 87.2028L269.755 87.6671C269.078 90.578 268.375 94.2679 267.558 97.0395C263.195 111.828 257.136 125.863 249.399 138.893C247.344 142.353 244.993 145.45 243.023 148.706C247.671 148.778 252.576 148.936 257.176 149.751C265.342 151.197 273.848 152.651 281.716 155.457C282.133 155.558 282.494 155.542 282.679 155.828C282.418 156.033 278.682 158.157 278.329 158.271C269.272 164.18 264.092 172.736 256.439 180.325C239.828 196.791 220.297 205.843 197.752 205.709C183.284 205.623 172.341 203.403 159 196.992C158.637 196.786 158.387 196.601 158.047 196.361C157.302 195.984 157.125 195.81 156.48 195.238C154.256 195.501 152.34 195.447 150.115 195.395L150.045 195.309C147.15 195.207 145.511 194.057 143.18 192.387L142.928 192.323C142.502 192.118 142.007 191.801 141.589 191.55L141.359 191.463C141.128 191.572 140.589 191.809 140.394 191.93C139.678 192.475 138.5 193.059 137.673 193.381C135.418 194.429 133.721 194.99 131.273 194.897C129.242 195.003 127.636 195.07 125.617 194.881C123.998 195.516 123.7 195.632 121.953 195.82L122.93 196.396C119.932 198.47 112.495 201.012 109.057 202.017C88.9662 207.885 66.2675 206.356 47.4312 196.334C40.0921 192.333 33.2955 187.237 27.2366 181.19C25.6016 179.567 22.9898 176.962 21.6473 175.134C16.1456 167.642 11.7055 162.737 4.00624 157.812C3.48357 157.625 0.65407 156.079 0 155.735C3.89702 155.025 10.2745 153.131 14.3732 152.104C20.646 150.505 27.0251 149.454 33.4502 148.961C34.3419 148.89 39.0101 148.646 39.5838 148.43C38.0178 145.856 35.9855 143.435 34.3449 140.794C24.7802 125.401 16.1274 106.895 12.1161 88.7186L11.7192 87.1434C17.1198 87.3179 21.1635 88.6815 26.2449 90.4236C34.4127 93.2236 41.109 97.7876 48.0523 103.189C46.763 99.9952 44.8212 96.8483 43.4038 93.2541C38.5098 80.8584 35.9796 67.498 35.9681 53.9927C35.9747 52.3264 35.9973 50.5932 36.0225 48.9229C36.0298 48.4431 36.0451 48.5266 36.3101 48.2877L36.7826 48.3931C38.3181 49.1537 39.858 49.9038 41.4022 50.6433C48.9915 53.893 55.5783 58.2092 62.4182 63.0139C62.3444 52.3726 64.2237 40.7037 67.2344 30.5759C68.0605 27.7963 69.3717 24.6086 70.4341 21.917L70.5744 21.5402C70.9468 21.5625 70.9633 21.6791 71.2342 22.0184C75.3406 27.1628 80.1892 31.4385 84.4691 36.3798C85.0017 36.9947 85.7007 37.9241 86.2793 38.4433C89.3212 29.2991 92.8744 20.5894 99.0065 13.403C99.5896 13.8762 100.216 14.4498 100.789 14.9506C105.981 19.01 114.962 29.0141 118.699 34.6772C119.175 35.5453 119.748 36.339 120.304 37.1462C122.776 40.7349 125.051 44.4773 127.465 48.1119C127.597 48.3255 128.029 49.062 128.155 49.2244C128.46 49.6757 128.689 50.0451 129.059 50.4418C131.828 46.3076 137.804 38.5132 141.468 35.1591C145.475 39.5484 149.218 44.2175 152.674 49.1371C153.014 49.6483 153.367 50.2049 153.726 50.6946C154.207 49.9919 154.373 49.687 154.75 48.9081C156.316 46.7845 157.748 43.6501 159.131 41.3587C160.533 39.0357 162.111 36.7167 163.6 34.4543C169.363 27.2121 175.267 19.9789 182.192 14.0199C182.712 13.5574 183.28 13.0265 183.812 12.5938Z" fill="url(#paint0_linear_865_11828)"/>
<path d="M236.381 101.362C245.76 96.374 254.948 90.94 265.339 88.7572C266.156 88.5856 269.349 87.8263 269.849 88.3394L269.732 88.7992C269.055 91.6823 268.35 95.3369 267.532 98.082C263.161 112.729 257.091 126.629 249.341 139.535C247.282 142.962 244.927 146.029 242.953 149.254C247.609 149.325 252.524 149.482 257.132 150.289C265.312 151.721 273.833 153.162 281.715 155.941C282.133 156.041 282.494 156.025 282.679 156.308C282.418 156.511 278.676 158.615 278.322 158.728C269.249 164.58 264.06 173.054 256.393 180.57C239.753 196.879 220.187 205.845 197.603 205.712C183.109 205.626 172.146 203.428 158.781 197.078C158.419 196.874 158.168 196.691 157.828 196.454C157.081 196.08 156.904 195.907 156.257 195.341C154.03 195.602 152.11 195.548 149.882 195.497L149.811 195.411C146.911 195.311 145.269 194.171 142.934 192.517L142.682 192.454C142.255 192.25 141.759 191.937 141.34 191.688L141.904 191.143C142.144 190.351 143.103 188.21 143.481 187.213L143.224 187.363C142.739 187.181 142.639 186.922 142.258 186.464C142.194 183.684 142.486 179.401 142.512 176.391L142.618 145.324C142.725 144.154 142.692 142.104 142.639 140.911C145.403 140.162 149.944 138.641 152.195 136.717L152.398 138.211C152.527 137.8 152.495 137.113 152.498 136.651C152.979 136.297 153.449 135.82 153.951 135.784C154.228 136.192 154.234 136.767 154.454 137.383C154.448 136.3 154.42 135.702 154.299 134.628L154.573 134.761C155.46 134.402 157.078 132.784 157.872 132.111C163.534 127.313 167.09 122.748 171.567 116.774C171.739 120.202 171.791 123.637 171.722 127.069C171.7 128.568 171.503 131.891 171.675 133.193C173.841 130.417 177.39 126.647 179.834 124.072C180.342 123.572 180.854 123.079 181.37 122.591C182.03 121.981 182.702 121.314 183.327 120.664C187.726 116.083 192.218 112.201 197.185 108.387C197.921 107.908 199.772 106.383 200.573 105.775C202.659 104.181 204.81 102.691 207.021 101.31C210.96 98.8634 214.559 97.2287 218.673 95.1909C221.572 93.7549 224.522 92.1326 227.427 90.6485C228.67 100.916 227.567 107.32 226.17 117.469C228.806 114.815 231.738 110.01 233.568 106.61C234.186 105.461 235.724 102.131 236.381 101.362Z" fill="url(#paint1_linear_865_11828)"/>
<path d="M197.271 107.548C198.009 107.063 199.862 105.516 200.665 104.9C202.754 103.283 204.908 101.773 207.123 100.373C211.068 97.8921 214.673 96.2345 218.793 94.1683C221.697 92.7122 224.651 91.0673 227.561 89.5625C228.806 99.9734 227.701 106.467 226.302 116.758C226.095 117.103 224.119 126.222 223.712 127.637C222.657 131.276 221.435 134.854 220.052 138.357C219.339 140.203 218.142 143.008 217.579 144.791C216.376 146.847 215.177 149.456 214.051 151.622C212.852 153.882 211.566 156.087 210.198 158.228C200.707 173.203 186.975 186.317 170.736 191.374C168.766 191.989 166.867 192.836 164.855 193.339C162.497 194.328 159.818 194.556 157.572 195.334L156.28 195.716C154.05 195.98 152.127 195.926 149.895 195.874L149.825 195.787C146.92 195.685 145.275 194.529 142.937 192.852L142.684 192.789C142.256 192.582 141.76 192.264 141.34 192.012L141.905 191.459C142.146 190.656 143.106 188.486 143.484 187.474L143.227 187.627C142.741 187.442 142.641 187.179 142.259 186.715C142.195 183.896 142.488 179.554 142.513 176.501L142.62 145.001C142.727 143.814 142.694 141.736 142.641 140.526C145.41 139.767 149.958 138.225 152.212 136.274L152.416 137.789C152.544 137.372 152.513 136.676 152.516 136.207C152.997 135.848 153.468 135.364 153.97 135.328C154.249 135.741 154.254 136.325 154.474 136.949C154.468 135.851 154.44 135.245 154.319 134.156L154.594 134.29C155.482 133.927 157.103 132.286 157.898 131.604C163.569 126.739 167.13 122.11 171.614 116.053C171.786 119.528 171.838 123.011 171.77 126.491C171.747 128.011 171.55 131.381 171.722 132.7C173.891 129.886 177.446 126.063 179.894 123.452C180.402 122.946 180.915 122.446 181.432 121.951C182.093 121.333 182.766 120.656 183.392 119.997C187.799 115.352 192.297 111.416 197.271 107.548Z" fill="url(#paint2_linear_865_11828)"/>
<path d="M227.561 89.5625C228.806 99.9734 227.701 106.467 226.302 116.758C226.095 117.103 224.119 126.222 223.712 127.637C222.657 131.276 221.435 134.854 220.052 138.357C219.339 140.203 218.142 143.008 217.579 144.791C216.376 146.847 215.177 149.456 214.051 151.622C212.852 153.882 211.566 156.087 210.198 158.228C200.707 173.203 186.975 186.317 170.736 191.374C168.766 191.989 166.867 192.836 164.855 193.339C162.497 194.328 159.818 194.556 157.572 195.334L156.28 195.716C154.05 195.98 152.127 195.926 149.895 195.874L149.825 195.787C146.92 195.685 145.275 194.529 142.937 192.852L142.684 192.789C142.256 192.582 141.76 192.264 141.34 192.012L141.905 191.459C142.416 191.21 149.022 183.483 149.863 182.514C160.785 169.853 177.577 161.6 190.572 151.638C207.354 138.774 218.237 120.564 224.816 99.4952C225.707 96.6425 227.583 92.4967 227.561 89.5625Z" fill="url(#paint3_linear_865_11828)"/>
<path d="M164.594 188.618C169.297 186.881 177.713 181.106 181.766 177.783C184.404 175.622 189.507 171.462 191.904 168.961C199.832 160.687 206.925 150.757 212.454 140.404C214.096 137.327 215.677 134.279 217.249 131.172C218.088 129.515 218.848 127.522 219.706 125.945C218.735 129.739 216.257 134.605 214.546 138.226C204.816 159.312 189.641 176.777 170.922 188.438C168.69 189.81 166.873 190.746 164.534 191.899L164.448 192.175C163.277 192.735 159.439 194.091 158.885 194.602L158.891 194.664C159.768 194.461 164.325 193.181 164.801 193.338C162.449 194.326 159.776 194.554 157.535 195.333L156.246 195.715C154.021 195.978 152.102 195.924 149.875 195.872L149.805 195.785C146.907 195.684 145.266 194.528 142.933 192.851L142.681 192.788C142.254 192.581 141.759 192.263 141.34 192.011L141.904 191.458C142.414 191.209 149.004 183.484 149.844 182.515C150.11 182.42 150.409 182.307 150.702 182.413C154.377 183.757 157.875 185.476 161.391 187.255C161.924 187.523 162.914 188.484 163.369 188.867C163.38 188.877 164.454 188.651 164.594 188.618Z" fill="url(#paint4_linear_865_11828)"/>
<path d="M153.107 136.612C153.593 136.257 154.069 135.778 154.576 135.742C154.857 136.151 154.863 136.729 155.085 137.347C156.003 143.988 154.19 155.666 152.583 162.12C152.097 164.076 150.445 169.454 150.627 171.082C149.747 173.638 148.324 176.827 147.272 179.36C146.201 181.936 145.112 184.876 143.984 187.369L143.725 187.52C143.234 187.337 143.133 187.077 142.748 186.618C142.683 183.826 142.979 179.527 143.004 176.506L143.112 145.319C143.22 144.144 143.187 142.086 143.133 140.888C145.929 140.137 150.523 138.61 152.8 136.679L153.006 138.178C153.136 137.766 153.104 137.076 153.107 136.612Z" fill="url(#paint5_linear_865_11828)"/>
<path d="M171.936 116.148C172.113 119.599 172.167 123.057 172.097 126.512C172.073 128.021 171.87 131.367 172.047 132.677C170.89 134.574 168.865 136.436 167.58 138.282C161.37 147.2 155.586 156.198 151.614 166.513C151.13 167.771 150.408 169.555 149.751 170.725C149.564 169.093 151.248 163.699 151.744 161.738C153.381 155.266 155.229 143.555 154.294 136.895C154.288 135.805 154.258 135.203 154.134 134.122L154.417 134.255C155.331 133.894 156.999 132.265 157.818 131.588C163.655 126.758 167.321 122.162 171.936 116.148Z" fill="url(#paint6_linear_865_11828)"/>
<path d="M223.251 171.228C230.427 164.706 237.052 157.513 243.051 149.734C247.695 149.805 252.597 149.96 257.194 150.76C265.355 152.18 273.855 153.608 281.717 156.364C282.134 156.463 282.495 156.447 282.679 156.727C282.419 156.929 278.686 159.015 278.333 159.127C269.282 164.929 264.105 173.331 256.457 180.782C239.858 196.951 220.34 205.84 197.811 205.709C183.353 205.624 172.417 203.444 159.084 197.148C158.723 196.946 158.472 196.765 158.133 196.53C159.04 196.419 161.984 196.837 163.031 196.945C165.096 197.171 167.173 197.254 169.248 197.195C171.886 197.11 173.956 196.693 176.495 196.381C186.541 195.145 193.969 191.221 202.954 186.429C207.176 183.832 211.261 180.989 215.19 177.908C217.945 175.777 220.548 173.441 223.251 171.228Z" fill="#4B8E40"/>
<path d="M203.01 186.021C204.791 186.388 210.056 186.437 212.176 186.514C219.328 186.774 226.804 186.278 233.701 184.018C238.958 182.294 243.804 179.374 248.332 176.879C253.005 174.306 275.204 157.769 278.481 158.139C269.419 164.064 264.236 172.645 256.579 180.255C239.959 196.767 220.417 205.845 197.86 205.711C183.384 205.624 172.434 203.398 159.086 196.968C158.723 196.762 158.473 196.577 158.133 196.337C159.041 196.224 161.988 196.651 163.037 196.761C165.105 196.991 167.185 197.077 169.261 197.016C171.903 196.929 173.976 196.504 176.518 196.184C186.576 194.922 194.013 190.915 203.01 186.021Z" fill="#31672A"/>
<path d="M223.904 170.455C230.947 164.168 237.448 157.233 243.334 149.734C247.892 149.802 252.703 149.952 257.214 150.723C265.222 152.092 273.564 153.469 281.28 156.125C280.363 156.794 268.781 158.665 266.527 159.2C261.458 160.402 256.37 161.776 251.429 163.477C245.212 165.618 238.959 168.19 232.585 169.735C230.514 170.235 226.295 171.057 224.275 170.583C224.037 170.526 224.1 170.544 223.904 170.455Z" fill="#64A551"/>
<path d="M237.006 101.46C246.276 96.4348 255.357 90.9605 265.627 88.7616C266.434 88.5888 269.59 87.8238 270.084 88.3407L269.969 88.8039C269.761 88.877 269.567 88.9134 269.409 89.0443C268.749 90.1635 267.677 92.1724 266.896 93.098C263.435 97.201 260.249 101.422 257.07 105.787C255.122 108.459 252.695 110.931 250.646 113.519C245.538 119.887 240.029 126.032 234.194 131.589C233.272 132.465 230.308 135.361 229.409 136.007C228.3 137.393 219.695 144.862 218.307 145.539C218.861 143.767 220.043 140.981 220.747 139.147C222.112 135.667 223.317 132.111 224.359 128.496C224.76 127.09 226.711 118.03 226.914 117.687C229.52 115.012 232.417 110.172 234.226 106.747C234.837 105.589 236.357 102.235 237.006 101.46Z" fill="#AE4B7B"/>
<path d="M228.102 135.744C228.126 135.196 231.261 130.393 231.902 129.307C237.447 119.912 238.847 109.019 245.998 100.617C251.038 94.6962 256.534 91.7948 263.631 89.7525C265.861 89.1108 267.693 88.3442 270.084 88.1641C269.391 89.298 268.266 91.3333 267.446 92.271C263.814 96.4278 260.47 100.704 257.133 105.127C255.089 107.834 252.542 110.338 250.391 112.96C245.03 119.412 239.248 125.637 233.123 131.267C232.156 132.155 229.045 135.089 228.102 135.744Z" fill="#CD5A96"/>
<path d="M184.188 12.5938C189.367 18.5842 193.793 30.0582 196.33 37.8495C201.397 32.9623 206.5 27.1087 211.676 21.9473L211.943 21.9404C212.916 23.1951 214.265 27.0361 214.853 28.6531C219.324 40.9454 219.708 49.8265 219.705 62.729C218.75 63.604 215.01 65.8137 213.696 66.7541C209.799 69.5426 206.738 72.4475 203.493 76.1092C203.053 76.6059 201.251 78.5533 201.077 79.0784C201.05 81.4408 200.748 84.001 200.752 86.1678C199.997 92.2883 199.668 98.4567 198.387 104.51C198.151 105.621 197.886 106.898 197.706 108.017C192.75 111.892 188.268 115.835 183.878 120.488C183.254 121.148 182.584 121.826 181.926 122.445C181.41 122.941 180.899 123.442 180.393 123.949C177.955 126.565 174.412 130.395 172.251 133.214C172.08 131.892 172.276 128.516 172.299 126.994C172.367 123.508 172.315 120.018 172.144 116.537C167.677 122.604 164.129 127.242 158.479 132.116C157.686 132.799 156.072 134.443 155.187 134.807L154.913 134.672C155.034 135.763 155.062 136.37 155.068 137.471C154.849 136.845 154.843 136.26 154.566 135.847C154.065 135.883 153.596 136.367 153.117 136.727C153.114 137.196 153.145 137.894 153.017 138.311L152.814 136.794C150.568 138.748 146.037 140.293 143.278 141.054C143.332 142.266 143.365 144.348 143.257 145.537C143.12 144.266 143.152 142.428 143.141 141.108L140.859 141.366L140.786 141.358C136.419 141.292 133.913 139.669 130.296 137.241C129.713 136.889 129.08 136.338 128.325 135.884L128.073 136.057C128.126 135.74 128.183 135.441 128.245 135.127L128.029 135.42L127.722 135.382C121.704 130.186 114.657 121.47 111.447 113.764L111.419 113.509C109.138 109.973 107.774 107.114 106.354 103.116C106.598 102.226 106.832 101.25 107.046 100.348C108.886 92.5697 111.822 85.4425 114.81 78.1309C116.652 73.7865 119.067 69.1162 121.142 64.8788C124.05 59.4948 126.237 55.7953 129.458 50.6705C132.226 46.5113 138.199 38.6699 141.862 35.2955C145.867 39.7113 149.609 44.4086 153.063 49.358C153.403 49.8723 153.756 50.4322 154.115 50.9249C154.596 50.2179 154.761 49.9112 155.138 49.1276C156.703 46.9912 158.135 43.8378 159.517 41.5326C160.919 39.1955 162.496 36.8625 163.984 34.5864C169.746 27.3005 175.647 20.0235 182.569 14.0285C183.089 13.5633 183.657 13.0291 184.188 12.5938Z" fill="url(#paint7_linear_865_11828)"/>
<path d="M184.091 12.5938C189.284 18.5707 193.722 30.0188 196.265 37.7925C201.347 32.9164 206.464 27.0759 211.655 21.9262L211.922 21.9193C212.897 23.1712 214.251 27.0035 214.841 28.6168C219.323 40.8814 219.708 49.7425 219.705 62.6159C218.748 63.489 214.997 65.6936 213.68 66.632C209.773 69.4142 206.703 72.3125 203.448 75.9659C203.008 76.4615 201.2 78.4045 201.026 78.9285C200.999 81.2855 200.696 83.84 200.7 86.0018C199.943 92.1086 199.613 98.263 198.328 104.302C198.092 105.411 197.826 106.685 197.645 107.802C192.676 111.668 188.182 115.602 183.78 120.244C183.154 120.903 182.482 121.58 181.822 122.197C181.305 122.692 180.793 123.192 180.285 123.698C177.84 126.308 174.288 130.129 172.12 132.942C171.949 131.623 172.146 128.255 172.168 126.736C172.237 123.257 172.185 119.776 172.013 116.302L172.079 116.199C174.392 112.584 175.521 109.421 177.167 105.507C176.401 102.673 175.846 99.7638 175.02 96.8012C173.185 90.3535 170.987 84.0377 168.436 77.8905C167.439 76.0098 166.364 73.203 165.399 71.174C164.433 69.1443 163.341 67.0809 162.421 65.0723C160.098 60.4895 156.731 55.0432 153.934 50.8384C154.416 50.1331 154.582 49.827 154.96 49.0452C156.53 46.9136 157.965 43.7673 159.351 41.4673C160.757 39.1355 162.338 36.8078 163.831 34.5368C169.608 27.2673 175.526 20.0068 182.467 14.0252C182.988 13.5611 183.557 13.0281 184.091 12.5938Z" fill="url(#paint8_linear_865_11828)"/>
<path d="M211.535 22.3975L211.806 22.3906C212.796 23.6506 214.17 27.5075 214.768 29.1312C219.318 41.4745 219.709 50.3925 219.706 63.3486C218.734 64.2273 214.928 66.4462 213.59 67.3905C209.625 70.1906 206.509 73.1076 203.206 76.7844C202.759 77.2832 200.925 79.2387 200.747 79.766C200.732 78.7021 200.829 77.6006 200.899 76.5367C200.908 72.8276 200.95 69.1174 200.682 65.4184C199.995 55.9481 198.196 47.4665 195.916 38.3658C201.073 33.4583 206.267 27.5803 211.535 22.3975Z" fill="url(#paint9_linear_865_11828)"/>
<path d="M211.866 22.3975L212.126 22.3906C213.076 23.6506 214.394 27.5075 214.968 29.1312C219.333 41.4745 219.709 50.3925 219.706 63.3486C218.773 64.2273 215.121 66.4462 213.838 67.3905C210.033 70.1906 207.044 73.1076 203.874 76.7844C203.445 77.2832 201.685 79.2387 201.515 79.766C201.501 78.7021 201.594 77.6006 201.661 76.5367C202.13 75.9014 202.497 74.7935 202.824 74.0404C208.791 60.3266 213.14 44.703 212.325 29.2664C212.211 27.1036 211.909 24.7719 211.867 22.5699L211.866 22.3975Z" fill="#D47D9E"/>
<path d="M184.218 12.5938C189.473 18.6225 193.963 30.1697 196.537 38.0107C198.811 47.1316 200.605 55.6321 201.289 65.1233C201.557 68.8306 201.515 72.549 201.506 76.2663C201.436 77.3326 201.339 78.4365 201.354 79.5028C201.327 81.8802 201.02 84.4568 201.025 86.6374C200.259 92.797 199.925 99.0047 198.625 105.096C198.386 106.215 198.117 107.499 197.934 108.626C192.905 112.526 188.358 116.494 183.903 121.176C183.27 121.841 182.59 122.523 181.922 123.146C181.978 122.328 183.598 118.474 184 117.316C187.077 108.417 189.748 100.001 192 90.8182C196.058 74.2639 196.722 57.8773 193.194 41.1138C192.138 36.0883 190.49 30.1084 188.417 25.4895C187.803 23.1509 183.971 16.0816 182.575 14.0376C183.102 13.5694 183.678 13.0319 184.218 12.5938Z" fill="#92315D"/>
<path d="M163.623 34.7973C169.279 27.4238 175.072 20.0593 181.867 13.9922C183.219 16.0476 186.925 23.1566 187.519 25.5083C187.148 25.4179 185.184 20.7 184.837 19.9733C184.131 18.4984 183.372 17.0578 182.561 15.6554C182.479 15.8134 182.559 16.5683 182.501 16.9144C182.41 16.5586 182.328 16.2575 182.221 15.9078L182.084 15.9269C180.718 33.8223 172.477 48.2645 163.775 62.683C163.149 63.721 162.782 64.8104 162.242 65.77C159.968 61.1215 156.672 55.5973 153.934 51.3323C154.406 50.6168 154.568 50.3064 154.938 49.5134C156.475 47.3513 157.88 44.16 159.237 41.827C160.613 39.4619 162.162 37.1008 163.623 34.7973Z" fill="#CD5A96"/>
<path d="M162.33 65.6317C162.874 64.6919 163.244 63.6249 163.876 62.6082C172.652 48.4855 180.963 34.3398 182.341 16.8117L182.479 16.793C182.587 17.1355 182.67 17.4304 182.761 17.7789C183.329 19.9127 183.987 22.4449 184.239 24.6482C185.624 36.7308 184.085 51.5184 178.803 62.331C176.724 66.5871 171.279 75.1612 168.269 78.3665C167.285 76.498 166.223 73.7095 165.271 71.6937C164.317 69.6772 163.239 67.6272 162.33 65.6317Z" fill="#D47D9E"/>
<path d="M177.359 106.355C178.038 108.738 178.601 111.156 179.044 113.599C179.394 115.982 179.74 118.849 180.167 121.176C180.219 121.813 180.294 123.479 180.523 123.985C178.041 126.515 174.436 130.218 172.236 132.944C172.062 131.666 172.262 128.401 172.285 126.929C172.354 123.558 172.301 120.184 172.127 116.818L172.194 116.718C174.542 113.214 175.688 110.148 177.359 106.355Z" fill="#B6A587"/>
<path d="M179.123 113.994C179.212 113.236 179.435 112.67 179.667 111.953C179.537 113.483 179.186 118.605 180.691 119.386C181.55 119.138 181.748 117.615 181.922 116.752C181.884 117.911 180.784 120.828 180.207 121.749C179.794 119.367 179.461 116.433 179.123 113.994Z" fill="#92315D"/>
<path d="M138.473 78.3672C138.729 79.4274 139.069 80.6652 139.174 81.7338C139.305 82.3994 139.632 84.2562 139.822 84.8024C140.605 85.7131 140.233 86.2092 140.883 87.1665C141.832 88.5226 143.901 94.049 144.767 95.9102C149.576 106.246 153.379 115.663 154.483 127.27C154.691 129.458 155.127 132.506 155.173 134.702C155.298 135.79 155.328 136.396 155.334 137.493C155.107 136.869 155.1 136.286 154.813 135.873C154.294 135.91 153.808 136.393 153.311 136.751C153.308 137.22 153.34 137.916 153.207 138.332L152.997 136.819C150.668 138.768 145.97 140.309 143.11 141.067C143.166 142.276 143.2 144.353 143.089 145.538C142.947 144.271 142.979 142.438 142.968 141.121L140.602 141.378L140.527 141.37C135.999 141.305 133.4 139.686 129.651 137.264C129.046 136.914 128.389 136.363 127.607 135.911L127.346 136.083C127.4 135.767 127.46 135.469 127.524 135.156C127.464 132.395 128.373 127.514 128.88 124.761C130.995 113.282 135.411 102.58 137.162 91.0336C137.591 88.2031 138.164 84.8003 138.201 81.9531C138.104 81.0775 138.363 79.3217 138.473 78.3672Z" fill="#D47D9E"/>
<path d="M139.939 85.3633C140.716 86.2692 140.347 86.7628 140.992 87.7152C141.933 89.0644 143.987 94.5624 144.847 96.4141C149.619 106.697 153.393 116.065 154.488 127.613C154.695 129.79 155.127 132.822 155.173 135.007C155.298 136.089 155.327 136.692 155.333 137.784C155.108 137.163 155.101 136.583 154.816 136.172C154.301 136.208 153.819 136.689 153.325 137.046C153.322 137.512 153.354 138.204 153.222 138.618L153.014 137.112C150.703 139.052 146.041 140.585 143.202 141.339C143.034 139.27 143.077 135.602 143.04 133.427C142.965 128.467 142.862 123.508 142.73 118.55C142.491 109.928 141.454 98.3891 140.451 89.824C140.344 88.3653 140.03 86.9834 139.939 85.3633Z" fill="url(#paint10_linear_865_11828)"/>
<path d="M139.939 86.7617C140.95 88.1341 143.154 93.7266 144.077 95.6101C149.2 106.07 153.25 115.599 154.426 127.345C154.648 129.56 155.112 132.644 155.162 134.867C155.295 135.967 155.326 136.58 155.333 137.691C155.091 137.059 155.084 136.469 154.778 136.052C154.226 136.088 153.707 136.577 153.178 136.94C153.174 137.414 153.209 138.119 153.068 138.54L152.844 137.008C152.864 134.363 152.319 131.268 152.092 128.666C151.125 117.594 147.586 107.598 143.733 97.2956C142.489 93.9701 140.897 90.2074 139.939 86.7617Z" fill="#AE4B7B"/>
<path d="M138.242 82.5664C139.455 84.9535 136.642 100.621 135.792 103.795C134.352 109.173 132.923 114.492 131.864 120.056C130.787 125.698 130.051 131.404 129.659 137.143C129.052 136.797 128.393 136.254 127.608 135.808L127.346 135.978C127.4 135.666 127.46 135.372 127.525 135.063C127.465 132.338 128.377 127.522 128.886 124.806C131.009 113.48 135.442 102.919 137.199 91.5264C137.629 88.7334 138.204 85.3758 138.242 82.5664Z" fill="#AE4B7B"/>
<path d="M139.939 88.1641L140.273 88.4842C141.154 97.2164 142.067 108.98 142.278 117.77C142.394 122.826 142.484 127.881 142.55 132.937C142.582 135.155 142.545 138.895 142.693 141.004C142.742 142.23 142.771 144.337 142.674 145.539C142.55 144.254 142.578 142.395 142.569 141.059L140.503 141.32C140.762 123.772 141.486 105.581 139.939 88.1641Z" fill="#AE4B7B"/>
<path d="M141.381 34.9844C145.332 39.4017 149.023 44.1006 152.43 49.0516C152.765 49.5661 153.113 50.1262 153.468 50.619C156.22 54.8348 159.532 60.2952 161.816 64.89C162.722 66.9037 163.796 68.9725 164.746 71.0075C165.696 73.0418 166.754 75.8558 167.734 77.7415C170.243 83.9046 172.406 90.2368 174.211 96.7012C175.023 99.6715 175.57 102.588 176.323 105.43C174.704 109.353 173.593 112.525 171.317 116.15C170.921 114.417 170.827 111.886 170.542 110.036C166.99 86.9166 157.835 65.7737 145.495 46.9697C143.923 44.574 142.771 41.8161 141.144 39.441C138.903 43.4115 136.65 46.8457 134.324 50.6921C132.876 53.0854 131.265 56.3931 129.872 58.9225C123.922 69.727 118.65 81.1112 115.38 93.3037C113.629 99.8335 112.538 106.524 111.351 113.224C109.1 109.687 107.755 106.827 106.354 102.827C106.594 101.938 106.826 100.961 107.036 100.059C108.851 92.2778 111.748 85.1483 114.696 77.8343C116.513 73.4884 118.895 68.8165 120.942 64.5777C123.811 59.1919 125.967 55.4911 129.145 50.3646C131.876 46.204 137.767 38.3599 141.381 34.9844Z" fill="#EDCCCE"/>
<path d="M11.7499 88.1641C17.1646 88.3374 21.2189 89.6924 26.3136 91.4235C34.5027 94.2057 41.2165 98.7407 48.178 104.108L48.3003 104.265C51.5174 108.456 50.8552 109.34 55.4832 113.105L55.5231 113.238C56.029 114.967 56.5024 117.377 56.9409 119.203C57.5971 121.988 58.3771 124.737 59.2782 127.439C60.6705 131.658 62.1251 135.836 63.8382 139.912C64.1086 140.555 64.4374 141.272 64.6309 141.944C66.7042 146.196 68.3055 150.757 70.705 154.851C73.2051 159.118 76.1729 163.413 79.2082 167.239C82.1879 170.995 86.0856 174.225 89.5787 177.371C93.5219 180.915 97.0683 183.813 101.526 186.618C102.984 187.774 106.115 189.091 107.895 189.881C111.818 191.599 116.208 192.739 120.31 193.814C121.617 194.156 124.908 194.765 125.946 195.219C124.323 195.85 124.024 195.965 122.272 196.151L123.252 196.724C120.246 198.785 112.789 201.311 109.342 202.31C89.199 208.141 66.441 206.621 47.5553 196.662C40.197 192.687 33.3826 187.623 27.3079 181.614C25.6686 180.002 23.05 177.413 21.704 175.597C16.1878 168.152 11.7362 163.278 4.01673 158.385C3.49269 158.199 0.655782 156.663 0 156.32C3.90721 155.615 10.3014 153.733 14.4108 152.713C20.7 151.124 27.0959 150.079 33.5377 149.589C34.4318 149.52 39.1122 149.276 39.6874 149.062C38.1173 146.505 36.0797 144.099 34.4348 141.475C24.8451 126.179 16.1696 107.79 12.1478 89.7292L11.7499 88.1641Z" fill="#92315D"/>
<path d="M39.6537 148.336C41.6263 151.235 43.4621 153.354 45.6974 156.005C53.6056 165.388 62.3811 173.687 71.9005 181.028C74.7895 183.255 78.2974 185.399 81.3643 187.299L81.6064 187.393C82.6927 187.825 83.9938 188.62 85.0742 189.167C95.9746 194.695 110.234 198.205 122.169 196.027L123.147 196.607C120.144 198.694 112.694 201.252 109.25 202.264C89.1233 208.169 66.3846 206.63 47.515 196.544C40.1629 192.518 33.3543 187.39 27.2847 181.304C25.6468 179.671 23.0304 177.049 21.6856 175.21C16.1741 167.67 11.7262 162.734 4.01332 157.778C3.48973 157.589 0.655225 156.033 0 155.687C3.9039 154.972 10.2927 153.067 14.3986 152.034C20.6824 150.424 27.0729 149.366 33.5093 148.87C34.4025 148.799 39.079 148.553 39.6537 148.336Z" fill="url(#paint11_linear_865_11828)"/>
<path d="M4.19727 158.176C6.39495 157.398 21.4535 167.33 23.8165 169.027C35.8805 177.692 47.4296 185.933 62.2191 187.551C68.3694 188.33 75.2203 188.787 81.4282 187.453L81.67 187.546C82.7546 187.974 84.0537 188.763 85.1323 189.305C96.0158 194.787 110.253 198.268 122.169 196.108L123.146 196.683C120.147 198.754 112.709 201.29 109.27 202.294C89.1752 208.15 66.4717 206.624 47.6314 196.621C40.2907 192.629 33.4927 187.543 27.4325 181.507C25.7972 179.888 23.1849 177.288 21.8421 175.463C16.3392 167.986 11.8982 163.091 4.19727 158.176Z" fill="#31672A"/>
<path d="M12.5938 88.4949L12.9725 88.1641L13.7675 89.5966C13.8426 90.7497 17.0281 96.7115 17.7056 98.268C19.9745 103.48 23.2737 108.502 25.92 113.45C41.6168 142.795 64.5632 167.583 91.5749 183.989C94.6175 185.837 104.412 190.624 107.634 190.524L107.965 190.288C111.872 192.034 116.245 193.192 120.331 194.285C121.633 194.633 124.911 195.251 125.945 195.713C124.329 196.354 124.031 196.471 122.286 196.661C110.388 198.847 96.1726 195.324 85.3058 189.777C84.2288 189.228 82.9317 188.43 81.8487 187.996L81.6073 187.902C78.5499 185.995 75.0528 183.844 72.1727 181.609C62.6826 174.241 53.9342 165.913 46.0503 156.497C43.8219 153.836 41.9917 151.71 40.0252 148.8C38.4613 146.201 36.4317 143.756 34.7932 141.089C25.2412 125.542 16.5998 106.852 12.5938 88.4949Z" fill="#6C0435"/>
<path d="M11.1953 88.1641C16.6404 88.3355 20.7173 89.6753 25.8405 91.3869C34.0756 94.138 40.827 98.6222 47.8275 103.93L47.9504 104.084C51.1855 108.229 50.5196 109.103 55.1735 112.825L55.2136 112.957C55.7223 114.667 56.1985 117.049 56.6394 118.855C57.2993 121.609 58.0837 124.327 58.9898 126.999C60.3899 131.17 61.8526 135.302 63.5753 139.332C63.8472 139.968 64.1779 140.677 64.3725 141.341C61.5377 140.172 52.0569 133.375 49.9468 131.228C44.0215 126.672 37.3834 120.01 32.286 114.377C29.7874 111.646 27.6382 108.369 25.2025 105.604C20.9446 100.771 16.9664 95.6651 12.7804 90.7835L11.9778 89.3898L11.5954 89.7117L11.1953 88.1641Z" fill="#AE4B7B"/>
<path d="M12.5938 88.179C17.0709 87.9005 25.9704 91.5801 29.8624 94.0224C31.8018 95.2518 33.6136 96.7143 35.2658 98.3836C42.6881 105.761 44.6054 116.626 48.6636 126.274C49.1219 127.365 50.4061 130.506 50.3771 131.545C44.4808 126.823 37.8752 119.918 32.8027 114.079C30.3163 111.248 28.1776 107.852 25.7538 104.986C21.5168 99.9755 17.558 94.6835 13.3924 89.6235L12.5938 88.179Z" fill="#CD5A96"/>
<path d="M98.6653 13.9922C99.2489 14.4616 99.8755 15.0305 100.449 15.5273C105.646 19.5541 114.635 29.4778 118.376 35.0955C118.852 35.9565 119.425 36.7439 119.982 37.5446C122.457 41.1044 124.733 44.8168 127.15 48.4222C127.281 48.6341 127.715 49.3647 127.84 49.5258C128.146 49.9735 128.375 50.3399 128.745 50.7333C125.52 55.7864 123.331 59.4341 120.418 64.7428C118.341 68.9209 115.923 73.5259 114.078 77.8095C111.086 85.0187 108.146 92.0461 106.303 99.7155C106.09 100.605 105.855 101.568 105.61 102.445C104.998 105.114 104.429 107.795 103.905 110.486C103.631 112.271 103.327 114.08 103.155 115.877C103.052 117.028 102.929 119.042 102.743 120.116C102.715 121.121 102.724 122.161 102.559 123.145C99.4987 120.035 96.3199 116.9 93.0211 114.087C90.6037 112.026 87.9857 110.149 85.5736 108.062C84.9727 107.739 83.3052 106.437 82.6873 105.974C80.4921 104.32 78.3297 102.591 76.0193 101.128C71.5165 98.2753 66.9953 95.4821 62.3503 92.9094C61.4178 92.3929 60.4361 91.8149 59.5587 91.1983L59.7776 91.1274C59.6677 90.9388 59.4928 90.4187 59.3755 90.3266C57.0555 88.5021 54.9637 86.0598 53.1918 83.6253C45.7354 73.381 39.5788 61.2991 36.3848 48.7011C37.9216 49.4557 39.4629 50.1997 41.0086 50.9333C48.6048 54.1569 55.1975 58.4384 62.0437 63.2045C61.9698 52.6486 63.8508 41.0735 66.8642 31.027C67.6911 28.2698 69.0035 25.1078 70.0669 22.4378L70.2073 22.0639C70.58 22.0861 70.5965 22.2017 70.8677 22.5384C74.9778 27.6414 79.8309 31.8828 84.1146 36.7844C84.6477 37.3943 85.3473 38.3163 85.9265 38.8313C88.9711 29.7605 92.5276 21.1208 98.6653 13.9922Z" fill="#CD5A96"/>
<path d="M36.3848 48.9805C37.9151 49.7453 39.4498 50.4995 40.9888 51.2432C48.5527 54.5109 55.1173 58.8511 61.9342 63.6825C67.6536 67.3793 75.5094 73.3793 80.3621 78.4367C80.6581 82.4696 81.0361 86.4948 81.496 90.509C81.7357 92.626 82.168 96.3024 82.6663 98.3349C83.2032 101.221 84.4712 106.445 85.3637 109.155C84.7654 108.827 83.105 107.507 82.4897 107.038C80.3039 105.362 78.1507 103.609 75.8502 102.125C71.3666 99.2338 66.8647 96.4024 62.2395 93.7945C61.311 93.2709 60.3335 92.6849 59.4598 92.0599L59.6778 91.988C59.5684 91.7968 59.3942 91.2696 59.2774 91.1762C56.9673 89.3268 54.8844 86.851 53.1201 84.3831C45.6955 73.9984 39.5652 61.751 36.3848 48.9805Z" fill="#EDCCCE"/>
<path d="M36.3848 48.9805C37.9151 49.7453 39.4498 50.4995 40.9888 51.2432C42.8364 55.2633 45.5608 59.5995 47.7461 63.4186C50.3807 68.0227 53.1921 72.6804 56.2094 76.9843C62.5213 85.3651 71.1 91.7981 79.6968 96.9949C80.5038 97.4827 81.7801 98.0647 82.6663 98.3349C83.2032 101.221 84.4712 106.445 85.3637 109.155C84.7654 108.827 83.105 107.507 82.4897 107.038C80.3039 105.362 78.1507 103.609 75.8502 102.125C71.3666 99.2338 66.8647 96.4024 62.2395 93.7945C61.311 93.2709 60.3335 92.6849 59.4598 92.0599L59.6778 91.988C59.5684 91.7968 59.3942 91.2696 59.2774 91.1762C56.9673 89.3268 54.8844 86.851 53.1201 84.3831C45.6955 73.9984 39.5652 61.751 36.3848 48.9805Z" fill="#D09DA7"/>
<path d="M70.0378 22.7664L70.1858 22.3906C70.5789 22.4129 70.5963 22.5291 70.8823 22.8674C75.2169 27.9962 80.3349 32.2589 84.8526 37.1853C85.4148 37.7983 86.1526 38.7248 86.7634 39.2425C82.431 52.8357 80.8905 62.5084 81.0649 76.8391L81.0939 78.3666C75.9543 73.3524 67.634 67.4036 61.5764 63.7384C61.4986 53.1294 63.4822 41.496 66.6602 31.3989C67.5322 28.6278 68.9163 25.4498 70.0378 22.7664Z" fill="#D09DA7"/>
<path d="M70.069 22.3906C70.147 22.5345 70.2251 22.6781 70.3031 22.8218C70.2824 23.9488 70.1422 25.7773 70.0268 26.8478C69.6737 30.1205 69.5564 33.9988 69.6102 37.2184C69.6538 39.8141 70.6119 44.5337 71.0408 46.8688C71.8168 51.0933 79.2792 75.0405 81.1368 76.8287L81.1658 78.3666C76.0073 73.3185 67.6563 67.3295 61.5764 63.6396C61.4983 52.9589 63.4892 41.2468 66.6789 31.0815C67.5542 28.2916 68.9433 25.0922 70.069 22.3906Z" fill="#D47D9E"/>
<path d="M99.4495 13.9922C100.037 14.4616 100.668 15.0305 101.246 15.5273C97.3184 19.1752 90.9638 34.1314 89.6606 39.7413C84.1231 63.5783 88.9839 89.9315 98.8616 111.689C100.181 114.595 101.958 117.415 103.556 120.116C103.528 121.121 103.537 122.161 103.371 123.145C100.289 120.035 97.0875 116.9 93.7653 114.087C91.3308 112.026 88.6941 110.149 86.265 108.062C85.3622 105.389 84.0797 100.236 83.5367 97.3885C83.0328 95.3835 82.5955 91.7568 82.3531 89.6684C81.8879 85.7085 81.5056 81.7377 81.2062 77.7593L81.1786 76.2394C81.012 61.9806 82.4832 52.3564 86.6204 38.8313C89.6866 29.7605 93.2683 21.1208 99.4495 13.9922Z" fill="url(#paint12_linear_865_11828)"/>
<path d="M114.184 78.3646C113.544 77.6912 112.66 77.1786 111.951 76.5429C99.6396 65.5117 96.8959 44.491 98.2849 27.8152C98.45 25.831 98.9422 20.7175 100.195 19.5898C100.663 20.0102 101.37 23.9074 101.665 24.9533C102.273 27.079 102.953 29.1773 103.704 31.2436C107.087 40.5311 111.49 49.6993 116.331 58.1245C117.516 60.1866 118.938 63.4067 120.347 65.1353C118.328 69.3654 115.977 74.0277 114.184 78.3646Z" fill="#D47D9E"/>
<path d="M91.2281 62.9727C91.5789 66.8204 91.864 70.639 92.4281 74.439C94.0647 85.4635 97.1242 96.3156 101.3 106.297C102.037 108.06 103.109 110.255 103.556 112.104C103.309 113.907 103.035 115.734 102.88 117.549C102.692 117.485 102.543 117.392 102.432 117.175C94.8114 102.202 89.7117 80.5146 91.2281 62.9727Z" fill="#92315D"/>
<path d="M48.3683 103.966C47.0898 100.767 45.1641 97.6152 43.7585 94.0155C38.9053 81.6009 36.3961 68.2202 36.3848 54.6942C36.3913 53.0253 36.4137 51.2895 36.4387 49.6167C36.4459 49.1361 36.4612 49.2198 36.7239 48.9805L37.1925 49.0861C40.3571 61.8054 46.4568 74.0037 53.8443 84.3468C55.5999 86.8048 57.6724 89.2707 59.971 91.1127C60.0872 91.2057 60.2605 91.7308 60.3694 91.9213L60.1525 91.9929C58.4144 90.9935 56.4879 89.8956 54.6827 89.0923C54.7095 90.0985 54.6773 90.8593 54.6287 91.8606C54.705 91.4645 54.7769 91.0676 54.8449 90.6697C54.6243 90.4431 60.5432 107.445 61.4612 109.478C69.0173 126.213 78.6318 142.9 93.023 153.351C96.6224 155.98 102.605 159.115 105.728 161.891C109.126 164.023 111.775 166.14 115.003 168.417C125.154 175.582 132.18 182.613 139.94 192.842C139.231 193.388 138.062 193.973 137.242 194.295C135.006 195.345 133.324 195.907 130.896 195.814C128.881 195.92 127.289 195.987 125.287 195.797C124.261 195.34 121.006 194.727 119.713 194.382C115.655 193.298 111.313 192.149 107.434 190.418C105.673 189.621 102.576 188.294 101.134 187.128C96.7248 184.302 93.2171 181.381 89.3169 177.809C85.8619 174.637 82.0068 171.383 79.0596 167.596C76.0575 163.74 73.1221 159.411 70.6493 155.11C68.276 150.984 66.6922 146.387 64.6415 142.101C64.4502 141.424 64.1249 140.702 63.8575 140.053C62.1631 135.944 60.7244 131.733 59.3473 127.481C58.456 124.758 57.6845 121.987 57.0355 119.18C56.6018 117.339 56.1335 114.911 55.6331 113.168L55.5937 113.034C51.0162 109.239 51.6712 108.349 48.4892 104.124L48.3683 103.966Z" fill="#D47D9E"/>
<path d="M105.333 160.93C108.77 163.047 111.45 165.15 114.715 167.412C124.983 174.529 132.09 181.512 139.94 191.672C139.222 192.215 138.04 192.796 137.21 193.116C136.8 192.765 136.394 192.806 135.853 192.757C121.693 191.469 106.552 183.328 95.689 173.507C93.5339 171.559 89.9448 168.332 88.1621 165.957C89.0475 166.304 91.8765 169.677 93.0279 170.684C97.3117 174.425 101.621 178.728 106.573 181.438C107.311 181.488 113.801 177.263 115.687 177.08C116.414 177.008 123.521 175.042 123.806 174.813C122.727 173.558 120.267 171.958 118.904 170.869C114.474 167.331 109.957 164.262 105.29 161.129L105.333 160.93Z" fill="url(#paint13_linear_865_11828)"/>
<path d="M102.343 183.173C99.9226 181.415 97.2245 179.441 95.0734 177.344C81.4386 164.045 71.1972 146.18 64.1072 127.672C63.7475 126.733 63.4515 125.762 63.0431 124.847L62.9727 124.69L63.0945 124.547C63.5914 125.291 64.1098 126.841 64.5264 127.739C65.4356 129.7 66.3138 132.018 67.3279 133.908C72.4853 143.502 77.8512 153.102 84.4652 161.542C85.7516 163.184 87.326 165.395 88.8119 166.794C90.5684 169.206 94.1048 172.483 96.2284 174.461C106.932 184.434 121.851 192.702 135.804 194.01C136.337 194.059 136.736 194.018 137.141 194.374C134.913 195.433 133.235 196 130.815 195.906C123.007 195.047 114.917 191.428 108.086 187.216C106.245 186.08 104.194 184.438 102.343 183.173Z" fill="#92315D"/>
<path d="M106.585 103.555C107.997 107.492 109.354 110.309 111.622 113.79L111.649 114.042C114.841 121.631 121.849 130.216 127.833 135.333L128.139 135.37L128.353 135.082C128.291 135.391 128.234 135.686 128.182 135.998L128.433 135.828C129.183 136.274 129.813 136.818 130.393 137.164C133.989 139.556 136.481 141.154 140.824 141.218L140.896 141.226L143.166 140.973C143.176 142.273 143.145 144.083 143.281 145.334L143.176 176.414C143.151 179.425 142.86 183.71 142.924 186.491C143.302 186.949 143.401 187.208 143.882 187.391L144.137 187.24C143.763 188.238 142.812 190.379 142.573 191.172L142.013 191.717L141.785 191.631C140.941 189.802 139.951 187.612 139.255 185.731C138.79 184.885 137.862 182.681 137.42 181.707C135.844 178.308 134.347 174.863 132.932 171.379C130.509 165.475 127.865 159.681 125.009 154.014C122.378 148.834 119.236 143.843 115.997 139.101C114.916 137.518 113.337 136.148 112.351 134.523C110.483 132.194 108.871 129.797 106.86 127.538C105.844 126.397 104.658 125.474 103.745 124.447L103.555 124.232C103.718 123.249 103.71 122.21 103.737 121.206C103.921 120.134 104.044 118.122 104.146 116.972C104.317 115.177 104.619 113.37 104.891 111.587C105.411 108.899 105.976 106.221 106.585 103.555Z" fill="url(#paint14_linear_865_11828)"/>
<path d="M106.447 103.555C107.795 107.469 109.09 110.269 111.255 113.731L111.281 113.981C110.321 118.382 111.701 129.497 111.951 134.341C110.168 132.026 108.629 129.643 106.71 127.397C105.74 126.264 104.608 125.346 103.736 124.325L103.555 124.111C103.711 123.133 103.703 122.101 103.729 121.103C103.905 120.037 104.022 118.036 104.12 116.893C104.282 115.109 104.571 113.312 104.83 111.54C105.327 108.867 105.866 106.205 106.447 103.555Z" fill="#D09DA7"/>
<path d="M140.423 141.592L143.025 141.34C143.036 142.631 143.001 144.427 143.157 145.67L143.036 176.526C143.008 179.515 142.675 183.769 142.748 186.53C143.181 186.985 143.295 187.242 143.846 187.423L144.139 187.274C143.709 188.264 142.619 190.39 142.345 191.177L141.703 191.718L141.442 191.633C140.474 189.817 139.339 187.643 138.541 185.776L138.697 185.734L138.952 186.102L139.19 185.954C140.589 183.237 140.19 169.946 140.219 166.15C140.356 157.963 140.397 149.773 140.34 141.584L140.423 141.592Z" fill="#92315D"/>
<path d="M127.346 135.916L127.603 135.742C128.373 136.199 129.018 136.755 129.614 137.109C129.484 138.021 129.462 139.097 129.448 140.02C129.32 148.842 130.657 157.548 132.208 166.175C132.48 167.686 132.771 169.205 132.943 170.727C131.128 167.593 130.083 161.854 129.261 158.208C127.627 150.96 127.38 143.348 127.346 135.916Z" fill="#92315D"/>
<path d="M235.378 53.8771C238.203 52.2712 242.63 50.2422 245.607 48.9805C247.855 63.3444 244.31 81.3173 238.887 94.4569C238.409 95.6156 236.123 100.208 236.021 101.154C235.372 101.937 233.854 105.327 233.244 106.496C231.436 109.958 228.541 114.848 225.938 117.551C227.318 107.219 228.407 100.7 227.179 90.2478C224.31 91.7586 221.398 93.41 218.535 94.8719C214.472 96.9464 210.918 98.6105 207.028 101.101C204.844 102.507 202.72 104.023 200.661 105.646C199.869 106.265 198.041 107.818 197.314 108.305C197.493 107.183 197.755 105.903 197.988 104.79C199.256 98.7237 199.582 92.5419 200.329 86.408C200.325 84.2365 200.624 81.6706 200.65 79.3031C200.823 78.7768 202.607 76.8252 203.042 76.3273C206.254 72.6577 209.283 69.7464 213.139 66.9519C214.44 66.0094 218.141 63.7949 219.086 62.9179C219.813 62.7969 227.561 58.0322 228.983 57.2219C231.074 56.0087 233.207 54.8927 235.378 53.8771Z" fill="url(#paint15_linear_865_11828)"/>
<path d="M236.498 54.5781C235.786 56.0782 231.884 57.5809 231.339 58.9211C231.677 59.1152 231.613 59.0824 231.973 59.2027C231.928 61.2826 228.109 65.001 226.271 65.7613C222.601 67.279 219.239 69.9261 215.826 72.0383C211.413 74.7703 206.308 76.7742 202.606 80.5425C202.081 81.0927 201.601 82.8041 201.382 83.606L201.409 83.1559C201.154 84.3943 200.926 87.5951 200.285 88.1637C200.07 87.7511 200.135 87.7444 200.113 87.2123C200.109 85.0339 200.419 82.4599 200.447 80.0848C200.626 79.5569 202.478 77.599 202.929 77.0996C206.264 73.4183 209.408 70.4978 213.412 67.6944C214.761 66.7489 218.604 64.5274 219.585 63.6476C220.339 63.5262 228.383 58.7464 229.859 57.9335C232.029 56.7164 234.244 55.5969 236.498 54.5781Z" fill="#EDCCCE"/>
<path d="M118.949 35.6274C119.666 33.8673 120.24 32.2111 121.032 30.4383C125.044 21.6333 130.08 13.4488 136.013 6.09413C137.582 4.12837 139.685 1.42594 141.648 0C148.862 6.15108 155.883 17.7806 160.133 26.5954C161.41 29.2447 162.684 32.6363 163.73 35.4025C162.245 37.6838 160.671 40.022 159.273 42.3644C157.894 44.6748 156.466 47.8352 154.904 49.9764C154.528 50.7618 154.363 51.0693 153.883 51.7778C153.524 51.284 153.172 50.7228 152.833 50.2073C149.387 45.2468 145.654 40.539 141.657 36.1132C138.003 39.4952 132.043 47.3543 129.281 51.5228C128.913 51.1229 128.684 50.7505 128.379 50.2954C128.254 50.1316 127.823 49.389 127.692 49.1736C125.284 45.5089 123.015 41.7353 120.549 38.1168C119.995 37.303 119.424 36.5026 118.949 35.6274Z" fill="url(#paint16_linear_865_11828)"/>
<path d="M118.949 34.9163C119.666 33.1914 120.24 31.5683 121.032 29.8308C125.044 21.2015 130.08 13.1804 136.013 5.97251C137.582 4.04597 139.685 1.39748 141.648 0C148.862 6.02832 155.883 17.4257 160.133 26.0646C161.41 28.661 162.684 31.9849 163.73 34.696C162.245 36.9317 160.671 39.2233 159.273 41.5188C157.894 43.7831 156.466 46.8805 154.904 48.979C154.734 47.6088 155.398 44.2162 155.395 42.3524C155.381 29.8072 150.992 16.4121 144.934 5.81056C144.09 4.33147 142.527 1.82524 141.503 0.655191C141.32 0.862296 141.147 1.06407 140.985 1.2907C131.877 14.0612 126.175 32.1386 127.692 48.1922C125.284 44.6006 123.015 40.9024 120.549 37.3561C119.995 36.5585 119.424 35.7741 118.949 34.9163Z" fill="#92315D"/>
<path d="M128.744 50.5466C132.336 45.7723 134.289 41.0125 136.664 35.4308C138.316 31.5797 139.917 27.6986 141.462 23.7891C142.275 25.4777 143.073 27.1766 143.853 28.8851C145.523 32.5981 147.053 36.4737 148.693 40.2378C149.975 43.1757 151.399 46.3697 152.432 49.4284C152.61 49.9554 152.528 49.9599 152.389 50.4583C149.056 45.4855 145.447 40.7661 141.583 36.3293C138.049 39.7197 132.287 47.5982 129.616 51.7771C129.26 51.3761 129.039 51.0028 128.744 50.5466Z" fill="#92315D"/>
<defs>
<linearGradient id="paint0_linear_865_11828" x1="118.97" y1="200.506" x2="69.12" y2="82.5657" gradientUnits="userSpaceOnUse">
<stop stop-color="#C97A90"/>
<stop offset="1" stop-color="#F0D4D4"/>
</linearGradient>
<linearGradient id="paint1_linear_865_11828" x1="230.423" y1="163.473" x2="211.568" y2="143.538" gradientUnits="userSpaceOnUse">
<stop stop-color="#6F0335"/>
<stop offset="1" stop-color="#894465"/>
</linearGradient>
<linearGradient id="paint2_linear_865_11828" x1="161.024" y1="199.844" x2="217.735" y2="85.3688" gradientUnits="userSpaceOnUse">
<stop stop-color="#C78794"/>
<stop offset="1" stop-color="#F7D1D8"/>
</linearGradient>
<linearGradient id="paint3_linear_865_11828" x1="167.244" y1="199.298" x2="227.067" y2="91.7078" gradientUnits="userSpaceOnUse">
<stop stop-color="#BC4770"/>
<stop offset="1" stop-color="#E6C2C6"/>
</linearGradient>
<linearGradient id="paint4_linear_865_11828" x1="184.663" y1="192.093" x2="178.668" y2="130.713" gradientUnits="userSpaceOnUse">
<stop stop-color="#92194F"/>
<stop offset="1" stop-color="#D1418C"/>
</linearGradient>
<linearGradient id="paint5_linear_865_11828" x1="153.604" y1="163.708" x2="136.715" y2="156.585" gradientUnits="userSpaceOnUse">
<stop stop-color="#A42056"/>
<stop offset="1" stop-color="#DD6584"/>
</linearGradient>
<linearGradient id="paint6_linear_865_11828" x1="167.558" y1="162.552" x2="152.664" y2="124.198" gradientUnits="userSpaceOnUse">
<stop stop-color="#C13A6F"/>
<stop offset="1" stop-color="#DA668E"/>
</linearGradient>
<linearGradient id="paint7_linear_865_11828" x1="139.846" y1="136.234" x2="149.816" y2="41.2238" gradientUnits="userSpaceOnUse">
<stop stop-color="#E87AA0"/>
<stop offset="1" stop-color="#F4C6C9"/>
</linearGradient>
<linearGradient id="paint8_linear_865_11828" x1="204.416" y1="104.389" x2="153.41" y2="38.5603" gradientUnits="userSpaceOnUse">
<stop stop-color="#AC3A6D"/>
<stop offset="1" stop-color="#E06AAB"/>
</linearGradient>
<linearGradient id="paint9_linear_865_11828" x1="210.618" y1="73.3069" x2="200.223" y2="25.4676" gradientUnits="userSpaceOnUse">
<stop stop-color="#C48F9C"/>
<stop offset="1" stop-color="#D9B4B8"/>
</linearGradient>
<linearGradient id="paint10_linear_865_11828" x1="148.91" y1="139.653" x2="136.9" y2="87.3412" gradientUnits="userSpaceOnUse">
<stop stop-color="#E6729E"/>
<stop offset="1" stop-color="#F69FC0"/>
</linearGradient>
<linearGradient id="paint11_linear_865_11828" x1="37.9785" y1="179.093" x2="49.1246" y2="152.897" gradientUnits="userSpaceOnUse">
<stop stop-color="#418738"/>
<stop offset="1" stop-color="#73B267"/>
</linearGradient>
<linearGradient id="paint12_linear_865_11828" x1="104.552" y1="68.1309" x2="80.7937" y2="69.925" gradientUnits="userSpaceOnUse">
<stop stop-color="#861642"/>
<stop offset="1" stop-color="#AB3067"/>
</linearGradient>
<linearGradient id="paint13_linear_865_11828" x1="125.62" y1="196.183" x2="119.303" y2="175.904" gradientUnits="userSpaceOnUse">
<stop stop-color="#AB3559"/>
<stop offset="1" stop-color="#B95375"/>
</linearGradient>
<linearGradient id="paint14_linear_865_11828" x1="116.983" y1="177.312" x2="137.284" y2="124.581" gradientUnits="userSpaceOnUse">
<stop stop-color="#A9264E"/>
<stop offset="1" stop-color="#DF5F96"/>
</linearGradient>
<linearGradient id="paint15_linear_865_11828" x1="238.784" y1="107.25" x2="211.959" y2="71.3731" gradientUnits="userSpaceOnUse">
<stop stop-color="#B6617B"/>
<stop offset="1" stop-color="#E7C5CB"/>
</linearGradient>
<linearGradient id="paint16_linear_865_11828" x1="142.377" y1="52.6204" x2="135.461" y2="1.84934" gradientUnits="userSpaceOnUse">
<stop stop-color="#934F75"/>
<stop offset="1" stop-color="#CC6F9D"/>
</linearGradient>
</defs>
</svg>
