<svg width="152" height="19" viewBox="0 0 152 19" fill="none" xmlns="http://www.w3.org/2000/svg">
<g clip-path="url(#clip0_865_12070)">
<path d="M75.5 0C70.2617 0 66 4.26174 66 9.5C66 14.7384 70.2617 19 75.5 19C80.7383 19 85 14.7384 85 9.5C85 4.26174 80.7383 0 75.5 0ZM81.7588 4.10144C81.7595 4.12337 81.7607 4.14529 81.7618 4.16704C81.7598 4.17195 81.7581 4.17703 81.7565 4.18194C81.6867 4.06216 81.6141 3.94395 81.539 3.8268C81.5466 3.83416 81.5559 3.84065 81.5634 3.84819C81.6323 3.91729 81.72 3.95728 81.7898 4.02217C81.8514 4.0797 81.8126 4.09215 81.7588 4.10144Z" fill="#4A730C" fill-opacity="0.43"/>
</g>
<g clip-path="url(#clip1_865_12070)">
<path d="M31.5 0C26.2617 0 22 4.26174 22 9.5C22 14.7384 26.2617 19 31.5 19C36.7383 19 41 14.7384 41 9.5C41 4.26174 36.7383 0 31.5 0ZM38.0505 16.0825C36.2237 17.9016 34.0404 18.8111 31.5 18.8111C32.0456 18.8111 32.5135 17.9014 32.9048 16.0825C33.2959 14.2632 33.4916 12.069 33.4916 9.5C33.4916 6.93804 33.2961 4.74597 32.9046 2.92271C32.5135 1.10016 32.0456 0.188885 31.5 0.188885C34.0402 0.188885 36.2237 1.10034 38.0505 2.92271C39.8765 4.74597 40.7897 6.93804 40.7897 9.5C40.7897 12.069 39.8765 14.2632 38.0505 16.0825Z" fill="#4A730C" fill-opacity="0.43"/>
</g>
<g clip-path="url(#clip2_865_12070)">
<path d="M53.5 19C58.7383 19 63 14.7383 63 9.5C63 4.26156 58.7383 -1.53478e-06 53.5 -1.07683e-06C48.2617 -6.18889e-07 44 4.26157 44 9.5C44 14.7383 48.2617 19 53.5 19ZM57.1765 2.91727C56.1505 1.09805 54.916 0.188708 53.4739 0.188708C56.0355 0.188708 58.2281 1.09805 60.0506 2.91727C61.8735 4.73649 62.7848 6.93103 62.7848 9.5C62.7848 12.0618 61.8734 14.254 60.0506 16.0771C58.2281 17.8997 56.0355 18.8111 53.4739 18.8111C54.916 18.8111 56.1507 17.8995 57.1765 16.0771C58.2028 14.254 58.7158 12.0618 58.7158 9.5C58.7158 6.93103 58.2028 4.73649 57.1765 2.91727Z" fill="#4A730C" fill-opacity="0.43"/>
</g>
<g clip-path="url(#clip3_865_12070)">
<path d="M9.5 0C4.26174 0 0 4.26174 0 9.5C0 14.7384 4.26174 19 9.5 19C14.7383 19 19 14.7384 19 9.5C19 4.26174 14.7383 0 9.5 0ZM16.1122 16.0825C14.286 17.9019 12.0953 18.8113 9.54069 18.8113C8.09819 18.8113 6.86403 17.9018 5.83788 16.0825C4.81138 14.2633 4.29857 12.0693 4.29857 9.5C4.29857 6.93822 4.81138 4.74579 5.83771 2.92324C6.86403 1.10034 8.09819 0.188709 9.54069 0.188709C12.0953 0.188709 14.2861 1.10034 16.1122 2.92324C17.9386 4.74579 18.852 6.93822 18.852 9.5C18.852 12.0693 17.9386 14.2633 16.1122 16.0825Z" fill="#4A730C" fill-opacity="0.43"/>
</g>
<g clip-path="url(#clip4_865_12070)">
<path d="M120.5 19C125.738 19 130 14.7383 130 9.5C130 4.26156 125.738 -1.53478e-06 120.5 -1.07683e-06C115.262 -6.18889e-07 111 4.26157 111 9.5C111 14.7383 115.262 19 120.5 19ZM113.95 2.91745C115.776 1.09841 117.96 0.188882 120.5 0.188882C119.954 0.188882 119.486 1.09858 119.095 2.91745C118.704 4.73685 118.508 6.93103 118.508 9.5C118.508 12.062 118.704 14.254 119.095 16.0773C119.486 17.8998 119.954 18.8111 120.5 18.8111C117.96 18.8111 115.776 17.8997 113.95 16.0773C112.123 14.254 111.21 12.062 111.21 9.5C111.21 6.93103 112.123 4.73685 113.95 2.91745Z" fill="#4A730C" fill-opacity="0.43"/>
</g>
<g clip-path="url(#clip5_865_12070)">
<path d="M97.5 -1.66103e-06C92.2617 -7.45146e-07 88 4.26174 88 9.5C88 14.7384 92.2617 19 97.5 19C102.738 19 107 14.7384 107 9.5C107 4.26174 102.738 -2.57692e-06 97.5 -1.66103e-06ZM93.8235 16.0827C94.8495 17.9019 96.084 18.8113 97.5261 18.8113C94.9645 18.8113 92.7719 17.9019 90.9494 16.0827C89.1265 14.2635 88.2152 12.069 88.2152 9.5C88.2152 6.93822 89.1266 4.74597 90.9494 2.92289C92.7719 1.10034 94.9645 0.188883 97.5261 0.188883C96.084 0.188883 94.8493 1.10051 93.8235 2.92289C92.7972 4.74597 92.2842 6.93822 92.2842 9.5C92.2842 12.069 92.7972 14.2635 93.8235 16.0827Z" fill="#4A730C" fill-opacity="0.43"/>
</g>
<g clip-path="url(#clip6_865_12070)">
<path d="M142.5 19C147.738 19 152 14.7383 152 9.5C152 4.26156 147.738 -1.53478e-06 142.5 -1.07683e-06C137.262 -6.18889e-07 133 4.26157 133 9.5C133 14.7383 137.262 19 142.5 19ZM135.888 2.91745C137.714 1.09806 139.905 0.188708 142.459 0.188708C143.902 0.188708 145.136 1.09823 146.162 2.91745C147.189 4.73667 147.701 6.93068 147.701 9.5C147.701 12.0618 147.189 14.2542 146.162 16.0768C145.136 17.8997 143.902 18.8113 142.459 18.8113C139.905 18.8113 137.714 17.8997 135.888 16.0768C134.061 14.2542 133.148 12.0618 133.148 9.5C133.148 6.93068 134.061 4.73667 135.888 2.91745Z" fill="#4A730C" fill-opacity="0.43"/>
</g>
<defs>
<clipPath id="clip0_865_12070">
<rect width="19" height="19" fill="white" transform="translate(66)"/>
</clipPath>
<clipPath id="clip1_865_12070">
<rect width="19" height="19" fill="white" transform="translate(22)"/>
</clipPath>
<clipPath id="clip2_865_12070">
<rect width="19" height="19" fill="white" transform="translate(63 19) rotate(180)"/>
</clipPath>
<clipPath id="clip3_865_12070">
<rect width="19" height="19" fill="white"/>
</clipPath>
<clipPath id="clip4_865_12070">
<rect width="19" height="19" fill="white" transform="translate(130 19) rotate(180)"/>
</clipPath>
<clipPath id="clip5_865_12070">
<rect width="19" height="19" fill="white" transform="translate(88)"/>
</clipPath>
<clipPath id="clip6_865_12070">
<rect width="19" height="19" fill="white" transform="translate(152 19) rotate(180)"/>
</clipPath>
</defs>
</svg>
