<svg width="1920" height="1080" viewBox="0 0 1920 1080" xmlns="http://www.w3.org/2000/svg"><rect width="1920" height="1080" fill="#00c6d1"/><path d="M 0,1080 C 0,1080 0,216 0,216 C 127.30143540669857,171.79904306220095 254.60287081339715,127.59808612440193 381,139 C 507.39712918660285,150.40191387559807 632.88995215311,217.40669856459328 764,254 C 895.11004784689,290.5933014354067 1031.8373205741625,296.7751196172249 1156,296 C 1280.1626794258375,295.2248803827751 1391.7607655502393,287.49282296650716 1517,273 C 1642.2392344497607,258.50717703349284 1781.1196172248804,237.25358851674642 1920,216 C 1920,216 1920,1080 1920,1080 Z" fill="#005050" opacity="0.12"/><path d="M 0,1080 C 0,1080 0,432 0,432 C 141.60765550239233,426.6794258373206 283.21531100478467,421.3588516746412 429,422 C 574.7846889952153,422.6411483253588 724.7464114832536,429.244019138756 828,448 C 931.2535885167464,466.755980861244 987.799043062201,497.66507177033486 1114,507 C 1240.200956937799,516.3349282296651 1436.0574162679427,504.0956937799043 1582,488 C 1727.9425837320573,471.9043062200957 1823.9712918660287,451.95215311004785 1920,432 C 1920,432 1920,1080 1920,1080 Z" fill="#005050" opacity="0.24"/><path d="M 0,1080 C 0,1080 0,648 0,648 C 120.33492822966511,627.1196172248804 240.66985645933022,606.2392344497608 370,618 C 499.3301435406698,629.7607655502392 637.6555023923443,674.1626794258374 772,697 C 906.3444976076557,719.8373205741626 1036.708133971292,721.11004784689 1165,719 C 1293.291866028708,716.88995215311 1419.5119617224882,711.3971291866029 1545,699 C 1670.4880382775118,686.6028708133971 1795.244019138756,667.3014354066986 1920,648 C 1920,648 1920,1080 1920,1080 Z" fill="#005050" opacity="0.36"/><path d="M 0,1080 C 0,1080 0,864 0,864 C 159.5311004784689,897.377990430622 319.0622009569378,930.7559808612441 436,924 C 552.9377990430622,917.2440191387559 627.2822966507179,870.3540669856458 759,835 C 890.7177033492821,799.6459330143542 1079.8086124401912,775.8277511961724 1198,789 C 1316.1913875598088,802.1722488038276 1363.4832535885168,852.3349282296651 1472,871 C 1580.5167464114832,889.6650717703349 1750.2583732057415,876.8325358851674 1920,864 C 1920,864 1920,1080 1920,1080 Z" fill="#005050" opacity="0.48"/></svg>