<svg width="1920" height="1080" viewBox="0 0 1920 1080" xmlns="http://www.w3.org/2000/svg"><path d="M1429,592.9999999999999C1428.1666666666667,685.7514747863141,1388.863052745187,785.687055506926,1323.71999940354,834.2544243589427C1258.576946061893,882.8217932109595,1129.9283465173753,864.4947118880916,1038.1416799501187,884.4042131121007C946.3550133828621,904.3137143361098,848.1157715555352,983.109206728119,773.0000000000001,953.7114317029974C697.8842284444651,924.3136566778758,612.5274017159161,801.287645661296,587.4470506169087,708.0175629613713C562.3666995179012,614.7474802614465,584.5515575337989,482.37910128084394,622.5178934059552,394.09093550344915C660.4842292781115,305.80276972605435,744.608822257794,223.16430569015978,815.2450658498461,178.28856829700266C885.8813094418982,133.41283090384553,960.7561993659855,108.26034325383058,1046.3353549582678,124.83651114450635C1131.9145105505502,141.4126790351821,1264.9425585632512,199.71832749847493,1328.71999940354,277.7455756410572C1392.4974402438288,355.77282378363947,1429.8333333333333,500.24852521368564,1429,592.9999999999999C1428.1666666666667,685.7514747863141,1388.863052745187,785.687055506926,1323.71999940354,834.2544243589427" fill="#df6688"/></svg>