<?xml version="1.0" standalone="no"?>
<svg viewBox="0 0 200 200" xmlns="http://www.w3.org/2000/svg">
  <path fill="#08BDBA" d="M33.1,-61.4C39.6,-53.5,39.3,-38.1,43.9,-26.6C48.5,-15,58,-7.5,59.7,1C61.4,9.5,55.5,19.1,50.1,29.2C44.8,39.4,40,50.2,31.8,52.6C23.5,55,11.7,48.9,1.7,46C-8.4,43.1,-16.8,43.4,-25.5,41.3C-34.3,39.2,-43.3,34.7,-54,27.4C-64.6,20.2,-76.9,10.1,-73.7,1.9C-70.5,-6.4,-51.8,-12.8,-45.1,-26.9C-38.4,-41,-43.7,-62.9,-38.1,-71.3C-32.6,-79.7,-16.3,-74.7,-1.5,-72.1C13.3,-69.5,26.6,-69.3,33.1,-61.4Z" transform="translate(100 100)" />
</svg>
