<svg width="32" height="32" viewBox="0 0 32 32" fill="none" xmlns="http://www.w3.org/2000/svg">
<path d="M28.1509 11.2483L18.9109 3.86167C17.4843 2.71501 15.1776 2.71501 13.7643 3.84834L4.52426 11.2483C3.48426 12.075 2.81759 13.8216 3.04426 15.1283L4.81759 25.7416C5.13759 27.6349 6.95093 29.1683 8.87093 29.1683H23.8043C25.7109 29.1683 27.5376 27.6216 27.8576 25.7416L29.6309 15.1283C29.8443 13.8216 29.1776 12.075 28.1509 11.2483ZM16.3376 20.7549C14.4976 20.7549 13.0043 19.2616 13.0043 17.4216C13.0043 15.5816 14.4976 14.0883 16.3376 14.0883C18.1776 14.0883 19.6709 15.5816 19.6709 17.4216C19.6709 19.2616 18.1776 20.7549 16.3376 20.7549Z" fill="#0080C6"/>
</svg>
