<svg width="36" height="36" viewBox="0 0 36 36" fill="none" xmlns="http://www.w3.org/2000/svg">
<path d="M9.13803 7.82698C9.74039 7.52007 10.5175 7.50123 12 7.50008V7.06066C12 6.38152 12.2698 5.73021 12.75 5.25C13.2302 4.76979 13.8815 4.5 14.5607 4.5H21.4394C22.1184 4.5 22.7699 4.76979 23.25 5.25C23.7302 5.73021 24 6.38152 24 7.06066V7.50008C25.4826 7.50123 26.2596 7.52007 26.862 7.82698C27.4265 8.11459 27.8855 8.57353 28.173 9.13803C28.5 9.77976 28.5 10.6198 28.5 12.3V26.7C28.5 28.3801 28.5 29.2203 28.173 29.862C27.8855 30.4265 27.4265 30.8854 26.862 31.173C26.2203 31.5 25.3802 31.5 23.7 31.5H12.3C10.6198 31.5 9.77976 31.5 9.13803 31.173C8.57354 30.8854 8.11459 30.4265 7.82698 29.862C7.5 29.2203 7.5 28.3801 7.5 26.7V12.3C7.5 10.6198 7.5 9.77976 7.82698 9.13803C8.11459 8.57353 8.57354 8.11459 9.13803 7.82698Z" fill="#0080C6"/>
<line x1="14" y1="15.15" x2="23" y2="15.15" stroke="white" stroke-width="1.7"/>
<line x1="14" y1="23.15" x2="23" y2="23.15" stroke="white" stroke-width="1.7"/>
</svg>
