<svg width="33" height="22" viewBox="0 0 33 22" fill="none" xmlns="http://www.w3.org/2000/svg">
<path d="M17.0185 21.4044C16.7859 21.4044 16.6192 21.4 16.5303 21.3972C16.0155 21.3791 15.5862 21.0332 15.5085 20.5724C15.43 20.1116 15.7242 19.6654 16.2096 19.5086C16.4736 19.4234 22.6929 17.3711 24.7519 12.9266C25.4839 11.3459 25.6862 9.46904 25.3535 7.34895C25.2765 6.85649 25.6224 6.39056 26.1555 6.26861C29.2336 5.56613 31.8599 5.68423 31.9699 5.68901C32.5184 5.71565 32.9561 6.11116 32.9868 6.60653C33.0043 6.89065 33.3622 13.6097 28.8175 17.6726L28.8168 17.673C24.9515 21.1248 18.8814 21.4044 17.0185 21.4044Z" fill="#D56D95"/>
<path d="M15.7723 21.0919C15.3408 20.6989 15.3592 20.0593 15.8122 19.6866C16.0189 19.5168 20.8675 15.4756 20.8675 10.703C20.8675 8.99846 20.2575 7.20876 19.0543 5.38286C18.772 4.955 18.8932 4.40332 19.3344 4.10521C21.9054 2.36803 24.4247 1.56645 24.5304 1.53317C25.0424 1.37228 25.6125 1.58353 25.8506 2.02696C25.8989 2.11656 27.0349 4.25251 27.4832 7.07509C27.8718 9.54897 27.6205 11.7707 26.7366 13.6795C26.7366 13.6799 26.7366 13.6799 26.7366 13.6799C24.3553 18.8189 17.6857 21.0992 16.9334 21.3425C16.5227 21.4745 16.0709 21.3699 15.7723 21.0919Z" fill="#E380A7"/>
<path d="M4.18326 17.6729L4.18255 17.6725C-0.362203 13.6098 -0.00436138 6.89057 0.0131697 6.60651C0.0439781 6.1112 0.481741 5.71556 1.03017 5.68898C1.14012 5.68426 3.76651 5.5661 6.84464 6.26859C7.3776 6.39053 7.72364 6.85641 7.64656 7.34892C7.31385 9.46902 7.51624 11.3459 8.24816 12.9266C10.3072 17.371 16.5265 19.4233 16.7905 19.5086C17.2759 19.6654 17.57 20.1116 17.4916 20.5724C17.4139 21.0332 16.9846 21.3791 16.4698 21.3971C16.3809 21.4 16.2142 21.4044 15.9816 21.4044C14.1186 21.4044 8.04855 21.1247 4.18326 17.6729Z" fill="#E380A7"/>
<path d="M16.0663 21.3425C15.3141 21.0993 8.64446 18.819 6.26319 13.6799C6.26319 13.6799 6.26319 13.6799 6.26319 13.6795C5.37929 11.7707 5.12792 9.54891 5.51657 7.07509C5.96484 4.25251 7.10082 2.11661 7.14916 2.02696C7.38731 1.58358 7.95739 1.37227 8.46934 1.53316C8.57511 1.56639 11.0943 2.36803 13.6654 4.1052C14.1066 4.40325 14.2278 4.95493 13.9455 5.38286C12.7422 7.20869 12.1323 8.99845 12.1323 10.703C12.1323 15.4757 16.9809 19.5169 17.1875 19.6866C17.6406 20.0592 17.659 20.6989 17.2274 21.0919C16.9289 21.3699 16.4771 21.4746 16.0663 21.3425Z" fill="#E697B6"/>
<path d="M16.4932 21.3986C16.2019 21.3986 15.9379 21.2941 15.7446 21.1243C15.262 20.7303 9.9812 16.2858 9.9812 10.7025C9.9812 4.9595 15.5498 0.43425 15.7873 0.244566C16.1935 -0.0816385 16.8056 -0.081289 17.2132 0.244216C17.2966 0.31102 19.28 1.91109 20.9035 4.38782C22.3071 6.51707 23.0193 8.64259 23.0193 10.7025C23.0193 16.2311 17.8492 20.6413 17.2595 21.1259C17.0723 21.2803 16.791 21.3986 16.4932 21.3986Z" fill="#EBB1C8"/>
<path d="M17.213 0.244187C17.0094 0.081551 16.7547 0.000116585 16.5 0V21.3979C16.7951 21.396 17.0737 21.2791 17.2593 21.1259C17.8489 20.6413 23.0191 16.231 23.0191 10.7024C23.0191 8.64251 22.3068 6.51705 20.9032 4.38779C19.2798 1.91112 17.2964 0.31099 17.213 0.244187Z" fill="#E697B6"/>
</svg>
