<svg width="18" height="18" viewBox="0 0 18 18" fill="none" xmlns="http://www.w3.org/2000/svg">
<g clip-path="url(#clip0_764_2613)">
<path fill-rule="evenodd" clip-rule="evenodd" d="M8.78145 1.14911C8.23395 0.79257 7.5585 0.688032 6.95441 0.783503C6.35102 0.878873 5.71744 1.1928 5.34443 1.79584C5.1999 2.02951 5.10768 2.28485 5.06692 2.55575C4.47984 2.51644 3.88564 2.69448 3.4391 3.06689C2.98691 3.44401 2.69806 4.00824 2.69806 4.69263C2.69806 4.91711 2.72888 5.14736 2.79006 5.38241C2.56723 5.42957 2.35273 5.51189 2.15199 5.6252C1.48906 5.99945 1.02328 6.67997 0.839347 7.41631C0.652027 8.16615 0.741842 9.03503 1.27539 9.77933C1.54567 10.1564 1.91177 10.4768 2.37172 10.7288C2.2579 10.8811 2.16172 11.0453 2.08358 11.2174C1.76437 11.9201 1.74033 12.7528 1.98419 13.485C2.23151 14.2276 2.77317 14.9153 3.62718 15.244C4.18375 15.4583 4.81961 15.4999 5.51663 15.3562C5.54848 15.712 5.64559 16.0354 5.81237 16.3183C6.16948 16.9238 6.7677 17.2093 7.35406 17.246C7.91423 17.281 8.53185 17.0835 9 16.6844C9.46815 17.0835 10.0858 17.281 10.646 17.246C11.2323 17.2093 11.8305 16.9238 12.1877 16.3183C12.3544 16.0354 12.4515 15.712 12.4834 15.3562C13.1804 15.4999 13.8163 15.4583 14.3728 15.244C15.2268 14.9153 15.7684 14.2276 16.0158 13.485C16.2597 12.7528 16.2356 11.9201 15.9164 11.2174C15.8383 11.0453 15.7421 10.8811 15.6283 10.7288C16.0883 10.4768 16.4543 10.1564 16.7246 9.77933C17.2582 9.03503 17.3479 8.16615 17.1607 7.41631C16.9767 6.67997 16.5109 5.99945 15.848 5.6252C15.6472 5.51189 15.4327 5.42957 15.2099 5.38241C15.2711 5.14736 15.3019 4.91711 15.3019 4.69263C15.3019 4.00824 15.0131 3.44401 14.5609 3.06689C14.1143 2.69448 13.5202 2.51644 12.9331 2.55575C12.8924 2.28485 12.8001 2.02951 12.6556 1.79584C12.2825 1.1928 11.649 0.878873 11.0456 0.783503C10.4415 0.688032 9.76605 0.79257 9.21855 1.14911C8.98957 1.29823 9.01042 1.29823 8.78145 1.14911ZM9.75247 15.0388V13.1466C9.75338 12.787 9.83498 12.2593 10.0454 11.8499C10.243 11.4654 10.4959 11.2701 10.8812 11.2701C11.2967 11.2701 11.6336 10.933 11.6336 10.517C11.6336 10.1012 11.2967 9.76395 10.8812 9.76395C10.4402 9.76395 10.0662 9.87 9.75247 10.0421V9.3813C9.75338 9.02175 9.83498 8.49405 10.0454 8.08455C10.243 7.7001 10.4959 7.5048 10.8812 7.5048C11.2967 7.5048 11.6336 7.16766 11.6336 6.75176C11.6336 6.33585 11.2967 5.9987 10.8812 5.9987C10.4402 5.9987 10.0662 6.10468 9.75247 6.27677V2.98149C9.75375 2.6839 9.87532 2.51834 10.0394 2.41146C10.2327 2.2856 10.5213 2.22542 10.8108 2.27118C11.101 2.31704 11.2904 2.45028 11.3759 2.58857C11.4452 2.70059 11.5294 2.94968 11.3182 3.44291C11.1761 3.77471 11.2893 4.16075 11.588 4.36313C11.8868 4.56551 12.2869 4.52729 12.542 4.27203C12.8177 3.99608 13.3172 3.99024 13.5974 4.22392C13.7096 4.31747 13.797 4.45923 13.797 4.69263C13.797 4.94567 13.6911 5.35975 13.2787 5.93754C13.0676 6.23337 13.0978 6.63791 13.3504 6.89909C13.6031 7.16026 14.0062 7.20349 14.3084 7.00183C14.6326 6.78556 14.8924 6.81498 15.1086 6.93701C15.3628 7.08047 15.6024 7.38834 15.7007 7.78163C15.7955 8.16135 15.7442 8.5632 15.5017 8.90145C15.26 9.2388 14.7574 9.60908 13.7674 9.77423C13.4012 9.83528 13.1343 10.1544 13.1386 10.5258C13.1429 10.8972 13.4172 11.21 13.7846 11.2625C14.1609 11.3163 14.4053 11.5299 14.5464 11.8406C14.6975 12.1733 14.7205 12.6113 14.5881 13.0087C14.4592 13.3957 14.2013 13.6964 13.8325 13.8383C13.4623 13.9808 12.8549 14.0107 11.945 13.5968C11.6821 13.4771 11.374 13.5188 11.1521 13.7037C10.9301 13.8887 10.8336 14.1845 10.9037 14.465C10.9966 14.837 11.1501 15.7055 10.552 15.7429C10.1388 15.7687 9.75465 15.4541 9.75247 15.0388ZM8.24753 2.98149C8.24625 2.6839 8.12468 2.51834 7.96058 2.41146C7.7673 2.2856 7.47868 2.22542 7.18918 2.27118C6.89902 2.31704 6.70958 2.45028 6.62405 2.58857C6.55476 2.70059 6.47054 2.94968 6.68176 3.44291C6.82384 3.77471 6.71068 4.16075 6.41198 4.36313C6.11329 4.56551 5.7131 4.52729 5.45804 4.27203C5.18231 3.99608 4.68274 3.99024 4.40254 4.22392C4.29038 4.31747 4.203 4.45923 4.203 4.69263C4.203 4.94567 4.30886 5.35975 4.72126 5.93754C4.9324 6.23337 4.90222 6.63791 4.64953 6.89909C4.39684 7.16026 3.99379 7.20349 3.69154 7.00183C3.3674 6.78556 3.10755 6.81498 2.8914 6.93701C2.63725 7.08047 2.39759 7.38834 2.29936 7.78163C2.2045 8.16135 2.25577 8.5632 2.49821 8.90145C2.74006 9.2388 3.24262 9.60908 4.23265 9.77423C4.59874 9.83528 4.86568 10.1544 4.86136 10.5258C4.85705 10.8972 4.58278 11.21 4.21536 11.2625C3.8391 11.3163 3.59475 11.5299 3.45363 11.8406C3.30254 12.1733 3.27955 12.6113 3.41191 13.0087C3.54082 13.3957 3.79867 13.6964 4.16742 13.8383C4.53766 13.9808 5.14511 14.0107 6.05498 13.5968C6.31791 13.4771 6.62605 13.5188 6.84797 13.7037C7.06989 13.8887 7.1664 14.1845 7.09635 14.465C7.00341 14.837 6.84993 15.7055 7.44794 15.7429C7.8612 15.7687 8.24535 15.4541 8.24753 15.0388V15.0354V13.1469C8.24662 12.7873 8.1651 12.2594 7.95458 11.8499C7.75702 11.4654 7.50405 11.2701 7.11882 11.2701C6.70324 11.2701 6.36634 10.933 6.36634 10.517C6.36634 10.1012 6.70324 9.76395 7.11882 9.76395C7.55985 9.76395 7.9338 9.87 8.24753 10.0421V9.3816C8.24662 9.02205 8.1651 8.49413 7.95458 8.08455C7.75702 7.7001 7.50405 7.5048 7.11882 7.5048C6.70324 7.5048 6.36634 7.16766 6.36634 6.75176C6.36634 6.33585 6.70324 5.9987 7.11882 5.9987C7.55985 5.9987 7.9338 6.10468 8.24753 6.27677V2.98149Z" fill="#328286"/>
</g>
<defs>
<clipPath id="clip0_764_2613">
<rect width="18" height="18" fill="white"/>
</clipPath>
</defs>
</svg>
