<svg width="25" height="26" viewBox="0 0 25 26" fill="none" xmlns="http://www.w3.org/2000/svg">
<path d="M6.75346 10.7461H3.83514C3.58731 10.7461 3.38672 10.9409 3.38672 11.1815V14.0152C3.38672 14.2556 3.58731 14.4507 3.83514 14.4507H6.75346C7.00129 14.4507 7.20188 14.2556 7.20188 14.0152V11.1815C7.20188 10.9412 7.00129 10.7461 6.75346 10.7461ZM6.30504 13.5798H4.28356V11.6169H6.30504V13.5798Z" fill="#09818B" stroke="#09818B" stroke-width="0.0339133"/>
<path d="M13.5601 10.7461H10.6418C10.394 10.7461 10.1934 10.9409 10.1934 11.1815V14.0152C10.1934 14.2556 10.394 14.4507 10.6418 14.4507H13.5601C13.8076 14.4507 14.0085 14.2556 14.0085 14.0152V11.1815C14.0085 10.9412 13.8076 10.7461 13.5601 10.7461ZM13.1117 13.5798H11.0902V11.6169H13.1117V13.5798Z" fill="#09818B" stroke="#09818B" stroke-width="0.0339133"/>
<path d="M20.1558 10.7461H17.2375C16.99 10.7461 16.7891 10.9409 16.7891 11.1815V14.0152C16.7891 14.2556 16.99 14.4507 17.2375 14.4507H20.1558C20.4033 14.4507 20.6042 14.2556 20.6042 14.0152V11.1815C20.6042 10.9412 20.4033 10.7461 20.1558 10.7461ZM19.7074 13.5798H17.6859V11.6169H19.7074V13.5798Z" fill="#09818B" stroke="#09818B" stroke-width="0.0339133"/>
<path d="M6.75346 17.2031H3.83514C3.58731 17.2031 3.38672 17.3982 3.38672 17.6385V20.4723C3.38672 20.7126 3.58731 20.9077 3.83514 20.9077H6.75346C7.00129 20.9077 7.20188 20.7126 7.20188 20.4723V17.6385C7.20188 17.3982 7.00129 17.2031 6.75346 17.2031ZM6.30504 20.0369H4.28356V18.074H6.30504V20.0369Z" fill="#09818B" stroke="#09818B" stroke-width="0.0339133"/>
<path d="M13.5601 17.2031H10.6418C10.394 17.2031 10.1934 17.3982 10.1934 17.6385V20.4723C10.1934 20.7126 10.394 20.9077 10.6418 20.9077H13.5601C13.8076 20.9077 14.0085 20.7126 14.0085 20.4723V17.6385C14.0085 17.3982 13.8076 17.2031 13.5601 17.2031ZM13.1117 20.0369H11.0902V18.074H13.1117V20.0369Z" fill="#09818B" stroke="#09818B" stroke-width="0.0339133"/>
<path d="M20.1558 17.2031H17.2375C16.99 17.2031 16.7891 17.3982 16.7891 17.6385V20.4723C16.7891 20.7126 16.99 20.9077 17.2375 20.9077H20.1558C20.4033 20.9077 20.6042 20.7126 20.6042 20.4723V17.6385C20.6042 17.3982 20.4033 17.2031 20.1558 17.2031ZM19.7074 20.0369H17.6859V18.074H19.7074V20.0369Z" fill="#09818B" stroke="#09818B" stroke-width="0.0339133"/>
<path d="M23.7082 2.31466H20.7466C20.7427 2.31466 20.7394 2.31553 20.7355 2.31582V1.73584C20.7355 0.787195 19.9409 0.015625 18.964 0.015625C17.987 0.015625 17.1924 0.787485 17.1924 1.73584V2.31466H13.8552V1.73584C13.8552 0.787195 13.0606 0.015625 12.0837 0.015625C11.1067 0.015625 10.3121 0.787485 10.3121 1.73584V2.31466H6.97468V1.73584C6.97468 0.787195 6.18008 0.015625 5.20312 0.015625C4.22616 0.015625 3.43156 0.787485 3.43156 1.73584V2.31495C3.43006 2.31495 3.42857 2.31466 3.42707 2.31466H0.465999C0.218172 2.31466 0.0175781 2.50944 0.0175781 2.75008V25.3184C0.0175781 25.5587 0.218172 25.7538 0.465999 25.7538H23.7082C23.9558 25.7538 24.1567 25.5587 24.1567 25.3184V2.75008C24.1567 2.50944 23.9558 2.31466 23.7082 2.31466ZM18.0892 1.73584C18.0892 1.26732 18.4815 0.886471 18.964 0.886471C19.4465 0.886471 19.8387 1.26732 19.8387 1.73584V4.1385C19.8387 4.60673 19.4465 4.98787 18.964 4.98787C18.4815 4.98787 18.0892 4.60702 18.0892 4.1385V1.73584ZM12.0837 0.886471C12.5659 0.886471 12.9584 1.26732 12.9584 1.73584V4.1385C12.9584 4.60673 12.5662 4.98787 12.0837 4.98787C11.6012 4.98787 11.209 4.60702 11.209 4.1385V2.79072C11.2102 2.77708 11.2131 2.76402 11.2131 2.74979C11.2131 2.73557 11.2102 2.72251 11.209 2.70886V1.73584C11.209 1.26732 11.6012 0.886471 12.0837 0.886471ZM4.3284 1.73584C4.3284 1.26732 4.72062 0.886471 5.20312 0.886471C5.68532 0.886471 6.07784 1.26732 6.07784 1.73584V4.1385C6.07784 4.60673 5.68562 4.98787 5.20312 4.98787C4.72062 4.98787 4.3284 4.60702 4.3284 4.1385V1.73584ZM23.2598 24.8829H0.91442V3.1855H3.42707C3.42857 3.1855 3.43006 3.18521 3.43156 3.18521V4.13879C3.43156 5.08743 4.22646 5.859 5.20312 5.859C6.17978 5.859 6.97468 5.08743 6.97468 4.13879V3.1858H10.3121V4.13879C10.3121 5.08743 11.107 5.859 12.0837 5.859C13.0603 5.859 13.8552 5.08743 13.8552 4.13879V3.1858H17.1924V4.13879C17.1924 5.08743 17.987 5.859 18.964 5.859C19.9409 5.859 20.7355 5.08743 20.7355 4.13879V3.18434C20.7394 3.18434 20.7427 3.1855 20.7466 3.1855H23.2598V24.8829Z" fill="#09818B" stroke="#09818B" stroke-width="0.0339133"/>
</svg>
