<svg width="17" height="18" viewBox="0 0 17 18" fill="none" xmlns="http://www.w3.org/2000/svg">
<path opacity="0.4" d="M13.6188 0H12.0665C10.2855 0 9.34595 0.98652 9.34595 2.85662V4.48652C9.34595 6.35662 10.2855 7.34314 12.0665 7.34314H13.6188C15.3999 7.34314 16.3394 6.35662 16.3394 4.48652V2.85662C16.3394 0.98652 15.3999 0 13.6188 0Z" fill="#005E66"/>
<path opacity="0.4" d="M4.28105 9.80469H2.72876C0.939543 9.80469 0 10.7912 0 12.6613V14.2912C0 16.1699 0.939542 17.1564 2.72059 17.1564H4.27288C6.05392 17.1564 6.99346 16.1699 6.99346 14.2998V12.6699C7.00163 10.7912 6.06209 9.80469 4.28105 9.80469Z" fill="#005E66"/>
<path d="M3.5049 7.36029C5.4406 7.36029 7.0098 5.71263 7.0098 3.68015C7.0098 1.64766 5.4406 0 3.5049 0C1.5692 0 0 1.64766 0 3.68015C0 5.71263 1.5692 7.36029 3.5049 7.36029Z" fill="#005E66"/>
<path d="M12.835 17.1572C14.7707 17.1572 16.3399 15.5095 16.3399 13.477C16.3399 11.4445 14.7707 9.79688 12.835 9.79688C10.8993 9.79688 9.33008 11.4445 9.33008 13.477C9.33008 15.5095 10.8993 17.1572 12.835 17.1572Z" fill="#005E66"/>
</svg>
