<svg width="17" height="17" viewBox="0 0 17 17" fill="none" xmlns="http://www.w3.org/2000/svg">
<path d="M8.5 10.4479C8.20958 10.4479 7.96875 10.2071 7.96875 9.91667V6.375C7.96875 6.08458 8.20958 5.84375 8.5 5.84375C8.79042 5.84375 9.03125 6.08458 9.03125 6.375V9.91667C9.03125 10.2071 8.79042 10.4479 8.5 10.4479Z" fill="#FF0000"/>
<path d="M8.49984 12.7485C8.45734 12.7485 8.40775 12.7414 8.35817 12.7343C8.31567 12.7273 8.27317 12.7131 8.23067 12.6918C8.18817 12.6777 8.14567 12.6564 8.10317 12.6281C8.06775 12.5998 8.03234 12.5714 7.99692 12.5431C7.86942 12.4085 7.7915 12.2243 7.7915 12.0402C7.7915 11.856 7.86942 11.6718 7.99692 11.5373C8.03234 11.5089 8.06775 11.4806 8.10317 11.4523C8.14567 11.4239 8.18817 11.4027 8.23067 11.3885C8.27317 11.3673 8.31567 11.3531 8.35817 11.346C8.45025 11.3248 8.54942 11.3248 8.63442 11.346C8.684 11.3531 8.7265 11.3673 8.769 11.3885C8.8115 11.4027 8.854 11.4239 8.8965 11.4523C8.93192 11.4806 8.96734 11.5089 9.00275 11.5373C9.13025 11.6718 9.20817 11.856 9.20817 12.0402C9.20817 12.2243 9.13025 12.4085 9.00275 12.5431C8.96734 12.5714 8.93192 12.5998 8.8965 12.6281C8.854 12.6564 8.8115 12.6777 8.769 12.6918C8.7265 12.7131 8.684 12.7273 8.63442 12.7343C8.59192 12.7414 8.54234 12.7485 8.49984 12.7485Z" fill="#FF0000"/>
<path d="M12.7924 15.6961H4.20742C2.82617 15.6961 1.77076 15.1932 1.23242 14.2865C0.70117 13.3798 0.772006 12.2111 1.44492 10.9998L5.73742 3.27898C6.44576 2.00398 7.42327 1.30273 8.49994 1.30273C9.5766 1.30273 10.5541 2.00398 11.2624 3.27898L15.5549 11.0069C16.2279 12.2182 16.3058 13.3798 15.7674 14.2936C15.2291 15.1932 14.1737 15.6961 12.7924 15.6961ZM8.49994 2.36523C7.8341 2.36523 7.18244 2.87523 6.66534 3.79607L2.37992 11.524C1.89826 12.3882 1.82034 13.1815 2.15326 13.7552C2.48617 14.329 3.22284 14.6407 4.21451 14.6407H12.7995C13.7912 14.6407 14.5208 14.329 14.8608 13.7552C15.2008 13.1815 15.1158 12.3952 14.6341 11.524L10.3345 3.79607C9.81744 2.87523 9.16577 2.36523 8.49994 2.36523Z" fill="#FF0000"/>
</svg>
