<svg width="17" height="17" viewBox="0 0 17 17" fill="none" xmlns="http://www.w3.org/2000/svg">
<path d="M8.4272 15.4694C12.4741 15.4694 15.7548 12.253 15.7548 8.28547C15.7548 4.31791 12.4741 1.10156 8.4272 1.10156C4.38028 1.10156 1.09961 4.31791 1.09961 8.28547C1.09961 9.43468 1.37485 10.5208 1.86421 11.4841C1.99426 11.7401 2.03755 12.0327 1.96215 12.3089L1.52572 13.9081C1.33625 14.6023 1.98406 15.2373 2.69215 15.0516L4.3233 14.6238C4.60508 14.5498 4.90351 14.5923 5.16461 14.7197C6.14712 15.1996 7.255 15.4694 8.4272 15.4694Z" stroke="#08818C" stroke-width="2.5"/>
<path opacity="0.5" d="M5.49609 7.20703H11.3582" stroke="#08818C" stroke-width="2.2" stroke-linecap="round"/>
<path opacity="0.5" d="M5.49609 9.72266H9.52627" stroke="#08818C" stroke-width="2.2" stroke-linecap="round"/>
</svg>
