<svg width="23" height="23" viewBox="0 0 23 23" fill="none" xmlns="http://www.w3.org/2000/svg">
<path d="M19.6274 8.6076H18.9241C18.7317 8.6076 18.7253 8.48164 18.7187 8.41895C18.3499 4.94447 15.4017 2.22852 11.831 2.22852H11.1691C7.62485 2.22852 4.6939 4.90435 4.29004 8.34196C4.27973 8.43002 4.27433 8.6076 4.11235 8.6076H3.37272C2.88728 8.6076 1.75415 9.11842 1.75415 11.6981V13.0519C1.75415 14.9652 2.88728 15.4065 3.37272 15.4065H5.7259C6.21134 15.4065 6.60851 15.0093 6.60851 14.5239V9.49021C6.60851 9.00477 6.21134 8.6076 5.7259 8.6076C5.7259 8.6076 5.61511 8.59788 5.64335 8.40054C6.03166 5.68373 8.34991 3.57837 11.1691 3.57837H11.831C14.6311 3.57837 16.9555 5.65263 17.349 8.3452C17.3617 8.43202 17.409 8.6076 17.2742 8.6076C16.7888 8.6076 16.3916 9.00477 16.3916 9.49021V14.5239C16.3916 15.0093 16.7888 15.4065 17.2742 15.4065H17.7161C17.8376 15.4065 17.8169 15.5036 17.8061 15.5525C17.4461 17.1778 16.6379 19.0218 14.8237 19.0218H13.4799C13.3428 19.0218 13.3089 18.9213 13.2828 18.8737C13.0651 18.4759 12.643 18.2061 12.1576 18.2061H10.9194C10.2111 18.2061 9.63691 18.7803 9.63691 19.4886C9.63691 20.1969 10.2111 20.771 10.9194 20.771H12.1576C12.6495 20.771 13.0767 20.4939 13.2917 20.0874C13.3105 20.0518 13.3259 19.978 13.471 19.978H14.8237C16.056 19.978 17.705 19.3656 18.5631 16.4484C18.6546 16.1375 18.7288 15.8277 18.7892 15.5291C18.7975 15.488 18.8027 15.4065 18.9309 15.4065H19.6274C20.1128 15.4065 21.246 14.9652 21.246 13.052V11.6982C21.2459 9.15519 20.1128 8.6076 19.6274 8.6076Z" fill="white" stroke="white" stroke-width="0.000542381"/>
</svg>
