<svg width="64" height="64" viewBox="0 0 64 64" fill="none" xmlns="http://www.w3.org/2000/svg">
<path fill-rule="evenodd" clip-rule="evenodd" d="M43.314 40.48C44.096 41.26 44.096 42.5401 43.314 43.3201C42.534 44.1001 41.266 44.1001 40.484 43.3201L32.012 34.8401L23.48 43.3799C22.692 44.1599 21.4161 44.1599 20.6281 43.3799C19.8421 42.5799 19.8421 41.3 20.6281 40.52L29.16 31.98L20.688 23.52C19.906 22.74 19.906 21.4599 20.688 20.6799C21.466 19.8999 22.734 19.8999 23.516 20.6799L31.988 29.1599L40.584 20.5601C41.372 19.7801 42.646 19.7801 43.434 20.5601C44.22 21.3601 44.22 22.6199 43.434 23.4199L34.84 32.02L43.314 40.48ZM32 0C14.326 0 0 14.32 0 32C0 49.68 14.326 64 32 64C49.674 64 64 49.68 64 32C64 14.32 49.674 0 32 0Z" fill="#FA3232"/>
</svg>
