<svg width="14" height="10" viewBox="0 0 14 10" fill="none" xmlns="http://www.w3.org/2000/svg">
<path fill-rule="evenodd" clip-rule="evenodd" d="M0.185632 0.931573C4.06785e-08 1.2967 0 1.77443 0 2.72989V6.82471C0 7.78017 4.06785e-08 8.2579 0.185632 8.62302C0.349354 8.94397 0.610475 9.20485 0.931573 9.36828C1.2967 9.5546 1.77443 9.5546 2.72989 9.5546H10.9195C11.875 9.5546 12.3527 9.5546 12.7179 9.36828C13.0387 9.20474 13.2996 8.94387 13.4631 8.62302C13.6494 8.2579 13.6494 7.78017 13.6494 6.82471V2.72989C13.6494 1.77443 13.6494 1.2967 13.4631 0.931573C13.2997 0.610475 13.0388 0.349354 12.7179 0.185632C12.3527 -1.22035e-07 11.875 0 10.9195 0H2.72989C1.77443 0 1.2967 -1.22035e-07 0.931573 0.185632C0.610371 0.349238 0.349238 0.610371 0.185632 0.931573ZM1.8065 1.36494H11.8429C11.9162 1.36485 11.9875 1.38835 12.0464 1.43196C12.1053 1.47556 12.1486 1.53697 12.1699 1.60708C12.1911 1.67719 12.1893 1.75229 12.1646 1.82127C12.1399 1.89025 12.0936 1.94944 12.0327 1.99009L7.20417 5.21954C7.09187 5.29466 6.95981 5.33475 6.82471 5.33475C6.68961 5.33475 6.55755 5.29466 6.44526 5.21954L1.61677 1.99009C1.55581 1.94944 1.50955 1.89025 1.48484 1.82127C1.46013 1.75229 1.45828 1.67719 1.47955 1.60708C1.50083 1.53697 1.54411 1.47556 1.603 1.43196C1.66188 1.38835 1.73323 1.36485 1.8065 1.36494Z" fill="#005E66"/>
</svg>
