<svg width="15" height="14" viewBox="0 0 15 14" fill="none" xmlns="http://www.w3.org/2000/svg">
<path d="M9.88924 0C10.9816 0 11.8671 0.850095 11.8671 1.89873C11.8671 2.24828 11.5719 2.53165 11.2078 2.53165C10.8437 2.53165 10.5485 2.24828 10.5485 1.89873C10.5485 1.54919 10.2534 1.26582 9.88924 1.26582H1.97785C1.61374 1.26582 1.31857 1.54919 1.31857 1.89873V12.0253C1.31857 12.3749 1.61374 12.6582 1.97785 12.6582H9.88924C10.2534 12.6582 10.5485 12.3749 10.5485 12.0253V11.3924C10.5485 11.0428 10.8437 10.7595 11.2078 10.7595C11.5719 10.7595 11.8671 11.0428 11.8671 11.3924V12.0253C11.8671 13.074 10.9816 13.9241 9.88924 13.9241H1.97785C0.885516 13.9241 0 13.074 0 12.0253V1.89873C0 0.850095 0.885516 0 1.97785 0H9.88924Z" fill="#005E66"/>
<path fill-rule="evenodd" clip-rule="evenodd" d="M13.0532 4.55659C12.8555 4.36682 12.535 4.36682 12.3373 4.55659L7.1971 9.49129C7.09992 9.58452 7.03551 9.70464 7.01296 9.83477L6.90451 10.4593L7.55509 10.3552C7.69064 10.3336 7.81577 10.2717 7.91288 10.1785L13.0532 5.2438C13.2509 5.05402 13.2509 4.74635 13.0532 4.55659ZM11.405 3.66152C12.1176 2.97742 13.273 2.97741 13.9856 3.66151C14.6982 4.34562 14.6982 5.45476 13.9856 6.13888L8.8453 11.0736C8.55377 11.3534 8.17851 11.5388 7.77186 11.6038L7.12128 11.7079C6.22888 11.8507 5.45514 11.108 5.60388 10.2512L5.71231 9.62667C5.78009 9.23629 5.97321 8.87604 6.26467 8.59616L11.405 3.66152Z" fill="#005E66"/>
<path d="M2.63721 3.79697C2.63721 3.44743 2.93238 3.16406 3.29649 3.16406H8.57075C8.93487 3.16406 9.23003 3.44743 9.23003 3.79697C9.23003 4.14652 8.93487 4.42989 8.57075 4.42989H3.29649C2.93238 4.42989 2.63721 4.14652 2.63721 3.79697Z" fill="#005E66"/>
<path d="M2.63721 6.32822C2.63721 5.97867 2.93238 5.69531 3.29649 5.69531H5.93362C6.29774 5.69531 6.5929 5.97867 6.5929 6.32822C6.5929 6.67778 6.29774 6.96114 5.93362 6.96114H3.29649C2.93238 6.96114 2.63721 6.67778 2.63721 6.32822Z" fill="#005E66"/>
<path d="M2.63721 8.86143C2.63721 8.51187 2.93238 8.22852 3.29649 8.22852H3.95577C4.31988 8.22852 4.61505 8.51187 4.61505 8.86143C4.61505 9.21098 4.31988 9.49434 3.95577 9.49434H3.29649C2.93238 9.49434 2.63721 9.21098 2.63721 8.86143Z" fill="#005E66"/>
</svg>
