<svg width="15" height="15" viewBox="0 0 15 15" fill="none" xmlns="http://www.w3.org/2000/svg">
<path fill-rule="evenodd" clip-rule="evenodd" d="M2.5 0.625C2.15483 0.625 1.875 0.904825 1.875 1.25V13.75C1.875 14.0952 2.15483 14.375 2.5 14.375C2.84518 14.375 3.125 14.0952 3.125 13.75V8.49894C3.41626 8.35394 3.87671 8.15181 4.37032 8.02844C5.25569 7.80713 5.96624 7.88881 6.355 8.47188C7.08063 9.56025 8.46637 9.65613 9.53288 9.54988C10.6583 9.43775 11.7717 9.06919 12.3346 8.861C12.8292 8.67813 13.125 8.2085 13.125 7.713V3.57711C13.125 2.60748 12.0986 2.0414 11.2806 2.41238C10.6172 2.71324 9.73587 3.04922 8.93944 3.16019C8.10619 3.27629 7.62225 3.11919 7.395 2.7784C6.57506 1.54852 5.17224 1.40291 4.16684 1.48669C3.78088 1.51886 3.42224 1.58635 3.125 1.65781V1.25C3.125 0.904825 2.84518 0.625 2.5 0.625ZM3.125 2.95067V7.12794C3.40052 7.01544 3.7226 6.90188 4.06717 6.81575C5.05679 6.56838 6.53375 6.48669 7.395 7.77844C7.69412 8.22713 8.38344 8.40819 9.40894 8.30606C10.3599 8.21131 11.3389 7.89506 11.875 7.69825V3.57711C11.875 3.54871 11.8176 3.54139 11.7969 3.55079C11.0984 3.86753 10.0872 4.26233 9.11194 4.39823C8.1735 4.52899 7.0065 4.44906 6.355 3.4718C5.92493 2.82678 5.14025 2.65991 4.27065 2.73238C3.82753 2.76931 3.41517 2.86641 3.125 2.95067Z" fill="#FF0000"/>
</svg>
