<svg width="98" height="120" viewBox="0 0 98 120" fill="none" xmlns="http://www.w3.org/2000/svg">
<path d="M64.2774 2.62615C66.3242 5.5297 68.3788 12.5485 68.3969 16.8258C68.4056 19.4586 67.6836 24.0354 67.1696 24.5701C66.8372 24.9238 66.2607 24.3555 66.5544 23.9793C66.842 23.7037 66.9957 22.1797 66.8063 21.8358C66.7432 21.7212 66.9573 21.6631 67.2569 21.6807C67.7256 21.7182 67.7236 21.587 67.2942 20.5836C66.9929 19.9406 66.9339 19.5943 67.1438 19.7679C67.6653 20.2523 68.0886 17.7659 67.7062 16.3214C67.5741 15.6985 67.5825 15.235 67.7679 15.3165C67.9452 15.3672 67.8456 14.8672 67.5362 14.1935C67.2023 13.4276 67.0764 12.7042 67.2234 12.269C67.3541 11.7724 67.2545 11.2724 66.8126 10.4699C66.4583 9.87429 65.9781 8.55521 65.7402 7.53272C65.4391 6.3956 65.089 5.56824 64.7793 5.38872C64.1905 5.02139 63.9666 4.42332 64.4679 4.58381C64.6452 4.63454 64.7656 4.47014 64.6924 4.19355C64.6191 3.91695 64.4561 3.79645 64.3277 3.93012C64.2073 4.09452 64.0668 3.935 64.0241 3.65011C63.9531 3.01056 63.2156 2.45298 62.8751 2.77593C62.7772 2.90129 62.8566 3.0774 63.1032 3.14228C63.3885 3.2296 63.3904 3.36083 63.056 3.58328C62.7909 3.81987 62.6524 3.79158 62.7483 3.53498C62.8137 3.28668 62.6975 3.21936 62.4773 3.3779C62.2571 3.53645 62.1612 3.79305 62.2405 3.96915C62.3118 4.11452 62.224 4.40186 61.9732 4.5687C61.753 4.72724 61.6226 4.72968 61.6655 4.5204C61.7084 4.31112 61.6453 4.19648 61.4924 4.23795C61.0032 4.37064 60.9255 4.81993 61.3289 5.1058C61.6467 5.31605 61.5407 5.41068 60.8966 5.45362C60.2219 5.50485 60.1159 5.59948 60.3807 5.85705C60.6455 6.11462 60.6006 6.19268 60.1624 6.14682C59.6937 6.10926 59.6182 6.19561 59.83 6.5005C60.0174 6.71319 59.9989 7.01467 59.848 7.18736C59.6746 7.39908 59.6196 7.31517 59.7074 7.02784C59.7952 6.74051 59.7097 6.6649 59.4589 6.83174C59.2387 6.99028 59.1509 7.27761 59.2608 7.44543C59.3484 7.65227 59.281 7.76935 59.065 7.69617C58.8877 7.64544 58.4616 7.89277 58.1598 8.23815C57.8661 8.61427 57.7396 8.87915 57.8925 8.83769C58.0453 8.79622 57.9718 9.01379 57.723 9.31186C57.3539 9.77432 57.3864 9.89726 57.796 10.0826C58.1668 10.2456 58.5237 9.98408 59.2395 9.09818C59.7515 8.4323 60.0738 7.91667 59.9209 7.95813C59.768 7.9996 60.1229 7.60689 60.7061 7.08638C61.3729 6.51025 61.5076 6.27609 61.0509 6.53172C60.4107 6.8371 60.3801 6.84539 60.788 6.40537C61.0368 6.1073 61.3569 5.95461 61.4649 5.9912C61.5811 6.05852 62.0826 5.72484 62.5741 5.22921C63.3001 4.50527 63.4754 4.42478 63.4508 4.82675C63.4322 5.12822 63.536 5.39653 63.7133 5.44726C63.8906 5.498 64.025 5.75801 63.9678 6.03705C63.9411 6.30779 64.0898 6.49805 64.3038 6.43999C64.4873 6.39023 64.5078 6.21998 64.3754 6.09119C64.2348 5.93167 64.2634 5.79216 64.4163 5.75069C64.8138 5.64288 64.9827 6.15705 64.6727 6.4717C64.5524 6.6361 64.8613 8.29812 65.3657 10.2036C65.9088 12.1315 66.2645 13.8467 66.2216 14.0559C66.1481 14.2735 66.3639 14.8409 66.6713 15.3833C67.0643 16.0014 67.1558 16.4707 66.9987 16.7439C66.8416 17.0171 66.7948 16.9639 66.8276 16.5926C66.8685 16.2521 66.726 15.9614 66.5487 15.9107C66.3714 15.8599 66.2735 15.9853 66.3305 16.2004C66.6683 17.2288 66.6223 19.2835 66.2371 19.1903C66.0292 19.1479 65.9681 19.1645 66.1311 19.285C66.2859 19.3747 66.2795 19.9694 66.0896 20.6138C65.8997 21.2582 65.8545 21.8305 66.0012 21.8895C66.1255 21.9875 66.0888 22.0963 65.8747 22.1544C65.6607 22.2124 65.6015 22.3602 65.7645 22.4807C65.8969 22.6095 65.8335 22.989 65.6621 23.332C65.452 23.6525 65.2968 24.0569 65.2988 24.1881C65.3008 24.3194 65.2029 24.4447 65.103 24.4389C64.9726 24.4413 64.9622 24.7735 65.0761 25.2038C65.2307 25.7877 65.3468 25.855 65.6099 25.4872C65.8057 25.2365 65.8997 24.8486 65.8509 24.6642C65.7939 24.4491 65.8941 23.9608 66.0798 23.5481C66.3614 22.8788 66.392 22.8705 66.2346 23.6379C66.1059 24.2657 66.2097 24.534 66.5744 24.7974C67.102 25.1813 66.851 25.8423 65.1191 28.5849C64.1521 30.1318 63.7341 30.4099 63.3411 29.7918C63.1761 29.5401 63.2516 29.4538 63.5369 29.5411C63.8915 29.6425 63.9364 29.5645 63.6777 29.2064C63.4109 28.8176 63.4477 28.7088 63.8166 28.7405C64.0937 28.7971 64.3527 28.661 64.3956 28.4517C64.4772 28.2649 64.6831 28.1761 64.891 28.2186C65.1457 28.3142 65.1519 28.2137 64.9726 28.0317C64.7628 27.8581 64.4326 27.8488 64.2124 28.0073C63.9922 28.1659 63.8842 28.1293 63.9352 27.9508C64.0741 27.4849 63.8906 27.5346 63.134 28.2669C62.7629 28.5981 62.5772 29.0108 62.6872 29.1786C62.8359 29.3689 62.6053 29.8596 62.1974 30.2996C61.8201 30.7314 61.5059 31.2777 61.5323 31.5012C61.5564 32.0875 62.113 31.8378 62.2785 31.1012C62.3887 30.7748 62.5091 30.6104 62.5579 30.7948C62.5986 30.9485 62.7352 30.8455 62.823 30.5582C62.9475 30.1621 63.0923 30.0899 63.402 30.2694C63.8665 30.5387 62.2532 32.4915 58.0216 36.9331C56.2229 38.8045 56.1207 39.1616 55.8349 43.653C55.6209 47.3014 55.3186 48.6352 55.1362 46.7083C54.976 45.2365 54.4236 45.2545 54.5308 46.7736C54.5631 47.3907 54.4506 48.08 54.2629 48.3615C53.9468 48.7766 53.8306 48.7093 53.4662 47.9517C53.2056 47.4624 52.9327 47.1741 52.8042 47.3078C52.6757 47.4415 52.5231 46.9888 52.4521 46.3492C52.3284 45.2628 52.2734 45.1789 51.943 45.6638C51.537 46.2351 51.6425 47.1288 52.1152 47.4288C52.2701 47.5185 52.5714 48.1615 52.8196 48.8518C53.9917 52.289 54.6162 54.5242 54.4022 54.5823C54.3104 54.6072 54.3306 54.9311 54.4283 55.2999C54.5646 55.6911 54.6479 56.1297 54.605 56.3389C54.3946 57.1536 54.715 60.0972 54.9902 60.0225C55.1737 59.9728 55.0859 60.2601 54.8003 60.667C54.425 61.2299 54.4289 61.4924 54.7386 61.6719C55.7064 62.2329 54.7282 62.0041 53.5525 61.4007C52.872 61.0582 51.9978 60.6035 51.627 60.4406C51.248 60.2469 50.9975 59.9196 51.0323 59.6796C51.0976 59.4313 50.9997 59.5567 50.8059 59.9386C50.5242 60.6079 50.8213 61.4826 51.2331 61.305C51.7978 61.086 52.2136 61.1709 52.4885 61.5904C52.7859 61.9709 52.6941 61.9958 51.9748 61.6309L51.117 61.2377L51.8851 61.787C52.3191 62.0646 52.8204 62.2251 53.01 62.0748C53.2302 61.9163 53.3545 62.0143 53.3278 62.2851C53.2787 62.5949 53.5497 62.7519 54.1102 62.7646C54.5627 62.7407 54.9173 62.8422 54.8887 62.9817C54.8295 63.1295 54.9639 63.3895 55.135 63.5407C55.3998 63.7983 55.5446 63.7261 55.7752 63.2354C55.9527 62.7919 55.9589 62.6914 55.7244 62.9197C55.5735 63.0924 55.3819 63.1115 55.333 62.9271C55.2924 62.7734 55.3496 62.4944 55.5086 62.3524C55.7656 62.0851 55.6986 61.708 55.1697 59.7103C54.9908 59.0342 55.048 58.7552 55.2946 58.82C55.5799 58.9074 55.5535 58.6839 55.2522 58.041C54.9672 57.4595 54.9307 57.0741 55.1142 57.0243C55.2976 56.9746 55.2875 56.8126 55.1551 56.6838C55.0146 56.5243 55.0432 56.3848 55.2266 56.335C55.4407 56.277 55.4286 55.9838 55.1924 55.5867C54.9562 55.1896 54.9624 55.0891 55.2109 55.2852C55.5063 55.5345 56.0791 55.3462 58.0751 54.3437C59.4696 53.669 60.5644 52.9768 60.5238 52.8231C60.4831 52.6695 60.2303 52.7051 59.9571 52.911C58.803 53.751 57.8939 54.0305 57.3132 53.6939C56.6856 53.3042 56.4107 52.8846 56.9426 53.0368C57.1199 53.0876 57.2607 52.7529 57.261 52.2587C57.2307 51.7729 57.3942 50.905 57.6391 50.3445C57.9861 49.4269 58.0456 48.7849 57.887 47.9385C57.8769 47.7766 58.0604 47.7268 58.2764 47.8C58.523 47.8649 58.6147 47.84 58.4517 47.7195C58.2969 47.6297 58.2298 47.2527 58.3238 46.8648C58.4893 46.1282 57.9639 45.3813 57.7597 46.0955C57.6719 46.3829 57.5414 46.3853 57.3215 46.0497C57.126 45.8062 57.124 45.675 57.3319 45.7175C57.5397 45.7599 57.6458 45.6653 57.6051 45.5116C57.4424 44.8969 56.9041 45.3394 56.763 46.1682C56.6566 46.757 56.7624 47.1566 57.1759 47.6044C57.6688 48.2283 57.6688 48.2283 57.0943 47.7912C56.481 47.3317 56.4505 47.34 55.9629 48.0981C55.2877 49.1376 56.3149 45.4662 57.4048 42.8978C59.5395 37.839 65.4981 32.369 72.599 28.862C77.8487 26.2852 78.4642 26.3818 78.7538 29.8279C79.4364 37.4823 75.545 45.6857 69.1387 49.9596C67.687 50.9133 65.0509 52.2212 61.8624 53.5471C56.1257 55.8936 55.928 56.0131 55.8379 56.6633C55.7866 57.3361 56.6886 66.3145 57.2062 70.1269C57.4396 71.8753 58.3138 75.9203 59.168 79.1473C60.5329 84.1792 60.9907 85.5374 62.7008 89.0263C64.6817 93.1665 67.2819 97.6657 70.6747 102.806C72.9453 106.308 73.1142 106.822 72.1663 107.079C71.5853 107.237 71.2675 107.027 70.7014 106.126C70.2146 105.402 69.4609 104.783 68.658 104.473C66.7975 103.759 60.6969 100.769 57.4388 98.9848L54.7146 97.4838L53.636 98.2375C52.2006 99.2527 47.6059 100.466 44.8054 100.534C43.5396 100.581 40.7638 100.246 38.624 99.8386C35.2675 99.1679 34.2099 98.763 31.5081 97.2229C27.8772 95.1443 25.61 92.8935 23.6696 89.4011C21.9185 86.2527 22.1412 85.237 24.3644 86.0834C26.8729 87.0171 29.4203 87.479 34.1323 87.9469C36.953 88.203 39.8062 88.582 40.438 88.74C41.787 89.1318 41.8748 88.8444 40.6503 88.0566C39.9067 87.5995 39.8354 87.4541 40.0803 86.8936C40.3476 86.2941 40.3089 86.2716 39.9479 86.7648C39.5195 87.3751 38.8839 86.9546 35.1803 83.611C33.9275 82.4685 32.9209 81.8851 31.3559 81.4202C26.0208 79.8368 19.1709 75.5019 16.0749 71.7301C13.6287 68.8031 10.8079 61.3662 10.1708 56.2357C9.89697 53.8395 10.3475 53.6844 14.729 54.6371C20.8123 55.9518 25.1767 58.3255 28.6884 62.1823C31.9108 65.6892 33.0913 68.663 34.7538 77.1717L35.6908 81.8256L38.3188 84.0774C40.0994 85.6038 40.8489 86.4546 40.6918 86.7277C40.5348 87.0009 40.879 87.4346 41.7489 88.121C42.4558 88.6869 42.8368 89.0117 42.5352 88.863C42.1868 88.661 41.9422 88.7273 41.6179 89.1118C41.2549 89.4737 41.0103 89.5401 40.6313 89.3464C40.3378 89.2283 39.8323 89.2996 39.4592 89.4996C38.8354 89.8664 38.8354 89.8664 39.889 90.0089C40.5045 90.1055 41.0793 90.0484 41.2078 89.9147C41.3362 89.7811 41.4992 89.9015 41.5725 90.1781C41.6619 90.5162 41.8474 90.5977 42.1512 90.3835C42.3714 90.225 42.5018 90.2225 42.4589 90.4318C42.416 90.6411 42.5403 90.7391 42.7849 90.6728C43.0295 90.6064 43.5308 90.7669 43.9261 91.0221C44.3295 91.3079 44.8369 91.3679 45.0266 91.2177C45.2549 91.0899 45.3854 91.0874 45.3343 91.266C45.2241 91.5923 46.5403 92.3553 47.7182 92.5958C48.1421 92.7114 48.4681 92.9524 48.3946 93.17C48.3292 93.4183 48.368 93.4407 48.5495 93.2597C48.731 93.0787 48.892 93.068 48.9245 93.1909C48.9652 93.3446 49.5784 93.8041 50.2528 94.2471C50.9578 94.6817 51.571 95.1413 51.6036 95.2642C51.7419 95.7867 52.062 95.634 51.9542 95.1032C51.8953 94.7569 51.6998 94.5134 51.5163 94.5632C51.3328 94.6129 51.2473 94.5373 51.3065 94.3895C51.5085 94.0383 50.2839 93.2504 49.7336 93.3997C49.5195 93.4578 49.2648 93.3622 49.2241 93.2085C49.1447 93.0324 49.0104 92.7724 48.9391 92.627C48.8597 92.4509 48.7253 92.1909 48.6459 92.0148C48.6053 91.8611 48.4055 91.8494 48.224 92.0304C48.0425 92.2114 48.0038 92.1889 48.0692 91.9406C48.1345 91.6923 48.3996 91.4557 48.6137 91.3977C48.8889 91.323 48.9318 91.1138 48.72 90.8089C48.5082 90.504 48.5144 90.4035 48.7997 90.4908C49.2235 90.6064 49.2563 90.2352 48.9043 89.2766C48.7923 88.9776 48.8496 88.6985 49.033 88.6488C49.2165 88.599 49.3183 88.7361 49.253 88.9844C49.1876 89.2327 49.2263 89.2551 49.4078 89.0742C49.5587 88.9015 49.5385 88.5775 49.3654 88.2951C49.2005 88.0434 49.1904 87.8814 49.3534 88.0019C49.8098 88.2405 50.4048 84.9169 49.9402 84.6476C49.7079 84.513 49.4936 85.0652 49.3177 86.134C49.1705 87.0633 48.9253 88.118 48.7539 88.461C48.5601 88.8429 48.5598 89.3371 48.7635 89.6113C48.9365 89.8937 48.3884 89.68 47.5204 89.1249C46.63 88.6088 45.9761 87.9956 46.0272 87.817C46.0701 87.6078 46.007 87.4931 45.8541 87.5346C45.6706 87.5843 45.359 87.2736 45.1146 86.8458C44.9008 86.4097 44.3367 85.6404 43.8601 85.0779C43.3916 84.5462 42.6625 83.5251 42.2064 82.7924C41.7889 82.0822 41.3917 81.6958 41.3182 81.9134C41.2447 82.1309 41.1042 81.9714 40.9984 81.5719C40.8926 81.1724 40.3658 79.3059 39.8471 77.4702C38.6407 73.2847 38.3408 70.1709 38.763 66.0707C38.97 64.0052 38.9559 63.5808 38.5705 63.9818C38.4114 64.1238 38.3483 64.0091 38.3974 63.6994C38.4221 63.2974 38.5363 63.2335 38.7624 63.4686C39.1515 63.8242 39.3924 63.0013 39.3708 61.5578C39.3467 60.9714 39.5038 60.6982 39.8034 60.7158C40.0724 60.7417 40.3232 60.5748 40.3967 60.3572C40.4988 60.0002 42.0005 60.8446 42.155 61.4285C42.2182 61.5431 42.6928 61.9744 43.2286 62.389C43.9967 62.9383 44.2739 62.9949 44.4758 62.6437C44.7003 62.2534 44.6127 62.0466 44.0239 61.6792C43.6286 61.4241 43.4331 61.1807 43.586 61.1392C43.7389 61.0978 44.1179 61.2914 44.3908 61.5797C44.951 62.0866 45.0422 63.05 44.5224 63.191C44.3695 63.2325 44.3796 63.3944 44.5589 63.5764C44.7687 63.7501 44.9665 63.6305 45.1665 63.1481C45.4624 62.409 45.495 62.532 45.2821 64.2037C45.2493 64.575 45.3043 64.6589 45.5082 64.4389C45.7121 64.2189 45.8058 64.3252 45.7506 64.7355C45.6973 65.277 45.736 65.2994 46.1419 64.7282C46.5478 64.1569 46.5784 64.1486 46.4048 64.8545C46.2311 65.5604 46.7664 66.9634 47.1069 66.6404C47.1824 66.5541 47.3698 66.7668 47.4593 67.1048C47.6913 67.7337 48.4221 69.3801 48.5952 69.6625C48.6502 69.7464 48.7722 70.2074 48.8718 70.7074C48.9632 71.1767 49.1445 71.4899 49.2729 71.3563C49.4239 71.1836 49.5989 71.5972 49.7086 72.2592C50.2144 75.2842 50.2978 75.7228 50.1875 76.0492C50.1365 76.2277 50.2338 77.0907 50.4005 77.9678C50.5671 78.8449 50.6013 79.5932 50.4403 79.604C50.2793 79.6147 50.1365 79.8181 50.1099 80.0889C50.0913 80.3903 50.1994 80.4269 50.4339 80.1986C50.6378 79.9786 50.6173 80.1489 50.4092 80.6006C49.9399 81.5514 49.9949 81.6353 50.745 81.4977C51.0895 81.4372 51.3178 81.3094 51.2853 81.1865C50.9596 80.4513 51.0047 79.8791 51.3899 79.9723C51.6752 80.0596 51.6814 79.9591 51.4696 79.6542C51.2965 79.3717 51.2395 79.1566 51.3924 79.1151C51.5453 79.0737 51.6373 78.5546 51.6132 77.9683C51.6278 77.4043 51.5854 76.6253 51.5876 76.2623C51.5394 75.0896 49.5279 67.3673 49.3972 67.8639C49.3094 68.1512 49.1363 67.8688 48.9329 67.1004C48.7845 66.416 48.2613 65.3062 47.7521 64.6208C46.74 63.1495 43.556 60.1592 42.6145 59.8216C42.2824 59.6811 42.0175 59.4235 42.0462 59.284C42.1053 59.1362 41.5227 58.6684 40.7566 58.2503C39.9904 57.8323 39.5584 57.6859 39.7458 57.8986C40.0656 58.2401 40.0351 58.2484 39.5481 58.0181C39.0998 57.8103 38.9163 57.8601 38.7387 58.3035C38.5755 58.6772 38.5937 58.8699 38.879 58.9572C39.0563 59.0079 39.2824 59.2431 39.3007 59.4357C39.3739 59.7123 39.3127 59.7289 39.1091 59.4548C38.9991 59.287 38.7668 59.1523 38.6139 59.1938C38.247 59.2933 37.7665 62.0588 38.0414 62.4783C38.1901 62.6686 38.1716 62.9701 37.9982 63.1818C37.7943 63.4018 37.7169 63.3569 37.8271 63.0306C37.9373 62.7042 37.8599 62.6593 37.656 62.8793C37.4826 63.091 37.4641 63.3925 37.6209 63.6135C37.7777 63.8345 37.7654 64.0355 37.6125 64.0769C37.4596 64.1184 37.4554 64.3501 37.6122 64.5711C37.7996 64.7838 37.7648 65.0238 37.5508 65.0819C37.3673 65.1316 37.3387 65.2711 37.4793 65.4307C37.6117 65.5595 37.5912 65.7297 37.4383 65.7712C37.2549 65.8209 37.1833 66.1697 37.2891 66.5693C37.3949 66.9688 37.3864 67.4322 37.2824 67.6581C37.1396 67.8615 37.0782 68.3723 37.1309 68.8191C37.1836 69.266 37.1853 69.8914 37.1057 70.2094C37.0647 70.5499 37.1562 71.0192 37.3436 71.2319C37.5004 71.4529 37.5714 72.0924 37.5099 72.6032C37.4485 73.114 37.5173 74.1164 37.6514 74.8706C37.816 75.6165 37.9052 76.4487 37.8705 76.6887C37.8438 76.9595 37.9619 77.158 38.1454 77.1083C38.3288 77.0585 38.3777 77.2429 38.2918 77.6615C38.2203 78.0103 38.3036 78.4488 38.5135 78.6225C38.6927 78.8045 39.0142 79.7713 39.2053 80.7406C39.3983 81.8412 39.5896 82.3163 39.6998 81.99C39.8244 81.5938 39.91 81.6695 40.087 82.2144C40.565 83.8964 41.4773 85.3618 42.4614 85.9843C42.9341 86.2843 43.1234 86.6282 43.0438 86.9463C42.8457 87.56 41.5746 86.2248 39.8314 83.6013C38.8967 82.1749 38.4815 81.1016 37.6761 78.0591C36.1527 72.1807 36.1022 67.7805 37.5367 61.067C38.5258 56.3849 39.0824 56.1351 42.7761 58.8225C45.3208 60.6358 48.1867 63.9101 49.616 66.5858C51.259 69.6976 52.4096 75.2818 52.1061 78.5922C51.8907 81.1211 51.7681 81.6484 50.14 88.2497C49.6171 90.2362 49.2513 91.9494 49.292 92.1031C49.414 92.5641 61.6821 99.4151 65.4456 101.128C68.6529 102.597 70.7252 103.616 69.15 102.989C68.8179 102.849 68.3735 102.903 68.2226 103.076C68.0186 103.296 67.9718 103.243 68.0515 102.925C68.1393 102.638 68.0843 102.554 67.9334 102.726C67.8049 102.86 66.949 102.598 66.0443 102.152C65.1315 101.675 64.3367 101.396 64.2694 101.513C64.1939 101.6 64.7216 101.983 65.3716 102.334C66.0522 102.677 66.5616 102.868 66.5372 102.776C66.5128 102.683 66.8531 102.855 67.3257 103.155C67.7679 103.463 68.316 103.677 68.4995 103.627C68.7135 103.569 68.9601 103.634 69.0701 103.802C69.1719 103.939 69.5672 104.194 69.9299 104.326C70.3232 104.45 70.698 104.875 70.8262 105.236C70.997 105.881 71.0276 105.873 71.1176 105.223C71.2649 104.293 71.1836 103.986 70.8736 104.301C70.7451 104.434 70.409 104.031 70.0996 103.358C69.5988 102.209 69.1323 101.808 68.4596 101.991C67.7563 102.182 62.1527 92.403 59.9544 87.0701C58.0207 82.4889 56.3734 76.0184 55.4964 69.7342C55.1005 66.877 54.7942 64.3579 54.7984 64.1261C54.8413 63.9169 54.2138 63.5271 53.4496 63.2403C52.6549 62.9617 51.5403 62.3417 50.9271 61.8821C49.9797 61.1509 49.9003 60.9748 50.1452 60.4143C50.6962 59.2767 50.7209 58.8747 50.2316 59.0074C49.9564 59.082 49.8075 59.3859 49.897 59.724C50.4421 61.7831 48.2194 59.9484 45.7552 56.3346C40.6151 48.8021 39.7863 40.1002 43.4673 32.7116C44.1896 31.231 44.5526 30.869 45.0825 30.89C45.7123 30.9168 45.8854 31.1993 46.7542 33.8623C47.4704 36.0727 48.358 37.9401 50.437 41.4607C51.9418 44.0501 53.308 46.6112 53.4544 47.1644C53.6009 47.7176 53.8452 48.1454 54.0287 48.0956C54.1816 48.0542 54.2531 47.7054 54.1473 47.3058C54.0497 46.937 54.0999 44.6506 54.2867 42.2612C54.5989 37.9932 54.5806 37.8005 53.5477 33.4032C51.8945 26.539 51.6773 21.2617 52.8638 16.9542C53.6787 13.9662 56.3818 9.44504 59.543 5.78779C61.195 3.85744 62.8591 2.22029 63.1954 2.12906C63.5318 2.03784 63.9801 2.24565 64.2774 2.62615ZM61.2113 7.50933C58.7046 10.7914 57.4703 12.9379 56.5679 15.719C55.1 20.2017 55.0285 24.1409 56.3782 30.7251C56.8335 32.9403 57.2361 34.7087 57.2972 34.6921C57.5418 34.6257 62.1943 28.5547 63.1164 27.0858C64.4811 24.9369 65.4817 21.5363 65.7035 18.4127C65.8637 16.2941 65.7442 14.976 65.1118 12.2159C64.3636 8.89425 63.214 5.41799 62.8776 5.50922C62.7859 5.5341 62.0394 6.42829 61.2113 7.50933ZM56.8826 10.5939C57.286 10.8797 57.3104 10.9719 56.974 11.0632C56.6377 11.1544 56.6621 11.2466 57.0941 11.3929C57.5648 11.5617 57.573 11.5925 57.1429 11.5773C56.882 11.5822 56.611 11.4251 56.5622 11.2407C56.5216 11.0871 56.4034 10.8885 56.2954 10.8519C56.1874 10.8154 56.165 10.8544 56.2119 10.9076C56.2893 10.9524 56.1403 11.2564 55.9139 11.5154C55.5448 11.9778 55.5467 12.1091 56.0744 12.493C56.6489 12.9301 56.6489 12.9301 55.8991 12.5735C55.1187 12.2252 55.1187 12.2252 55.3201 12.8623C55.4646 13.2843 55.3543 13.6106 55.0037 13.7716C54.6754 13.8936 54.4247 14.0604 54.4103 14.1301C53.9408 15.5751 53.8732 16.1863 54.1214 16.8766C54.3046 17.321 54.2943 17.6532 54.1475 17.5942C53.9702 17.5435 53.8359 17.2835 53.8931 17.0044C53.9197 16.7337 53.7711 16.5434 53.5876 16.5932C53.4041 16.6429 53.2838 16.8073 53.3326 16.9917C53.4953 17.6064 53.4748 17.7767 53.2299 18.3372C52.8055 19.2099 52.4633 22.4979 52.7281 22.7554C52.8606 22.8842 53.1745 22.832 53.4252 22.6652C53.8351 22.3564 53.8738 22.3788 53.5902 22.9169C53.3882 23.2681 53.1374 23.435 52.9969 23.2755C52.8339 23.155 52.6973 23.2579 52.6788 23.5594C52.6521 23.8301 52.7478 24.0677 52.8864 24.096C53.0555 24.116 53.3366 24.435 53.5728 24.8321C53.8559 25.2824 53.8579 25.4136 53.6093 25.2175C53.0959 24.7638 52.8853 26.0727 53.1633 28.2372C53.4859 30.8178 55.4385 38.1937 55.8318 38.3176C56.0397 38.3601 56.1987 38.2181 56.2111 38.0171C56.2153 37.7854 56.3886 37.5737 56.5721 37.5239C56.7861 37.4659 57.4367 36.8283 58.0709 36.1292C58.8031 35.3048 58.9888 34.8921 58.6524 34.9833C58.3161 35.0745 58.1612 34.9848 58.2185 34.7057C58.2838 34.4574 58.2451 34.435 58.033 34.6243C57.8821 34.797 57.8392 35.0062 57.9329 35.1126C58.0266 35.2189 57.8184 35.6706 57.4411 36.1024L56.8088 36.9327L57.1884 36.138C57.419 35.6472 57.4375 35.3458 57.199 35.3116C56.7996 35.2882 56.5087 34.313 55.191 28.8401C54.6846 26.8034 54.4571 25.4487 54.6933 25.8458C55.0007 26.3883 55.0274 26.1175 54.8285 24.6233C54.6742 23.5452 54.6464 22.2022 54.769 21.6749C54.9202 21.008 54.8918 20.6534 54.6615 20.65C54.4618 20.6383 54.2357 20.4031 54.1706 20.1573C54.0648 19.7577 54.126 19.7411 54.6741 19.9548C55.045 20.1177 55.1754 20.1153 54.9962 19.9333C54.825 19.7821 54.7905 19.528 54.9415 19.3553C55.0924 19.1826 55.1047 18.9816 54.9723 18.8528C54.8786 18.7465 54.94 18.2357 55.1625 17.7142C55.3849 17.1927 55.422 16.5898 55.2651 16.3688C55.1083 16.1478 55.0881 15.8239 55.239 15.6512C55.4205 15.4702 55.4837 15.5848 55.4508 15.9561C55.4262 16.3581 55.4811 16.442 55.6851 16.2219C55.8666 16.041 55.9218 15.6307 55.8324 15.2926C55.751 14.9853 55.8694 14.6897 56.061 14.6707C56.2913 14.6741 56.4035 14.4789 56.2854 14.2804C56.206 14.1043 56.2571 13.9257 56.4181 13.915C56.5872 13.935 56.6851 13.8096 56.6445 13.656C56.6038 13.5023 56.7303 13.2374 56.9037 13.0257C57.1606 12.7584 57.0731 12.5515 56.468 12.1227L55.6693 11.5817L56.4579 11.9608C57.1303 12.2725 57.2832 12.231 57.4689 11.8183C57.6179 11.5144 57.5671 11.1988 57.4122 11.109C57.2492 10.9885 57.4021 10.9471 57.7323 10.9563C58.2398 11.0163 58.2541 10.9466 57.8406 10.4987C57.5676 10.2104 57.1275 10.0334 56.8523 10.108C56.4548 10.2158 56.4792 10.308 56.8826 10.5939ZM66.5299 9.52549C66.6867 9.74648 66.754 9.6294 66.6645 9.29133C66.6056 8.94497 66.465 8.78545 66.4059 8.93327C66.3385 9.05035 66.3812 9.33524 66.5299 9.52549ZM52.6552 25.5751C52.6959 25.7288 52.8325 25.6258 52.9203 25.3385C53.0081 25.0512 53.0634 24.6409 53.0227 24.4872C52.9739 24.3028 52.8454 24.4365 52.7576 24.7238C52.6698 25.0112 52.6064 25.3907 52.6552 25.5751ZM64.588 26.9502C64.9628 27.3756 64.9485 27.4454 64.5226 27.1985C64.2598 27.0722 63.8746 26.979 63.6912 27.0288C63.2712 27.1756 64.7302 27.7351 65.2195 27.6024C65.4335 27.5444 65.4764 27.3351 65.2646 27.0302C65.0691 26.7868 65.0896 26.6165 65.3056 26.6897C65.4829 26.7404 65.801 26.4565 65.9867 26.0438C66.4784 25.054 66.3359 24.7633 65.8035 25.5994C65.3384 26.3185 64.6985 26.1297 64.9008 25.2843C64.9743 25.0667 64.8152 25.2087 64.5683 25.638C64.2093 26.2624 64.2132 26.5248 64.588 26.9502ZM44.4477 32.5774C44.1419 32.6603 44.099 32.8696 44.3027 33.1438C44.5695 33.5326 44.547 33.5716 44.0987 33.3638C43.6892 33.1784 43.575 33.2423 43.5279 33.6833C43.4398 34.4648 43.5904 34.7863 43.9268 34.6951C44.0797 34.6536 44.0757 34.3911 43.9027 34.1087C43.644 33.7506 43.6664 33.7116 44.0006 33.9833C44.2878 34.2019 44.218 35.1761 43.7745 37.3386C43.0797 40.6563 43.1714 44.2218 43.9769 47.2644C45.246 52.0588 49.0767 57.7395 52.5423 60.0606L54.0928 61.0894L54.033 58.6352C53.9065 55.3096 52.8331 50.2645 51.7399 47.9917C51.2411 46.9741 49.8137 44.4296 48.539 42.3378C47.1462 40.0475 45.9287 37.6767 45.5258 36.4024C44.9947 34.7677 44.9684 34.5443 45.404 35.4473C45.7359 36.0819 45.9233 36.2946 45.8563 35.9175C45.7586 35.5487 45.8058 35.1077 45.9648 34.9658C46.0933 34.8321 46.1404 34.3911 46.0428 34.0223C45.8963 33.4691 45.8271 33.455 45.6801 33.8901C45.5923 34.1775 45.4719 34.3419 45.4312 34.1882C45.3987 34.0653 45.454 33.655 45.5866 33.2896C45.6887 32.9325 45.6197 32.4242 45.3774 32.1276C45.1187 31.7696 44.9801 31.7413 44.9535 32.012C44.9187 32.252 44.6923 32.511 44.4477 32.5774ZM61.0537 30.8075C59.6769 32.6632 59.4014 33.232 59.3378 34.1057C59.3108 34.8706 59.3639 34.8233 60.457 33.5057C61.4891 32.2046 61.9604 31.3851 61.1895 32.1871C60.9631 32.4461 60.955 32.4154 61.1244 31.9412C61.2734 31.6373 61.2919 31.3358 61.1676 31.2377C61.0515 31.1704 61.3064 30.7719 61.753 30.3543C62.2078 29.9674 62.5545 29.544 62.5382 29.4825C62.4406 29.1137 61.9634 29.5396 61.0537 30.8075ZM43.0432 36.6805C43.2143 36.8317 43.1082 36.9264 42.8005 36.8781C42.132 36.8288 41.3833 41.6764 41.9413 42.5462C42.1694 42.9125 42.1489 43.0828 41.9329 43.0096C41.401 42.8574 42.342 47.7737 43.2742 50.0572C43.6812 51.0997 44.0821 52.2427 44.1105 52.5974C44.2101 53.0974 44.2488 53.1198 44.3958 52.6847C44.4836 52.3973 44.4126 51.7578 44.1825 51.2602L43.8162 50.3714L44.3192 51.1573C44.6022 51.6076 44.8281 52.3369 44.8135 52.9008C44.8009 53.5959 45.0329 54.2247 45.5889 54.9633C46.4504 56.1131 47.4162 56.5429 47.1722 55.6209C46.8874 54.5452 46.2703 53.8233 45.8279 54.0091C45.5995 54.1369 45.2755 54.0272 45.1493 53.7979C44.9293 53.4623 44.9518 53.4232 45.294 53.7257C45.9154 54.216 45.806 53.0598 45.1299 51.9915C44.8693 51.5022 44.3177 50.0377 43.9598 48.6855C43.3353 46.4502 43.2885 46.3971 43.4711 47.8298L43.6638 49.4245L43.1695 47.681C42.8867 46.7366 42.7731 45.8122 42.9322 45.6702C43.0831 45.4975 43.0365 44.9502 42.8595 44.4053C42.6906 43.8911 42.5809 43.2291 42.6076 42.9584C42.8188 40.6612 42.8162 37.9279 42.5901 37.6928C42.4577 37.564 42.5332 37.4776 42.8022 37.5035C43.3015 37.5328 43.6488 36.121 43.3722 35.076C43.2095 34.4614 43.1565 34.5087 42.9705 35.4156C42.8479 35.9429 42.872 36.5293 43.0432 36.6805ZM46.7009 37.9942C46.9411 38.6538 47.2222 38.9728 47.4037 38.7918C47.5627 38.6499 47.6096 38.703 47.5442 38.9513C47.4115 39.3167 48.5539 41.2797 49.0184 41.549C49.1346 41.6163 49.3402 42.0217 49.4541 42.452C49.8325 43.634 51.6046 45.6238 51.7497 45.0575C51.8456 44.8009 51.7581 44.594 51.5583 44.5823C51.3586 44.5706 51.1692 44.2267 51.1633 43.833C51.1392 43.2466 51.1005 43.2242 50.9229 43.6676C50.7535 44.1418 50.6842 44.1277 50.5459 43.6052C50.0149 41.9705 49.571 41.0368 49.1595 40.7202C48.9191 40.5548 48.7053 40.1187 48.7463 39.7782C48.769 39.245 48.7303 39.2226 48.5609 39.6967C48.3527 40.1485 48.314 40.126 48.1737 39.4723C48.0904 39.0338 47.8707 38.204 47.655 37.6366L47.3091 36.5776L47.278 37.5742C47.2898 38.3616 47.2185 38.2162 46.9848 36.962C46.81 36.0541 46.5679 35.2634 46.4131 35.1736C46.026 34.9492 46.1982 36.7142 46.7009 37.9942ZM77.4137 27.9844C77.6398 28.2195 77.548 28.2444 77.1303 28.0283C76.6515 27.8287 76.5292 27.8619 76.6024 28.1385C76.6756 28.4151 76.5533 28.4483 76.2211 28.3078C75.7036 28.0858 72.6111 29.1552 72.7168 29.5547C72.7494 29.6776 72.4904 29.8137 72.1378 29.8435C71.7852 29.8732 71.5263 30.0093 71.5751 30.1937C71.6158 30.3474 71.2651 30.5084 70.7433 30.5182C70.0687 30.5694 69.9851 30.625 70.4252 30.8021C70.8654 30.9792 70.7818 31.0348 70.0398 31.2031C68.4559 31.5338 67.9911 31.7587 68.3415 32.0919C68.5595 32.2963 68.4759 32.3519 68.107 32.3202C67.8074 32.3026 67.4118 32.5417 67.2017 32.8622C67.0303 33.2051 66.8488 33.3861 66.8244 33.2939C66.8 33.2017 66.0089 33.6798 65.0445 34.3696C64.1106 35.0511 63.4152 35.7667 63.5252 35.9345C63.6677 36.2253 63.0744 36.5838 62.3386 36.6517C62.1776 36.6624 62.1958 36.8551 62.3913 37.0985C62.5563 37.3502 62.5582 37.4814 62.3504 37.439C61.6718 37.2278 58.4104 41.3734 58.3731 42.4705C58.3527 42.6407 58.2629 42.7968 58.163 42.791C58.0326 42.7934 57.8856 43.2286 57.8017 43.7783C57.726 44.3589 57.5016 44.7491 57.255 44.6842C57.0471 44.6418 57.1021 44.7257 57.3812 44.9135C57.8152 45.1911 57.9069 45.1662 58.0458 44.7003C58.1336 44.413 58.2702 44.3101 58.3109 44.4637C58.3597 44.6481 58.2882 44.9969 58.176 45.1921C57.9964 45.5043 58.1145 45.7028 58.5241 45.8882C59.0111 46.1184 59.0335 46.0794 58.7667 45.6906C58.5549 45.3857 58.5754 45.2155 58.8669 45.2023C59.1584 45.1891 59.2319 44.9716 59.0812 44.6501C58.9468 44.3901 59.0041 44.111 59.2181 44.053C59.4016 44.0032 59.4445 43.794 59.2958 43.6037C59.139 43.3827 59.2125 43.1651 59.4265 43.1071C59.8852 42.9827 61.3313 41.1411 61.2336 40.7723C61.2235 40.6104 61.0706 40.6518 60.9422 40.7855C60.7831 40.9275 60.6445 40.8992 60.5957 40.7148C60.5469 40.5304 60.759 40.3411 61.0504 40.3279C61.4031 40.2982 61.554 40.1255 61.4277 39.8962C61.3321 39.6586 61.3994 39.5415 61.6154 39.6147C62.0087 39.7386 62.8121 39.0596 62.7594 38.6127C62.7493 38.4508 62.9389 38.3005 63.1692 38.3039C63.4607 38.2908 63.4974 38.182 63.2795 37.9776C63.1002 37.7956 63.1064 37.6951 63.353 37.76C63.785 37.9063 64.6209 37.3502 64.5233 36.9814C64.4826 36.8277 64.2055 36.7712 63.8997 36.8541C63.4716 36.9702 63.4248 36.917 63.7572 36.5633C64.263 35.998 64.6605 35.8901 64.5216 36.356C64.346 36.9307 64.8333 36.6668 65.7775 35.6531C66.269 35.1574 66.9134 34.6203 67.2334 34.4676C68.6198 33.7622 68.9298 33.4476 68.4203 33.2563C68.0189 33.1017 68.0495 33.0934 68.5101 33.1002C68.8709 33.1012 69.2684 32.9934 69.4193 32.8207C69.6008 32.6397 70.1717 32.3202 70.7445 32.1319C71.3173 31.9436 71.8189 31.6099 71.8924 31.3923C72.068 30.8177 75.6149 29.8557 76.3261 30.1898C76.9598 30.4791 77.253 31.0913 76.6131 30.9025C76.3278 30.8152 76.3379 30.9772 76.5435 31.3826C76.7797 31.7797 76.7674 31.9806 76.5514 31.9075C76.2967 31.8119 76.2924 32.0436 76.5225 32.5412C76.7444 33.008 76.7483 33.2705 76.5323 33.1973C76.3163 33.1241 76.304 33.3251 76.5015 33.6997C76.7214 34.0354 76.7722 34.351 76.6499 34.3842C76.5276 34.4173 76.2541 35.1174 76.0437 35.932C75.8414 36.7775 75.525 37.6868 75.3679 37.9599C75.2108 38.2331 75.1331 38.6824 75.1982 38.9283C75.2633 39.1742 75.1429 39.3386 74.9656 39.2878C74.4643 39.1273 74.6638 39.6332 75.2302 40.0396C75.6642 40.3171 75.6336 40.3254 75.1547 40.1259C74.6759 39.9264 74.5005 40.0069 74.2781 40.5284C74.1454 40.8937 74.1249 41.064 74.2147 40.9079C74.4778 40.5401 75.3968 40.9167 75.527 41.4084C75.5758 41.5928 75.3985 41.5421 75.1337 41.2845C74.6896 40.845 74.6203 40.8308 74.2083 41.5026C73.9757 41.8621 73.8899 42.2806 74.0141 42.3787C74.1466 42.5075 74.0405 42.6021 73.8021 42.568C73.5718 42.5646 72.9885 43.0851 72.5377 43.7344C71.9972 44.5398 71.9094 44.8271 72.2743 44.5964C72.5863 44.4129 72.7473 44.4022 72.6045 44.6056C72.2211 45.1379 72.3675 45.6911 72.9361 45.7345C73.2051 45.7603 73.3499 45.6881 73.2175 45.5593C73.0851 45.4306 73.2503 45.1881 73.5622 45.0047C73.9272 44.7739 74.0313 44.5481 73.8133 44.3437C73.6259 44.131 73.6402 44.0612 73.8949 44.1568C74.1109 44.23 74.4902 43.9295 74.7371 43.5002C74.9839 43.0709 75.3102 42.8177 75.4569 42.8768C75.5812 42.9748 75.4549 42.7455 75.1351 42.4041C74.7216 41.9562 74.6891 41.8333 75.005 41.9123C75.4675 42.0504 76.5792 40.4313 76.4165 39.8166C76.3514 39.5708 76.4494 39.4454 76.6572 39.4878C76.8651 39.5303 76.8631 39.399 76.7063 39.1781C76.5414 38.9263 76.2704 38.7693 76.1175 38.8107C75.9646 38.8522 75.8016 38.7317 75.7447 38.5166C75.6958 38.3322 75.9567 38.3273 76.3744 38.5434C77.0937 38.9083 77.1162 38.8693 77.4472 37.396C77.6575 36.5813 77.7824 35.6911 77.7479 35.4369C77.7439 35.1744 77.8542 34.8481 78.0357 34.6671C78.1866 34.4944 78.2174 33.9919 78.0954 33.531C77.9734 33.07 78.0612 32.7826 78.2772 32.8558C78.4545 32.9065 78.4912 32.7977 78.365 32.5685C78.2082 32.3475 78.133 31.9397 78.1902 31.6606C78.411 30.5137 78.2466 29.2737 77.9447 29.6191C77.7408 29.8391 77.6939 29.7859 77.796 29.4288C78.0513 28.5361 77.7441 27.4995 77.2549 27.6321C77.1631 27.657 77.2425 27.8331 77.4137 27.9844ZM58.6833 34.4808C58.7994 34.5482 58.9422 34.3447 58.9526 34.0125C59.0222 33.5325 58.9834 33.5101 58.7509 33.8696C58.5938 34.1428 58.5672 34.4135 58.6833 34.4808ZM71.3802 32.5524C70.0855 33.2329 67.7855 34.9437 66.1338 36.3799C62.3389 39.7479 60.2684 42.9446 59.1797 47.1268C58.7508 48.7254 58.183 50.7899 57.9053 51.7216C57.6663 52.6758 57.562 53.3959 57.7149 53.3544C58.2347 53.2134 65.56 49.3161 67.0504 48.3849C70.2515 46.3638 73.3355 42.1675 74.7524 37.8634C75.4344 35.735 76.1684 31.4513 75.9569 30.6523C75.8593 30.2835 74.5016 30.8494 71.3802 32.5524ZM55.3849 39.2294C55.4621 39.7684 55.5395 39.8133 55.6641 39.4172C55.7519 39.1298 55.7011 38.8142 55.6074 38.7079C55.2651 38.4054 55.2203 38.4835 55.3849 39.2294ZM54.7989 41.1012C54.8233 41.1934 54.9863 41.3139 55.1942 41.3563C55.3715 41.407 55.5081 41.3041 55.4674 41.1504C55.4186 40.966 55.225 40.8538 55.0722 40.8953C54.8887 40.9451 54.7827 41.0397 54.7989 41.1012ZM55.0469 42.2856C55.3179 42.4427 55.4789 42.432 55.4301 42.2476C55.3813 42.0632 55.2245 41.8422 55.0778 41.7831C54.9535 41.6851 54.7619 41.7041 54.6946 41.8212C54.6578 41.93 54.8147 42.151 55.0469 42.2856ZM54.8671 43.092C55.0545 43.3047 55.0197 43.5447 54.8363 43.5944C54.6528 43.6442 54.6486 43.8759 54.8054 44.0969C54.9928 44.3096 54.958 44.5496 54.7746 44.5994C54.5911 44.6491 54.4708 44.8135 54.5196 44.9979C54.5603 45.1516 54.7232 45.2721 54.8761 45.2306C55.2125 45.1394 55.4052 43.1437 55.0629 42.8412C54.6738 42.4856 54.5535 42.65 54.8671 43.092ZM10.6443 55.0532C10.6606 55.1147 10.6583 55.4776 10.648 55.8098C10.6171 56.3123 10.6477 56.304 10.8253 55.8606C10.9661 55.5259 11.0803 55.462 11.1372 55.6772C11.186 55.8616 11.1288 56.1406 11.0003 56.2743C10.6454 56.667 13.5179 66.5274 14.5216 68.4621C15.2322 69.7846 15.5052 70.0729 15.8314 69.8197C16.1882 69.5583 16.227 69.5807 15.972 69.9793C15.6435 70.5954 15.7512 71.1261 16.1366 70.7252C16.2876 70.5525 16.4343 70.6115 16.4607 70.8349C16.558 71.6979 17.3463 72.5711 17.7031 72.3096C17.8928 72.1594 18.1842 72.1462 18.3248 72.3057C18.4877 72.4262 18.451 72.535 18.29 72.5457C18.0902 72.534 18.0229 72.6511 18.0717 72.8355C18.143 72.9809 18.3977 73.0765 18.6423 73.0101C18.8869 72.9438 19.1885 73.0926 19.3148 73.3218C19.5347 73.6575 19.5041 73.6658 19.17 73.394C18.9602 73.2204 18.7299 73.217 18.6788 73.3955C18.5318 73.8307 21.4656 75.9995 21.9935 75.8893C22.2076 75.8312 22.34 75.96 22.2746 76.2083C22.1787 76.4649 22.2867 76.5015 22.5905 76.2873C22.9249 76.0649 23.0023 76.1098 22.9776 76.5117C22.9224 76.922 22.9998 76.9669 23.2567 76.6995C23.4607 76.4795 23.5606 76.4854 23.4646 76.742C23.3911 76.9596 24.1368 77.5479 25.127 78.0698C26.9914 79.0465 27.8473 79.3084 27.2015 78.726C26.8899 78.4152 26.951 78.3986 27.4686 78.6206C27.8089 78.7918 28.2226 78.7455 28.3736 78.5728C28.5775 78.3528 28.6243 78.4059 28.5671 78.685C28.4712 78.9416 28.2204 79.1084 27.9514 79.0826C27.6823 79.0567 27.5152 79.1679 27.5477 79.2909C27.6697 79.7519 28.536 79.6816 28.8053 79.2133C29.0073 78.8621 29.0766 78.8762 29.0437 79.2474C29.0171 79.5182 29.1453 79.8787 29.3083 79.9992C29.8604 80.4753 32.4811 81.2139 33.386 81.1661C33.8772 81.1646 34.24 81.2968 34.1889 81.4753C34.146 81.6846 34.3822 82.0817 34.755 82.3759L35.4314 82.95L35.1057 82.2149C34.9 81.8095 34.652 80.625 34.5446 79.6001C34.3984 78.5528 34.1218 77.5078 33.9038 77.3034C33.7083 77.06 33.5661 76.2751 33.5992 75.4097C33.651 73.7486 33.2241 71.8881 32.0722 68.7747C31.368 66.8576 30.596 66.0458 31.0272 67.6747C31.1411 68.105 31.1083 68.4762 30.9248 68.526C30.619 68.6089 30.5868 67.9918 30.828 66.6747C30.9506 66.1473 30.8611 65.8093 30.5738 65.5907C30.1236 65.2517 29.195 63.7248 29.181 63.3004C29.1709 63.1384 29.0405 63.1408 28.8895 63.3135C28.7305 63.4555 28.765 63.7096 28.9055 63.8692C29.0848 64.0511 29.0318 64.0984 28.8158 64.0253C28.4999 63.9462 28.4348 63.7004 28.5574 63.173C28.7024 62.6067 28.6474 62.5228 28.3905 62.7901C28.1641 63.0491 28.0785 62.9735 28.1338 62.5633C28.1972 62.1837 28.1035 62.0774 27.8996 62.2974C27.7262 62.5091 27.6406 62.4335 27.651 62.1013C27.7186 61.49 25.4124 59.7109 25.0494 60.0729C24.929 60.2373 24.8659 60.1227 24.862 59.8602C24.9234 59.3495 22.4152 57.9216 22.1296 58.3284C22.0399 58.4846 21.9992 58.3309 22.0177 58.0294C22.0895 57.1864 20.8036 56.9094 20.2467 57.6533C19.8857 58.1465 19.847 58.1241 20.1225 57.5553C20.3592 56.964 20.2655 56.8577 19.5075 56.4703C19.0287 56.2708 18.1198 56.0562 17.5206 56.021C16.9132 55.9552 16.5037 55.7698 16.5466 55.5605C16.6201 55.343 16.5039 55.2757 16.2837 55.4342C16.086 55.5537 15.0323 55.4113 13.9685 55.1069C12.3342 54.6278 10.5223 54.5922 10.6443 55.0532ZM70.0638 46.6453C69.6927 46.9765 69.5948 47.1019 69.8762 46.9267C70.1881 46.7433 70.3267 46.7716 70.2919 47.0116C70.2103 47.1985 69.937 47.4043 69.6456 47.4175C69.3317 47.4697 68.6772 47.8448 68.1695 48.279C66.426 49.74 66.1365 49.8844 64.5484 50.4469C64.1591 50.5855 63.9551 50.8055 64.0876 50.9343C64.2505 51.0548 64.0528 51.1743 63.7226 51.165C62.7789 51.1904 60.9561 52.4753 61.4593 52.767C61.7303 52.9241 62.1584 52.808 62.8659 52.3856C63.398 52.0436 64.1381 51.7441 64.4988 51.745C64.829 51.7543 66.0481 51.1601 67.1655 50.4289C68.2909 49.7283 69.2716 49.1 69.3552 49.0444C69.606 48.8776 71.0925 47.6838 71.9938 46.8794L72.8421 46.1223L72.0311 45.7823C71.2589 45.4647 71.2426 45.4032 71.8418 45.4384C72.3717 45.4593 72.3941 45.4203 71.9621 45.274C71.5913 45.111 71.3242 45.2164 71.0835 45.5452C70.9264 45.8184 70.435 46.314 70.0638 46.6453ZM46.8678 56.8234C47.1164 57.0195 47.2569 57.179 47.1346 57.2122C47.0429 57.2371 47.5052 57.8693 48.1611 58.6137C49.3934 59.9265 49.4016 59.9572 49.6119 59.1425C49.7856 58.4366 49.7368 58.2522 49.266 58.0834C49.0032 57.9571 48.6834 57.6156 48.6102 57.339C48.5369 57.0624 48.3271 56.8888 48.1436 56.9385C47.9602 56.9883 47.956 57.22 48.1596 57.4942C48.4264 57.8829 48.3734 57.9303 48.0637 57.7507C47.7153 57.5488 47.6502 57.3029 47.7728 56.7756C47.9097 56.1785 47.8241 56.1029 47.1514 56.2853C46.5705 56.4429 46.5031 56.56 46.8678 56.8234ZM39.8244 63.1476C38.7944 68.1703 39.2574 74.995 40.9793 79.2713C41.8077 81.2865 43.6039 83.8627 46.7529 87.5873C48.1053 89.2298 48.2133 89.2664 48.3014 88.4849C48.3485 88.0439 48.6125 86.1935 48.8927 84.4047C49.668 79.2864 49.7816 76.6204 49.3367 74.073C48.5604 69.9025 45.844 65.336 42.3054 62.2442C41.2868 61.3675 40.4475 60.6729 40.4169 60.6812C40.3557 60.6977 40.0881 61.7915 39.8244 63.1476ZM55.6501 64.6198C55.8375 64.8325 56.0167 65.0145 56.0779 64.9979C56.139 64.9813 56.1432 64.7496 56.0781 64.5037C56.0131 64.2578 55.8338 64.0759 55.6503 64.1256C55.4974 64.1671 55.4932 64.3988 55.6501 64.6198ZM55.4618 65.8896C55.592 66.3814 55.7081 66.4487 55.8877 66.1365C56.0223 65.9023 56.0021 65.5784 55.8616 65.4189C55.3869 64.9876 55.2666 65.152 55.4618 65.8896ZM56.0002 69.0376C56.1259 70.2552 56.4126 71.4621 56.7363 72.066C57.2882 73.0363 57.28 73.0056 56.8895 71.5304C56.6617 70.6699 56.4036 69.3234 56.3063 68.4605C56.217 67.6282 56.0768 66.9746 55.985 66.9994C55.8933 67.0243 55.9071 67.9429 56.0002 69.0376ZM57.0099 74.9564C57.3008 75.9316 57.6672 76.8204 57.7833 76.8877C57.9076 76.9857 57.7735 76.2316 57.452 75.2647C56.7989 73.169 56.7358 73.0544 56.5829 73.0958C56.5218 73.1124 56.7414 73.9422 57.0099 74.9564ZM35.5924 82.9393C35.5739 83.2408 35.6289 83.3247 35.8185 83.1744C35.9694 83.0017 36.0856 83.0691 36.0814 83.3008C36.1442 83.9096 37.6293 85.1867 37.9087 84.8804C38.0372 84.7467 38.1839 84.8057 38.2409 85.0208C38.2978 85.236 38.414 85.3033 38.4813 85.1862C38.6751 84.8042 37.1838 83.6276 36.6946 83.7603C36.45 83.8267 36.2951 83.7369 36.3462 83.5583C36.4645 83.2627 35.9515 82.3149 35.7374 82.3729C35.6763 82.3895 35.6109 82.6378 35.5924 82.9393ZM23.2552 86.8454C22.978 86.7888 22.9963 86.9815 23.2793 87.4318C23.5074 87.7981 23.768 88.2874 23.8168 88.4718C23.9043 88.6786 24.0755 88.8299 24.2284 88.7884C24.3507 88.7552 24.4668 88.8225 24.4993 88.9455C24.6006 90.0709 25.1036 90.8568 25.5623 90.7324C25.8681 90.6495 25.9578 90.4933 25.7418 90.4202C25.5258 90.347 25.2346 89.866 25.0739 89.3826C24.8337 88.723 25.2534 89.0704 26.7444 90.7412C28.2986 92.5266 29.417 93.4091 32.0108 94.9126C37.129 97.9054 42.6153 98.822 48.1781 97.6755C52.8685 96.6999 52.8584 96.5379 48.2597 93.8983C43.6385 91.2977 41.242 90.663 33.318 89.9465C27.9843 89.4826 25.7283 89.0074 25.1642 88.2381C24.9687 87.9947 25.1908 87.9674 25.8776 88.2093C28.0763 88.9635 30.683 89.2777 31.1296 88.8601C31.4171 88.5845 31.6699 88.5488 31.8878 88.7532C32.0671 88.9352 32.0447 88.9742 31.7981 88.9093C31.5515 88.8445 31.4067 88.9167 31.4474 89.0703C31.5369 89.4084 33.4874 89.4723 35.4177 89.2123L36.8425 89.0235L35.8562 88.764C35.2937 88.6201 34.6721 88.624 34.4518 88.7825C34.2316 88.941 34.0706 88.9518 34.1298 88.804C34.1809 88.6254 33.3494 88.4557 32.3201 88.4054C30.3003 88.3274 24.4923 86.9381 23.9708 86.4537C23.7528 86.2493 23.6611 86.2741 23.6426 86.5756C23.6384 86.8073 23.4406 86.9269 23.2552 86.8454ZM57.8835 79.9898C57.9242 80.1435 58.026 80.2805 58.0872 80.2639C58.1789 80.2391 58.2911 80.0439 58.3422 79.8654C58.3851 79.6561 58.2914 79.5498 58.1385 79.5912C57.955 79.641 57.8347 79.8054 57.8835 79.9898ZM50.0717 82.6685C50.1368 82.9144 50.0389 83.0397 49.8311 82.9973C49.615 82.9241 49.6251 83.0861 49.8288 83.3602C50.0487 83.6959 50.0426 83.7963 49.7573 83.709C49.1561 83.5427 49.3718 84.11 49.975 84.4076C50.6006 84.6661 50.8637 84.2983 50.4482 83.7193C50.2527 83.4758 50.2813 83.3363 50.4973 83.4095C50.7133 83.4827 50.9254 83.2934 50.9439 82.9919C50.9849 82.6514 50.8993 82.5758 50.6566 82.7734C50.5057 82.9461 50.5343 82.8065 50.7444 82.486C51.2034 81.8675 50.9366 81.4787 50.3371 81.9377C50.1169 82.0963 50.0067 82.4226 50.0717 82.6685ZM39.129 85.8999C39.1941 86.1458 39.3734 86.3277 39.5568 86.278C39.7097 86.2365 39.7139 86.0048 39.5571 85.7838C39.3697 85.5711 39.1904 85.3892 39.1293 85.4057C39.0681 85.4223 39.0639 85.654 39.129 85.8999ZM59.227 83.0841C59.367 84.2319 59.4789 84.531 59.6035 84.1349C59.8035 83.6524 59.2873 80.9596 59.0934 81.3416C59.0486 81.4196 59.1215 82.1904 59.227 83.0841ZM25.9062 91.6602C26.0038 92.029 26.175 92.1803 26.3483 91.9685C26.5298 91.7876 26.646 91.8549 26.6193 92.1256C26.5517 92.7369 27.9002 94.1169 28.2795 93.8164C28.4467 93.7052 28.6952 93.9013 28.8153 94.2311C28.9842 94.7452 28.9393 94.8233 28.6276 94.5125C28.4097 94.3082 28.2405 94.2882 28.2893 94.4725C28.3381 94.6569 28.7191 94.9818 29.1368 95.1979C29.8948 95.5853 29.8866 95.5545 29.5671 94.7189C29.1213 93.654 27.7667 92.3744 27.4343 92.7281C27.3058 92.8617 27.1896 92.7944 27.1633 92.571C27.1411 92.1159 26.1635 90.8987 25.8883 90.9734C25.7965 90.9983 25.8086 91.2914 25.9062 91.6602ZM36.4977 89.5781C36.514 89.6396 36.7749 89.6347 37.0501 89.5601C37.3477 89.4464 37.9531 89.381 38.4137 89.3879C39.0659 89.3757 39.0191 89.3225 38.1957 89.1835C37.3031 89.0303 36.4082 89.2401 36.4977 89.5781ZM60.4989 86.5272C60.6207 87.4823 60.7164 87.7199 60.7941 87.2706C60.8841 86.6203 60.5469 84.6037 60.3755 84.9466C60.3306 85.0247 60.3873 85.734 60.4989 86.5272ZM30.1761 95.4101C30.6486 96.2043 32.5006 97.3819 33.0591 97.2634C33.212 97.2219 33.2751 97.3366 33.2241 97.5151C33.173 97.6937 33.5032 97.7029 33.9843 97.5395C34.6407 97.2956 34.8262 97.377 34.8402 97.8015C34.8357 98.5273 36.8348 99.2698 37.4954 98.7942C37.7992 98.58 37.9296 98.5776 37.8643 98.8259C37.7908 99.0435 37.9782 99.2561 38.2778 99.2737C38.5468 99.2996 38.661 99.2357 38.5204 99.0761C38.3799 98.9166 38.4941 98.8527 38.7631 98.8786C39.0627 98.8961 39.2686 98.8073 39.2198 98.6229C39.1791 98.4693 38.7777 98.3146 38.3252 98.3385C37.834 98.34 37.5324 98.1912 37.6059 97.9736C37.6631 97.6946 37.5021 97.7053 37.0841 97.9834C36.6662 98.2615 36.497 98.2415 36.5705 98.0239C36.7093 97.558 36.0613 97.3385 35.6678 97.7088C35.525 97.9122 35.6431 98.1107 36.0914 98.3185C36.7251 98.6078 36.7251 98.6078 36.0627 98.4581C35.6857 98.3956 35.2885 98.0093 35.1827 97.6097C35.0688 97.1795 34.8121 96.9526 34.5369 97.0273C34.2923 97.0936 33.4507 96.7619 32.6602 96.2516C31.8472 95.7804 31.0912 95.5243 30.9322 95.6663C30.7588 95.878 30.5795 95.696 30.4494 95.2043C30.3355 94.774 30.1155 94.4384 29.9627 94.4799C29.7792 94.5296 29.8768 94.8984 30.1761 95.4101ZM62.052 90.2893C62.5123 90.7903 62.6896 90.841 62.6307 90.4947C62.5575 90.2181 62.3151 89.9215 62.1072 89.879C61.8912 89.8058 61.7569 89.5458 61.7835 89.2751C61.8101 89.0043 61.6657 88.5824 61.462 88.3082C61.1646 87.9277 61.1198 88.0058 61.2376 88.6985C61.2985 89.1761 61.6853 89.8946 62.052 90.2893ZM62.9783 92.1791C63.6302 92.6611 64.3083 93.8607 63.8457 93.7226C63.591 93.627 63.593 93.7582 63.8048 94.0631C64.0634 94.4212 64.1327 94.4353 64.2491 94.0085C64.4003 93.3416 63.0605 91.0039 62.7687 91.5113C62.6341 91.7454 62.7297 91.983 62.9783 92.1791ZM52.3085 95.6988C52.3369 96.0535 52.4856 96.2437 52.5835 96.1184C52.7119 95.9847 52.8668 96.0745 52.9237 96.2896C52.9888 96.5355 52.8379 96.7082 52.5995 96.674C52.3997 96.6623 52.1408 96.7984 52.0673 97.016C52.0244 97.2253 51.0254 97.6609 49.8329 97.9843C48.4875 98.3492 47.7862 98.6712 47.9573 98.8224C48.1285 98.9736 47.8246 99.1878 47.205 99.3229C46.2489 99.5493 46.2184 99.5576 46.8871 99.1127C47.5029 98.7151 47.4947 98.6844 46.9587 98.7639C46.1698 98.879 46.1392 98.8873 45.4705 99.3322C45.0219 99.6186 44.9913 99.6269 45.285 99.2507C45.6093 98.8663 45.6012 98.8356 45.163 98.7898C41.046 98.5888 40.1023 98.6142 39.6313 98.9395C39.0686 99.2898 39.146 99.3347 40.2709 99.6225C40.9333 99.7723 41.9706 99.8532 42.5149 99.8044C43.0897 99.7474 43.7194 99.7742 43.9273 99.8166C44.1433 99.8898 44.5122 99.9215 44.7955 99.8776C45.0564 99.8727 46.1979 99.7278 47.3475 99.6137C48.7498 99.4639 50.0035 99.1239 51.1696 98.577C52.138 98.1497 53.1594 97.675 53.4265 97.5697C53.6935 97.4643 53.8139 97.2999 53.7202 97.1935C53.3311 96.8379 53.9527 96.834 55.2325 97.2116C55.9111 97.4228 57.2253 98.0545 58.1401 98.6629C59.0774 99.2321 59.7885 99.5663 59.7478 99.4126C59.6258 98.9516 58.9576 98.4082 58.66 98.5219C58.5152 98.5941 58.3604 98.5043 58.3115 98.3199C58.2709 98.1662 57.6515 97.8072 56.9566 97.5345C56.2617 97.2618 55.6505 96.9335 55.6179 96.8106C55.5854 96.6877 55.4774 96.6511 55.3326 96.7233C55.2266 96.8179 55.1023 96.7199 55.0535 96.5355C54.9396 96.1052 53.9412 95.5525 53.7535 95.834C53.6862 95.951 53.9123 96.1862 54.2832 96.3491C54.8476 96.6242 54.8476 96.6242 54.1241 96.4911C53.7084 96.4062 53.3905 96.1959 53.4416 96.0174C53.5437 95.6603 52.5293 94.552 52.3498 94.8642C52.2743 94.9505 52.2802 95.3442 52.3085 95.6988ZM65.5541 96.5861C65.7413 97.293 65.9449 97.5672 66.049 97.3413C66.2591 97.0208 65.6506 95.3412 65.3754 95.4158C65.3143 95.4324 65.3914 95.9715 65.5541 96.5861ZM66.3806 98.4701C66.405 98.5623 66.6129 98.6048 66.8575 98.5384C67.1021 98.4721 67.1288 98.2013 66.9394 97.8574C66.7032 97.4603 66.5952 97.4237 66.5012 97.8116C66.4053 98.0682 66.3562 98.3779 66.3806 98.4701ZM60.2267 99.6122C60.2918 99.858 60.4466 99.9478 60.5751 99.8141C60.673 99.6887 60.8279 99.7785 60.8848 99.9936C61.07 100.569 62.7369 101.171 62.8757 100.705C62.9492 100.488 62.8331 100.42 62.6272 100.509C62.4294 100.629 62.2053 100.525 62.1177 100.318C62.0689 100.134 61.8591 99.96 61.7062 100.001C61.5146 100.02 61.1356 99.8268 60.8402 99.5775C60.1639 99.0034 60.0721 99.0282 60.2267 99.6122ZM67.3703 99.9804C67.5454 100.394 67.8489 100.674 68.0018 100.633C68.1852 100.583 68.2952 100.751 68.2604 100.991C68.2338 101.261 68.4049 101.413 68.6495 101.346C69.1999 101.197 69.1023 100.828 68.3667 100.402C68.0265 100.231 67.7535 99.9424 67.7515 99.8112C67.7212 99.3253 67.5338 99.1126 67.2587 99.1872C67.1363 99.2204 67.1647 99.5751 67.3703 99.9804ZM63.1832 101.248C63.232 101.432 63.4031 101.583 63.5498 101.642C63.7271 101.693 63.8169 101.537 63.7518 101.291C63.6867 101.045 63.5075 100.863 63.3546 100.905C63.2323 100.938 63.1425 101.094 63.1832 101.248ZM71.4187 106.36C71.4593 106.513 71.7284 106.539 71.9954 106.434C72.3012 106.351 72.3685 106.234 72.1382 106.23C71.8998 106.196 71.7572 105.906 71.7758 105.604C71.776 105.11 71.7455 105.118 71.576 105.592C71.4576 105.888 71.3861 106.237 71.4187 106.36Z" fill="#51810A" fill-opacity="0.35"/>
<path d="M44.606 39.9517C44.6957 40.2903 44.6283 40.4076 44.4711 40.1862C44.3222 39.9957 44.2794 39.7103 44.3468 39.5931C44.4061 39.4451 44.547 39.6048 44.606 39.9517Z" fill="#51810A" fill-opacity="0.35"/>
<path d="M42.4441 40.3018C42.493 40.4864 42.4276 40.7349 42.2685 40.877C42.1093 41.0191 42.0462 40.9043 42.0728 40.6333C42.1404 40.0215 42.3301 39.8711 42.4441 40.3018Z" fill="#51810A" fill-opacity="0.35"/>
<path d="M69.2781 31.7354C69.327 31.92 69.2616 32.1685 69.1025 32.3106C68.9433 32.4527 68.8801 32.3379 68.9068 32.0669C68.9743 31.4551 69.1641 31.3047 69.2781 31.7354Z" fill="#51810A" fill-opacity="0.35"/>
<path d="M67.0549 33.9511C67.179 34.0489 67.0059 34.2601 66.6701 34.3511C65.9841 34.6028 65.8825 34.4661 66.4668 34.0777C66.6785 33.8889 66.9309 33.8534 67.0549 33.9511Z" fill="#51810A" fill-opacity="0.35"/>
<path d="M77.5064 32.0533C77.5961 32.3919 77.5287 32.5091 77.3715 32.2878C77.2225 32.0972 77.1798 31.8119 77.2472 31.6947C77.3065 31.5466 77.4473 31.7064 77.5064 32.0533Z" fill="#51810A" fill-opacity="0.35"/>
<path d="M61.9343 38.9285C62.0075 39.2051 61.8934 39.269 61.5226 39.106C61.2598 38.9796 61.0276 38.845 61.0114 38.7835C61.0032 38.7528 61.1785 38.6723 61.3924 38.6142C61.637 38.5479 61.8692 38.6826 61.9343 38.9285Z" fill="#51810A" fill-opacity="0.35"/>
<path d="M60.7785 39.5054C60.8436 39.7515 60.7538 39.9078 60.5764 39.857C60.3989 39.8062 60.3113 39.5991 60.3624 39.4204C60.5319 38.9457 60.64 38.9824 60.7785 39.5054Z" fill="#51810A" fill-opacity="0.35"/>
<path d="M60.0705 40.1581C60.103 40.2809 59.8807 40.8022 59.5585 41.3177C59.2363 41.8332 58.9652 42.1701 58.9327 42.0472C58.9083 41.9551 59.1306 41.4338 59.4447 40.8876C59.7587 40.3414 60.0299 40.0044 60.0705 40.1581Z" fill="#51810A" fill-opacity="0.35"/>
<path d="M69.9796 43.4826C70.1204 43.6424 70.1631 43.9276 70.0508 44.123C69.9385 44.3184 69.7834 44.2285 69.6856 43.8592C69.4982 43.1514 69.5512 43.104 69.9796 43.4826Z" fill="#51810A" fill-opacity="0.35"/>
<path d="M14.2341 55.7631C14.075 55.9051 13.9485 56.17 13.9892 56.3237C14.038 56.5082 14.3357 56.3945 14.6458 56.0798C14.9946 55.7875 15.1925 55.6679 15.0721 55.8324C14.8863 56.2452 16.4598 57.2352 16.9248 57.0102C17.092 56.899 17.1307 56.9214 17.0328 57.0468C16.9267 57.1415 17.6075 57.484 18.533 57.7602C19.8519 58.1603 20.3208 58.1978 20.6534 57.8441C21.0838 57.3649 21.4916 57.4191 21.6299 57.9417C21.6706 58.0954 21.4728 58.2149 21.1955 58.1583C20.3882 58.0807 20.7569 58.6067 22.0593 59.4396C22.9194 59.9641 23.1273 60.0066 22.7524 59.5811C22.4407 59.2703 22.084 59.0375 21.931 59.079C21.7475 59.1288 21.5845 59.0083 21.5275 58.7931C21.4787 58.6087 21.7397 58.6038 22.1575 58.8199C22.6141 59.0585 23.0443 59.0736 23.2483 58.8536C23.5053 58.5862 23.5135 58.6169 23.3358 59.0605C22.9868 59.847 23.115 60.2076 23.7837 60.2569C24.114 60.2661 24.4564 60.5686 24.5378 60.876C24.6191 61.1834 24.8678 61.3796 25.0432 61.2991C25.3552 61.1156 25.6833 61.4879 25.5118 61.8309C25.4894 61.8699 25.7461 62.0968 26.0641 62.3071C26.4901 62.554 26.6899 62.5657 26.8001 62.2393C26.9042 62.0134 26.9674 62.128 26.9508 62.5608C26.9567 62.9546 27.1156 63.3069 27.3316 63.3801C27.509 63.4308 27.6457 63.3278 27.5887 63.1127C27.5317 62.8975 27.6072 62.8111 27.7234 62.8785C27.8783 62.9682 27.8598 63.2698 27.7189 63.6045C27.5331 64.0173 27.5657 64.1402 27.8104 64.0739C28.0245 64.0158 28.1182 64.1222 28.0753 64.3315C28.0242 64.5101 28.0955 64.6555 28.2484 64.614C28.4014 64.5725 28.7294 64.9448 28.9901 65.4342C29.2203 65.9319 29.5239 66.212 29.6443 66.0475C29.7728 65.9138 30.0419 65.9397 30.2131 66.091C30.3924 66.273 30.3781 66.3427 30.1314 66.2778C29.738 66.1539 30.2976 68.1437 31.5478 71.1322C32.4559 73.324 33.5689 77.404 33.4564 78.0934C33.2928 78.9615 32.9094 78.9995 31.1626 78.2213C30.3207 77.8895 29.5563 77.6026 29.4645 77.6275C29.3728 77.6524 29.3178 77.5684 29.3158 77.4372C29.3444 77.2976 29.0916 77.3333 28.7714 77.486C28.4512 77.6387 28.1821 77.6129 28.1863 77.3811C28.1599 77.1576 27.9744 77.0761 27.7766 77.1957C27.54 77.2928 27.4239 77.2254 27.4749 77.0469C27.526 76.8683 27.0287 76.476 26.3948 76.1867C25.7222 75.8749 24.9883 75.5797 24.756 75.445C24.5012 75.3494 24.2483 75.385 24.1279 75.5494C24.0382 75.7056 24.0219 75.6441 24.0648 75.4348C24.1383 75.2172 23.5535 74.618 22.8014 74.1301C22.0494 73.6421 21.446 73.3445 21.4867 73.4982C21.5274 73.6519 21.297 73.6485 20.9954 73.4997C20.6937 73.3509 20.49 73.0766 20.541 72.8981C20.5921 72.7195 20.3334 72.3613 19.938 72.1062C19.5813 71.8734 19.3857 71.6299 19.508 71.5968C19.6304 71.5636 19.4735 71.3426 19.1474 71.1015C18.3566 70.5912 16.3314 68.1423 16.2236 67.6114C16.1972 67.3879 16.0811 67.3206 15.9831 67.446C15.7892 67.828 13.6331 62.2847 12.8193 59.2108C12.276 57.2825 12.1806 56.5506 12.4865 56.4677C12.7006 56.4096 13.2655 56.1905 13.7223 55.9349C14.2179 55.7016 14.4238 55.6128 14.2341 55.7631ZM14.0294 61.0571C16.0687 67.5216 19.5263 71.7895 25.1926 74.8654C27.2675 76.0159 33.0259 78.5726 33.077 78.394C33.2178 78.0593 30.0445 68.6736 29.3886 67.4347C26.8161 62.795 22.0961 59.3308 15.7563 57.4259C12.409 56.4228 12.4825 56.2052 14.0294 61.0571Z" fill="#51810A" fill-opacity="0.35"/>
<path d="M11.9419 57.3463C12.0316 57.6848 11.9642 57.8021 11.8071 57.5808C11.6581 57.3902 11.6153 57.1049 11.6828 56.9876C11.7421 56.8396 11.8829 56.9994 11.9419 57.3463Z" fill="#51810A" fill-opacity="0.35"/>
<path d="M18.1116 56.4403C18.2441 56.5692 18.2705 56.7929 18.1419 56.9267C18.0134 57.0605 17.8584 56.9706 17.7932 56.7245C17.6547 56.2014 17.7302 56.115 18.1116 56.4403Z" fill="#51810A" fill-opacity="0.35"/>
<path d="M13.0799 61.6268C13.2002 61.9569 13.4551 62.5471 13.6305 62.9611L14.0181 63.6801L13.4773 63.0025C13.1875 62.6525 12.9326 62.0623 12.8961 61.6766C12.8637 61.0591 12.8637 61.0591 13.0799 61.6268Z" fill="#51810A" fill-opacity="0.35"/>
<path d="M24.4536 59.3749C24.594 59.534 24.4799 59.5978 24.2113 59.5721C23.6048 59.5065 23.4563 59.3166 23.8839 59.2007C24.0671 59.151 24.3133 59.2157 24.4536 59.3749Z" fill="#51810A" fill-opacity="0.35"/>
<path d="M27.0758 61.3712C27.6358 61.8779 27.6215 61.9476 27.1347 61.7174C26.8333 61.5687 26.5032 61.5594 26.4135 61.7155C26.3237 61.8715 26.2912 61.7486 26.3321 61.4082C26.4059 60.6967 26.3447 60.7133 27.0758 61.3712Z" fill="#51810A" fill-opacity="0.35"/>
<path d="M14.5792 65.175C14.7361 65.3961 14.8643 65.7566 14.8295 65.9967C14.7947 66.2367 14.6704 66.1386 14.5646 65.7391C14.412 65.2863 14.2408 65.135 14.0368 65.3551C13.8553 65.5361 13.8166 65.5136 13.8819 65.2653C14.0576 64.6906 14.2186 64.6798 14.5792 65.175Z" fill="#51810A" fill-opacity="0.35"/>
<path d="M31.7568 70.3664C31.8689 70.6656 32.0402 70.8169 32.1688 70.6831C32.2893 70.5187 32.4157 70.748 32.391 71.1502L32.4171 71.8682L31.9461 71.2049C31.6872 70.8466 31.5038 70.402 31.5468 70.1926C31.5591 69.9915 31.6754 70.0589 31.7568 70.3664Z" fill="#51810A" fill-opacity="0.35"/>
<path d="M33.0955 73.9254C33.2011 74.8197 33.148 74.8671 32.8931 74.2769C32.7259 73.8937 32.6731 73.4465 32.7855 73.2513C32.9204 73.0169 33.0243 73.2854 33.0955 73.9254Z" fill="#51810A" fill-opacity="0.35"/>
<path d="M26.6677 76.8182C27.1954 77.2021 27.173 77.2411 26.578 76.9743C25.767 76.6343 25.8727 77.0338 26.7651 77.6812C27.3702 78.1099 27.3396 78.1182 26.5429 77.7085C25.8929 77.3577 25.6893 77.0836 25.8464 76.8104C26.0259 76.4982 26.2643 76.5323 26.6677 76.8182Z" fill="#51810A" fill-opacity="0.35"/>
<path d="M26.0966 77.9924L26.897 78.6645L25.9844 78.1875C25.52 77.9183 25.1473 77.6242 25.2146 77.5071C25.2594 77.4291 25.677 77.6452 26.0966 77.9924Z" fill="#51810A" fill-opacity="0.35"/>
<path d="M71.7897 46.2278C72.1519 46.3597 72.0765 46.4458 71.4883 46.5724C71.0527 46.6576 70.7455 46.6095 70.7965 46.4314C70.9066 46.1059 71.1814 46.0314 71.7897 46.2278Z" fill="#51810A" fill-opacity="0.35"/>
<path d="M66.2251 50.4022C66.3654 50.5614 66.2514 50.6252 65.9828 50.5994C65.3763 50.5338 65.2278 50.344 65.6553 50.228C65.8386 50.1783 66.0848 50.243 66.2251 50.4022Z" fill="#51810A" fill-opacity="0.35"/>
<path d="M65.3575 51.1971C65.1681 51.3471 64.8851 51.3909 64.7691 51.3237C64.6226 51.2648 64.7814 51.123 65.1255 51.0627C65.4615 50.9716 65.5775 51.0388 65.3575 51.1971Z" fill="#51810A" fill-opacity="0.35"/>
<path d="M27.5031 87.8389C29.5839 88.5251 29.9564 88.819 28.132 88.3594C27.2931 88.1591 26.4299 87.8667 26.1896 87.7015C25.6156 87.2648 25.7846 87.2847 27.5031 87.8389Z" fill="#51810A" fill-opacity="0.35"/>
<path d="M30.6138 88.7108C30.7541 88.87 30.6401 88.9338 30.3714 88.908C29.7649 88.8424 29.6165 88.6526 30.044 88.5366C30.2272 88.4869 30.4735 88.5516 30.6138 88.7108Z" fill="#51810A" fill-opacity="0.35"/>
<path d="M28.1832 93.2261C28.4808 93.607 28.4583 93.646 28.0791 93.4521C27.808 93.2949 27.6511 93.0737 27.7184 92.9565C27.7858 92.8393 28.01 92.9433 28.1832 93.2261Z" fill="#51810A" fill-opacity="0.35"/>
<path d="M31.8838 95.9507C32.0163 96.0796 31.9958 96.25 31.8429 96.2914C31.6594 96.3412 31.4658 96.2289 31.4251 96.0751C31.3762 95.8906 31.4048 95.751 31.466 95.7344C31.5578 95.7095 31.7432 95.791 31.8838 95.9507Z" fill="#51810A" fill-opacity="0.35"/>
<path d="M33.124 96.803C33.788 97.084 33.7961 97.1147 33.0343 96.959C32.6188 96.8741 32.2562 96.7419 32.24 96.6804C32.1749 96.4346 32.344 96.4546 33.124 96.803Z" fill="#51810A" fill-opacity="0.35"/>
<path d="M42.7162 99.2931C42.4678 99.5902 41.2368 99.7596 41.18 99.5452C41.1637 99.4839 41.5829 99.3375 42.1018 99.197C42.6288 99.087 42.8974 99.1128 42.7162 99.2931Z" fill="#51810A" fill-opacity="0.35"/>
<path d="M52.5299 97.6949C52.3954 97.9284 52.0453 98.089 51.7238 98.1104C51.2721 98.1343 51.3169 98.0565 51.9174 97.7296C52.473 97.4804 52.6643 97.4614 52.5299 97.6949Z" fill="#51810A" fill-opacity="0.35"/>
<path d="M58.9592 8.53632C58.8023 8.80945 58.5822 8.96795 58.4661 8.90062C58.35 8.8333 58.454 8.60748 58.7352 8.4324C59.1142 8.13199 59.1529 8.15443 58.9592 8.53632Z" fill="#51810A" fill-opacity="0.35"/>
<path d="M67.4556 17.6197C67.5453 17.9583 67.4779 18.0755 67.3207 17.8542C67.1718 17.6636 67.129 17.3783 67.1965 17.2611C67.2557 17.113 67.3966 17.2728 67.4556 17.6197Z" fill="#51810A" fill-opacity="0.35"/>
<path d="M61.0256 36.009C60.8687 36.2821 60.6486 36.4406 60.5325 36.3733C60.4164 36.306 60.5204 36.0801 60.8016 35.9051C61.1806 35.6046 61.2193 35.6271 61.0256 36.009Z" fill="#51810A" fill-opacity="0.35"/>
<path d="M76.5572 44.9725C76.6975 45.1317 76.5834 45.1955 76.3148 45.1697C75.7083 45.1041 75.5599 44.9143 75.9874 44.7983C76.1706 44.7487 76.4168 44.8134 76.5572 44.9725Z" fill="#51810A" fill-opacity="0.35"/>
<path d="M56.7373 51.7449C56.7269 52.0774 56.5841 52.281 56.4679 52.2136C56.3517 52.1462 56.3783 51.8752 56.5355 51.6018C56.7681 51.242 56.8068 51.2645 56.7373 51.7449Z" fill="#51810A" fill-opacity="0.35"/>
<path d="M56.4805 54.3518L57.4612 54.3487L56.4619 54.6523C55.943 54.7929 55.4527 54.7945 55.4121 54.6413C55.3634 54.4575 55.3696 54.3573 55.4001 54.349C55.4693 54.3631 55.9291 54.3699 56.4805 54.3518Z" fill="#51810A" fill-opacity="0.35"/>
<path d="M38.8779 60.8543C38.8676 61.1868 38.7247 61.3904 38.6085 61.323C38.4923 61.2556 38.5189 60.9846 38.6761 60.7112C38.9087 60.3514 38.9474 60.3738 38.8779 60.8543Z" fill="#51810A" fill-opacity="0.35"/>
<path d="M43.3441 61.6608C44.3402 62.5764 44.3136 62.8472 43.2888 62.071C42.7999 61.7096 42.4719 61.3373 42.5393 61.2203C42.5841 61.1422 42.9631 61.3359 43.3441 61.6608Z" fill="#51810A" fill-opacity="0.35"/>
<path d="M38.4284 66.548C38.3693 66.6958 38.2185 66.8685 38.0351 66.9182C37.8823 66.9596 37.7276 66.8699 37.695 66.747C37.6543 66.5933 37.8357 66.4124 38.0802 66.3461C38.3247 66.2798 38.4795 66.3695 38.4284 66.548Z" fill="#51810A" fill-opacity="0.35"/>
<path d="M37.8047 68.632C37.919 69.063 37.8984 69.2335 37.7493 69.0429C37.6391 68.8748 37.5411 68.5054 37.5453 68.2733C37.5883 68.0636 37.6905 68.2009 37.8047 68.632Z" fill="#51810A" fill-opacity="0.35"/>
<path d="M51.1465 78.2179C51.2607 78.6489 51.2402 78.8195 51.0911 78.6289C50.9809 78.4608 50.8829 78.0913 50.8871 77.8592C50.9301 77.6496 51.0323 77.7869 51.1465 78.2179Z" fill="#51810A" fill-opacity="0.35"/>
<path d="M41.9761 87.1578C42.9253 88.0202 42.7295 88.2709 41.6519 87.5422C41.1793 87.2422 40.9125 86.8534 41.0104 86.7281C41.147 86.6251 41.5565 86.8105 41.9761 87.1578Z" fill="#51810A" fill-opacity="0.35"/>
<path d="M43.917 87.1941C43.9066 87.5266 43.7638 87.7302 43.6476 87.6628C43.5314 87.5954 43.558 87.3244 43.7151 87.051C43.9478 86.6912 43.9865 86.7137 43.917 87.1941Z" fill="#51810A" fill-opacity="0.35"/>
</svg>
