<svg width="175" height="170" viewBox="0 0 175 170" fill="none" xmlns="http://www.w3.org/2000/svg">
<path d="M5.86242 115.412C3.67614 109.626 2.09133 103.785 1.09321 97.7888C-0.0223213 91.0874 -0.32144 84.3599 0.36905 77.6167C0.990292 71.5496 2.16244 65.5541 4.09748 59.7422C6.59391 52.2443 10.0315 45.1491 14.5516 38.5342C18.5642 32.6621 23.2993 27.3902 28.6825 22.6529C32.7023 19.1153 37.0444 15.9521 41.6563 13.136C47.7377 9.42259 54.198 6.44256 61.0474 4.28913C68.0325 2.09301 75.1764 0.60471 82.5562 0.181526C88.1067 -0.13676 93.6287 -0.0688048 99.1346 0.645144C107.555 1.73698 115.635 3.97156 123.382 7.30826C129.437 9.91612 135.074 13.1951 140.281 17.1135C147.438 22.4985 153.601 28.7867 158.769 35.9691C163.205 42.1351 166.772 48.7221 169.465 55.7347C172.093 62.5772 173.677 69.6544 174.521 76.8944C175.26 83.2371 175.128 89.5538 174.239 95.8757C173.607 100.366 172.668 104.788 171.323 109.129C168.616 117.866 164.629 126.022 159.207 133.536C155.858 138.176 152.118 142.498 147.856 146.392C144.182 149.749 140.235 152.796 136.009 155.513C131.181 158.617 126.127 161.337 120.78 163.521C115.469 165.69 109.976 167.347 104.299 168.441C98.6605 169.528 92.9731 170.049 87.2264 169.996C77.0321 169.902 67.2174 167.956 57.7214 164.46C48.734 161.152 40.5141 156.563 33.0333 150.797C25.8874 145.289 19.7262 138.907 14.6517 131.568C11.1423 126.492 8.27973 121.115 5.86242 115.412ZM120.837 117.797C121.332 117.241 121.823 116.683 122.322 116.131C126.935 111.039 130.345 105.292 132.259 98.8146C134.318 91.8493 134.697 84.7618 133.459 77.6007C131.956 68.9115 128.08 61.3326 121.905 54.8067C116.111 48.683 109.081 44.448 100.813 42.0091C93.954 39.9855 86.9736 39.6109 79.9709 40.7587C71.3124 42.1779 63.4982 45.4725 56.8385 51.1092C51.4594 55.662 47.2747 61.0348 44.4303 67.3028C41.1761 74.4739 39.7615 81.982 40.5472 89.8149C41.0721 95.0487 42.4662 100.075 44.6956 104.864C47.1683 110.176 50.6077 114.866 55.0116 118.919C59.456 123.01 64.405 126.383 70.092 128.678C77.3066 131.589 84.8102 132.531 92.6258 131.656C99.8321 130.849 106.42 128.604 112.425 124.754C115.481 122.795 118.185 120.442 120.837 117.797ZM84.4196 38.0999C89.1388 37.7328 93.7959 38.1211 98.4005 39.1465C99.4061 39.3705 100.025 39.008 100.266 38.0458C100.638 36.5588 101.002 35.0712 101.414 33.5918C103.862 24.7929 106.25 15.9785 108.684 7.17608C108.93 6.28697 108.529 5.98508 107.735 5.81009C103.269 4.82658 98.7828 3.9273 94.1999 3.66792C84.5945 3.12428 75.1292 3.96307 65.8587 6.51222C64.358 6.92488 64.2257 7.17833 64.6562 8.62231C66.0859 13.419 67.525 18.2133 68.9264 23.0175C70.3999 28.0692 71.8321 33.1319 73.2871 38.1885C73.6812 39.558 74.1305 39.7776 75.5151 39.4305C78.364 38.7163 81.267 38.3054 84.4196 38.0999ZM66.2702 154.366C65.4449 156.831 64.6387 159.302 63.7837 161.758C63.4874 162.609 63.7277 162.988 64.6367 163.26C71.0884 165.191 77.6939 166.317 84.4374 166.588C92.1846 166.9 99.8555 166.283 107.388 164.415C108.279 164.194 108.688 163.818 108.405 162.857C107.725 160.542 107.134 158.202 106.491 155.877C104.503 148.69 102.516 141.503 100.509 134.322C100.046 132.666 99.7822 132.566 97.9783 132.915C96.2203 133.254 94.4654 133.651 92.6878 133.847C86.9765 134.474 81.3326 134.044 75.7618 132.682C73.7887 132.2 73.5992 132.352 72.9898 134.194C70.7825 140.868 68.5549 147.535 66.2702 154.366ZM39.8558 18.6114C35.1716 21.7818 30.7966 25.2895 26.9043 29.3346C26.3057 29.9567 26.2729 30.3888 26.9516 30.9525C28.4765 32.219 29.9677 33.5228 31.462 34.8226C35.554 38.3817 39.6379 41.9493 43.7303 45.5081C46.1552 47.6169 48.5955 49.7097 51.0168 51.8223C51.6457 52.3711 52.2256 52.3528 52.8208 51.8064C53.4811 51.2004 54.1231 50.5752 54.8015 49.9883C59.5892 45.8467 65.0853 42.8416 71.1366 40.7268C72.5534 40.2317 72.7497 39.8312 72.3507 38.5121C71.5043 35.7139 70.6605 32.9148 69.831 30.112C67.7254 22.9971 65.6295 15.8796 63.5266 8.76395C63.1466 7.47814 62.905 7.35539 61.5716 7.82601C60.1754 8.31881 58.7798 8.81633 57.4039 9.35809C51.2388 11.7856 45.4648 14.8938 39.8558 18.6114ZM126.495 56.6962C130.25 61.6012 132.991 66.9718 134.616 72.8521C134.938 74.0182 135.231 74.2262 136.489 73.9523C139.798 73.2326 143.095 72.4724 146.422 71.8216C152.398 70.6529 158.337 69.3099 164.29 68.0367C165.556 67.7661 166.826 67.5091 168.08 67.1944C168.767 67.0219 169.187 66.6845 168.96 65.8421C167.998 62.2758 166.902 58.7513 165.498 55.3207C163.437 50.2867 160.899 45.4737 157.893 40.8973C155.761 37.6526 153.355 34.5908 150.762 31.6632C150.178 31.0044 149.678 30.9797 149.048 31.5326C148.261 32.2223 147.461 32.897 146.667 33.5796C140.998 38.4567 135.328 43.3334 129.66 48.2119C128.017 49.6262 126.384 51.0518 124.735 52.4599C124.051 53.0448 123.918 53.616 124.563 54.3296C125.211 55.0461 125.787 55.8222 126.495 56.6962ZM20.0595 37.1452C18.5075 39.1352 17.0678 41.2012 15.7481 43.334C11.7261 49.834 8.6414 56.7164 6.63191 64.0293C5.81106 67.0165 5.32492 66.6437 8.82953 67.414C18.2402 69.4824 27.6701 71.4715 37.0927 73.4908C37.5763 73.5944 38.0603 73.6992 38.5484 73.7801C39.3493 73.9129 39.8593 73.6451 40.0665 72.8408C40.3031 71.9224 40.5835 71.0113 40.9036 70.1161C42.9115 64.5013 45.9204 59.4207 49.8462 54.822C51.1233 53.3261 51.0893 53.2844 49.589 51.9799C47.1064 49.8215 44.6061 47.6817 42.1235 45.5232C36.8143 40.9072 31.5107 36.2854 26.2078 31.6628C25.5749 31.1111 25.0894 31.1154 24.5046 31.8044C23.039 33.5307 21.5184 35.2143 20.0595 37.1452ZM136.201 80.571C136.279 81.8076 136.391 83.0432 136.429 84.2809C136.549 88.2733 136.083 92.2117 135.185 96.1092C134.855 97.5399 134.983 97.7037 136.44 98.126C139.363 98.9732 142.278 99.8435 145.204 100.682C152.407 102.747 159.619 104.784 166.814 106.875C167.918 107.196 168.324 106.846 168.581 105.868C170.354 99.1242 171.39 92.2869 171.378 85.3294C171.369 80.0722 170.901 74.8478 169.812 69.6819C169.484 68.1297 169.333 67.9623 167.689 68.3124C162.25 69.4707 156.816 70.653 151.38 71.8266C146.431 72.8952 141.485 73.9776 136.53 75.0221C135.549 75.229 135.188 75.598 135.468 76.6085C135.809 77.837 135.956 79.1146 136.201 80.571ZM126.68 157.082C134.582 152.99 141.641 147.869 147.78 141.523C147.325 141.056 147.006 140.693 146.649 140.368C139.278 133.649 131.903 126.933 124.528 120.218C122.941 118.774 122.943 118.782 121.419 120.257C117.579 123.973 113.217 127 108.312 129.317C106.461 130.191 104.572 130.972 102.624 131.624C101.644 131.952 101.173 132.526 101.509 133.548C101.623 133.895 101.668 134.262 101.782 134.608C103.128 138.711 104.115 142.905 105.265 147.057C106.689 152.197 108.08 157.345 109.466 162.495C109.694 163.343 110.052 163.764 111.072 163.447C116.42 161.785 121.615 159.787 126.68 157.082ZM10.6806 105.469C11.5242 105.237 12.3712 105.016 13.211 104.772C21.2443 102.438 29.2622 100.055 37.3653 97.9472C39.2254 97.4634 39.7807 97.5975 39.2175 95.2047C37.7536 88.9858 37.8361 82.6896 39.1498 76.4382C39.3907 75.2919 39.0003 74.9458 37.9506 74.7215C27.6373 72.518 17.3282 70.2968 7.02415 68.0544C5.9184 67.8137 5.51565 68.209 5.33107 69.1983C4.37928 74.2996 3.72411 79.4299 3.6616 84.6151C3.60036 89.695 4.20817 94.7231 5.10632 99.7218C5.44791 101.623 5.83951 103.515 6.40181 105.371C6.64118 106.162 7.02129 106.569 7.97255 106.219C8.7887 105.919 9.65661 105.747 10.6806 105.469ZM123.759 11.3514C119.803 9.6156 115.821 7.94526 111.596 6.86754C110.068 6.4775 110.029 6.50078 109.622 8.00953C108.48 12.241 107.312 16.4659 106.163 20.6958C104.622 26.3721 103.069 32.0456 101.566 37.7311C101.029 39.7591 101.134 39.8101 103.274 40.4986C110.042 42.6758 115.953 46.2106 121.126 50.8825C122.93 52.5113 123.076 52.5474 124.922 50.9071C124.977 50.8574 125.032 50.8065 125.089 50.7575C129.84 46.648 134.584 42.5305 139.346 38.4322C142.265 35.9198 145.216 33.4419 148.143 30.9377C149.091 30.1265 149.119 29.8011 148.216 28.8676C146.377 26.9661 144.432 25.1674 142.422 23.4258C136.842 18.5907 130.656 14.6194 123.759 11.3514ZM133.333 102.106C132.903 103.157 132.502 104.221 132.036 105.257C130.093 109.569 127.527 113.523 124.419 117.153C123.876 117.787 123.954 118.23 124.536 118.726C124.877 119.017 125.184 119.344 125.515 119.646C129.242 123.037 132.974 126.423 136.697 129.818C140.339 133.14 143.966 136.477 147.613 139.793C148.483 140.584 148.959 140.551 149.691 139.683C152.132 136.79 154.605 133.924 156.764 130.819C161.378 124.188 164.917 117.08 167.498 109.516C167.867 108.436 167.486 108.082 166.509 107.811C163.065 106.856 159.631 105.865 156.195 104.884C149.505 102.975 142.811 101.08 136.131 99.1392C135.042 98.8228 134.379 98.9588 134.081 100.091C133.914 100.724 133.631 101.329 133.333 102.106ZM46.577 112.363C45.5922 110.718 44.5078 109.134 43.634 107.422C42.3255 104.859 41.2435 102.222 40.357 99.505C40.1166 98.7682 39.7508 98.2824 38.7712 98.5862C37.0294 99.1263 35.2591 99.5827 33.5015 100.077C25.0786 102.444 16.6601 104.826 8.22744 107.162C7.25226 107.432 6.99364 107.853 7.29939 108.734C8.16282 111.225 9.05122 113.706 10.1076 116.129C11.96 120.378 14.1805 124.445 16.7656 128.329C19.4546 132.368 22.4819 136.161 25.8818 139.684C26.5795 140.407 27.136 140.36 27.7758 139.701C27.9575 139.514 28.148 139.334 28.3405 139.157C32.5995 135.237 36.8614 131.32 41.1185 127.398C44.1132 124.64 47.0888 121.862 50.1021 119.122C50.8715 118.422 50.8711 117.83 50.2323 117.052C49.0075 115.561 47.8543 114.016 46.577 112.363ZM28.2024 142.012C28.5687 142.384 28.9081 142.785 29.3054 143.123C33.8088 146.963 38.4129 150.668 43.5191 153.79C49.1766 157.249 55.1676 160.023 61.4491 162.261C62.1818 162.522 62.5119 162.299 62.709 161.642C63.035 160.556 63.3784 159.475 63.7388 158.399C66.4477 150.313 69.1704 142.23 71.8708 134.141C72.6634 131.767 72.5991 131.771 70.1349 130.872C66.8071 129.659 63.6868 128.057 60.7366 126.14C57.9137 124.306 55.315 122.23 52.9655 119.869C52.2966 119.197 51.7173 119.066 50.9527 119.805C49.2928 121.41 47.5692 122.954 45.8616 124.513C42.8555 127.257 39.8318 129.984 36.8345 132.737C34.0003 135.34 31.1909 137.968 28.3698 140.585C27.9601 140.965 27.6256 141.355 28.2024 142.012Z" fill="black"/>
<path d="M75.3898 27.2839C74.9812 26.2657 74.0732 25.8808 73 25.3308C74.27 24.7366 74.6468 23.2998 76.1295 23.2092C76.3885 23.1934 76.4966 22.9833 76.6011 22.7946C77.5947 20.9991 79.0807 19.4566 79.5675 17.398C79.6223 17.166 79.7498 16.8759 79.9401 16.7593C81.8221 15.6062 82.7889 13.6532 84.2845 12.1644C84.7638 11.6874 85.169 11.1743 85.0088 10.3533C84.8698 9.64081 85.7954 8.94442 86.5664 9.00351C87.2855 9.05863 88.024 9.89968 87.8332 10.5913C87.6877 11.1186 87.8482 11.501 88.1083 11.9003C89.0986 13.4208 89.9872 15.0184 91.1249 16.4287C91.8907 17.3779 92.9592 18.1307 93.9892 18.8405C94.8291 19.4193 95.8043 19.82 96.7355 20.2687C97.2658 20.5242 97.8115 20.7552 98.4466 20.5831C99.0182 20.4282 99.4706 20.6261 99.7654 21.1299C100.071 21.6516 100.121 22.2301 99.6574 22.6261C98.2046 23.8675 97.9163 25.4849 97.911 27.2194C97.9098 27.5938 97.7278 27.8895 97.5317 28.207C96.7544 29.4648 95.9923 30.7183 96.5832 32.3047C96.8435 33.0036 96.4665 33.5716 95.7631 33.8748C95.172 34.1297 94.652 33.9981 94.3154 33.4549C93.9153 32.8093 93.8067 32.0872 94.5136 31.6225C95.8718 30.7297 95.944 29.3629 96.0964 28.0196C96.145 27.5907 96.0883 27.16 96.398 26.7957C97.2611 25.7806 97.4472 24.5155 97.7649 23.302C97.9515 22.5892 97.6703 21.9605 97.0722 21.6068C95.4274 20.6339 93.9233 19.3183 91.7601 19.5049C91.0426 19.5668 90.6441 19.049 90.6768 18.3998C90.7221 17.5012 90.307 16.8122 89.8233 16.1209C88.9487 14.8709 88.1072 13.5985 87.2033 12.3687C86.6001 11.548 86.1026 11.531 85.4092 12.2991C82.9124 15.0647 80.5854 17.952 78.722 21.1647C78.4321 21.6646 78.0819 22.1314 77.778 22.6241C77.2254 23.52 76.472 24.4311 78.0444 25.2412C77.1632 25.924 76.3449 26.4835 75.891 27.3742C75.7957 27.5614 75.5755 27.5086 75.3898 27.2839Z" fill="black"/>
<path d="M53.8872 33.1662C53.3449 33.3023 52.8841 33.3741 52.4557 33.5199C51.2823 33.9192 51.0801 34.4397 51.6882 35.3852C52.3209 36.3688 52.1001 37.0249 50.8907 37.346C49.577 37.6949 48.6241 38.4508 47.7302 39.2889C46.9535 40.0172 46.6329 40.8609 47.1511 41.8384C47.3169 42.151 47.437 42.4793 47.0978 42.7627C46.7633 43.0422 46.377 42.9558 46.0484 42.7733C45.3893 42.4071 44.7879 42.477 44.1706 42.8474C43.8775 43.0234 43.5457 43.0902 43.2598 42.8103C43.0225 42.5779 43.0901 42.3215 43.2372 42.0862C43.638 41.4453 43.622 40.8632 43.1856 40.2032C42.7939 39.611 43.0152 39.2997 43.9169 39.2841C44.8643 39.2676 45.8958 39.6112 46.7684 38.9394C48.1673 37.8624 49.1309 36.5387 49.7422 35.0028C49.7561 34.9678 49.7879 34.911 49.7735 34.8985C48.3094 33.6351 49.8674 31.9564 49.0094 30.5925C48.6477 30.0174 48.4921 29.3778 47.6955 29.0547C47.0756 28.8032 46.8731 28.2231 46.958 27.628C47.0485 26.9934 47.3893 26.452 48.1542 26.3501C49.1177 26.2216 49.5897 25.6836 49.9739 24.9815C50.894 23.2999 52.1731 21.8221 53.452 20.3505C53.935 19.7947 54.2429 19.2674 54.1223 18.5242C53.9735 17.6071 54.6783 17.1247 55.5806 17.0139C56.4275 16.9099 57.0582 17.4014 57.2667 18.0922C57.5164 18.92 57.1094 19.6692 56.1375 19.7913C55.0441 19.9286 54.5698 20.5124 54.1051 21.2464C53.0581 22.8999 51.911 24.4976 50.5652 25.9788C50.1569 26.4282 49.7901 26.8904 50.3568 27.4586C50.6688 27.7714 50.5189 28.039 50.2789 28.3508C49.5253 29.3298 49.7779 31.301 50.7392 32.1145C51.2528 32.5491 51.813 32.7483 52.5695 32.5345C53.687 32.2187 54.8428 32.01 55.9763 31.7366C56.7099 31.5597 57.5027 31.5772 57.6465 30.5474C57.7044 30.133 58.6917 29.8198 59.2379 29.4721C61.592 31.0829 61.5948 32.0242 59.2012 33.454C57.6481 31.4104 55.77 33.0129 53.8872 33.1662Z" fill="black"/>
<path d="M130.639 37.8403C129.066 37.6747 127.591 37.5353 126.118 37.3774C125.561 37.3177 125.106 37.5402 124.625 37.7054C123.657 38.037 123.014 37.7424 122.857 36.8828C122.696 35.9998 122.183 35.3398 121.423 34.7937C119.959 33.7421 118.982 32.204 117.081 31.5805C116.89 31.5177 116.751 31.2827 116.639 31.104C115.573 29.4126 113.735 28.3551 112.19 27.0561C111.746 26.6831 111.307 26.9036 110.844 26.9591C110.108 27.0471 109.621 26.704 109.282 26.1853C108.893 25.5891 108.89 24.9788 109.377 24.4309C109.803 23.9508 110.471 23.6894 111.088 23.955C112.897 24.7341 114.524 24.0806 116.191 23.6196C116.533 23.5249 116.875 23.3224 117.21 23.3322C119.623 23.4024 121.583 22.62 123.156 21C124 21.4854 124.685 21.9753 124.701 22.8781C124.709 23.3072 125.015 23.57 125.343 23.8317C127.502 25.5508 129.937 26.9572 132.329 28.4111C132.898 28.7566 133.525 28.9491 134.26 28.7759C134.926 28.6189 135.437 28.8588 135.764 29.3793C136.107 29.9261 136.111 30.4587 135.542 30.8866C134.977 31.3112 134.829 31.8362 134.771 32.4516C134.694 33.2764 134.5 34.093 134.357 34.9134C134.225 35.6715 134.136 36.4101 134.647 37.1236C135.121 37.7866 134.763 38.3091 134.109 38.7242C133.448 39.1438 132.843 39.0818 132.299 38.5575C131.88 38.1543 131.374 37.8996 130.639 37.8403ZM118.285 24.2457C116.726 24.567 115.162 24.8701 113.611 25.2155C112.477 25.4679 112.322 25.8479 113.122 26.5355C114.592 27.7988 115.888 29.2332 117.752 30.1251C117.988 30.2382 118.238 30.4094 118.36 30.6089C119.355 32.2469 121.15 33.265 122.591 34.5371C123.576 35.4072 125.024 36.0352 126.399 36.3925C127.986 36.805 129.714 36.8726 131.389 36.9518C132.419 37.0005 133.1 36.4661 133.225 35.5095C133.372 34.3796 133.538 33.2511 133.722 32.1251C133.858 31.2851 133.685 30.4854 132.973 29.9214C131.796 28.989 130.56 28.0626 128.834 28.0015C128.04 27.9734 127.662 27.6989 127.385 27.0305C126.837 25.7085 125.335 25.072 124.207 24.1852C123.911 23.9525 123.016 24.3461 122.618 24.1377C121.175 23.3827 119.847 23.8815 118.285 24.2457Z" fill="black"/>
<path d="M23.8313 53.1743C22.9928 53.6697 22.2149 54.11 21.4624 54.5855C20.6679 55.0874 20.6388 55.7063 21.5046 55.9923C23.056 56.5049 24.4682 57.4307 26.1898 57.4611C26.4759 57.4662 26.6912 57.5913 26.8981 57.7552C28.0876 58.6977 29.5989 59.0008 30.9846 59.5538C31.4006 59.7198 31.7896 59.5821 32.2003 59.5002C33.3541 59.2701 34.1679 60.0267 33.7211 61.0176C33.0764 62.4475 33.2366 63.68 34.2382 64.8935C34.7066 65.4611 34.6664 66.0982 34.0869 66.6218C33.6285 67.036 33.0843 67.1368 32.5352 66.7895C31.8555 66.3595 31.7389 65.7663 32.1573 65.1247C33.165 63.5793 31.7936 60.5065 29.9107 59.9647C27.1543 59.1715 24.5473 58.0345 21.8993 56.9906C20.8081 56.5604 19.7579 56.2703 19.1416 57.8123C18.3787 57.0575 17.7293 56.4438 17.1196 55.7973C16.876 55.539 17.0465 55.2434 17.2577 55.0303C17.6687 54.6157 18.101 54.2188 18.5398 53.8297C18.735 53.6566 19.0206 53.4778 19.2436 53.6977C20.0242 54.4677 20.6834 53.9473 21.3573 53.5668C22.3941 52.9815 23.5723 52.5272 24.4175 51.7554C25.4677 50.7962 26.5686 50.2113 27.9665 49.7403C29.8604 49.1022 31.5423 47.9161 33.3236 46.9792C33.9157 46.6678 34.2397 46.1594 34.5985 45.6559C34.9244 45.1986 35.351 44.7899 36.0109 45.1197C36.5417 45.3849 37.1406 45.6864 36.9706 46.3951C36.8147 47.045 36.3724 47.4987 35.6 47.4089C34.5843 47.2908 33.7691 47.7 32.9316 48.1289C30.8374 49.2016 28.7766 50.318 26.954 51.78C26.0699 52.4892 24.7717 52.3898 23.8313 53.1743Z" fill="black"/>
<path d="M147.476 53.2014C147.3 52.8108 147.304 52.4307 147.717 52.3751C149.28 52.1647 149.095 51.0264 149.297 50.1073C149.368 49.7831 149.303 49.426 149.248 49.0908C149.025 47.737 149.329 47.3539 150.82 47.4643C152.12 47.5606 153.001 47.0182 153.849 46.2783C154.248 45.9309 154.739 45.907 155.211 46.2164C155.636 46.4947 155.77 46.877 155.588 47.3005C155.397 47.7463 155.018 48.0212 154.443 47.9958C154.253 47.9873 154.065 47.9412 153.874 47.9299C150.959 47.756 149.86 50.1101 150.147 51.9565C150.388 53.5145 152.468 54.8495 154.411 54.7966C155.615 54.7638 156.265 55.083 156.56 56.1464C156.889 57.3286 157.817 58.0506 159.141 58.3921C159.839 58.5718 160.089 59.0519 159.972 59.6711C159.863 60.2493 159.456 60.5625 158.8 60.615C158.065 60.6739 157.531 60.3461 157.472 59.7407C157.262 57.5604 155.31 56.7471 153.622 55.715C153.434 55.5999 153.22 55.5178 153.014 55.4267C151.166 54.6086 150.797 54.6177 149.136 55.5525C148.331 54.5257 147.648 55.1569 146.909 55.6963C145.549 56.6898 144.166 57.6602 142.776 58.6205C141.807 59.2895 141.08 59.9739 141.681 61.2066C141.966 61.7902 141.615 62.1731 140.859 61.8854C140.215 61.6398 139.615 61.591 138.985 61.8799C138.703 62.0089 138.399 62.0872 138.145 61.8302C137.94 61.6218 137.974 61.3642 138.113 61.1591C138.51 60.572 138.476 60.0093 138.13 59.415C137.953 59.1114 138.024 58.6479 138.433 58.7276C139.148 58.8669 139.817 58.2764 140.527 58.7335C140.914 58.9824 141.263 58.6726 141.539 58.451C143.189 57.1244 144.898 55.8724 146.782 54.8067C147.354 54.4833 147.887 54.0116 147.476 53.2014Z" fill="black"/>
<path d="M89.7172 50C99.4482 50.5281 106.709 54.853 111.252 63.1767C113.131 66.6198 113.957 70.4251 113.624 74.4191C113.39 77.2242 114.538 79.6624 116.254 81.8218C117.701 83.6423 119.123 85.4739 120.374 87.4296C121.52 89.2215 121.079 90.9578 119.167 91.9643C118.414 92.3604 117.601 92.6658 116.786 92.9228C116.159 93.1206 115.875 93.4197 116.137 94.0402C116.732 95.4481 116.947 96.7866 115.59 97.9352C115.317 98.1661 115.481 98.4822 115.572 98.759C115.94 99.8736 115.638 100.788 114.671 101.46C113.919 101.984 113.636 102.643 113.776 103.542C113.927 104.52 113.95 105.513 113.758 106.493C113.242 109.125 111.228 110.8 108.422 110.997C106.618 111.123 104.843 110.771 103.049 110.752C100.204 110.723 98.9167 111.842 98.7498 114.651C98.6349 116.583 98.6273 118.522 98.5691 120.457C98.5424 121.344 98.1535 121.955 97.1849 121.998C96.1521 122.043 95.6194 121.358 95.5945 120.497C95.5175 117.835 95.2596 115.157 96.0424 112.531C96.8795 109.724 98.9366 108.154 101.93 108.016C103.695 107.935 105.431 108.276 107.189 108.259C109.961 108.233 111.053 107.162 111.026 104.435C111.019 103.813 110.997 103.19 110.963 102.569C110.909 101.546 111.237 100.686 112.092 100.071C112.633 99.6821 112.787 99.2848 112.394 98.688C111.76 97.7255 111.853 96.9143 112.981 96.3285C113.538 96.0392 113.782 95.5699 113.438 94.952C113.403 94.8886 113.387 94.8147 113.364 94.7452C112.355 91.7674 112.721 91.0967 115.8 90.2762C118.345 89.5979 118.389 89.5031 116.882 87.3926C115.512 85.474 114.111 83.5762 112.728 81.6665C111.451 79.9043 110.816 77.9508 110.956 75.7826C111.149 72.7831 110.819 69.8321 109.726 67.0336C106.779 59.4833 101.346 54.6511 93.1228 53.2451C85.1744 51.8862 78.2342 53.9263 72.639 59.7785C71.9043 60.547 71.3431 61.4753 70.7085 62.3345C70.5157 62.5956 70.4199 62.9418 70.037 63.0228C69.046 62.2946 68.739 61.1121 69.23 59.8131C69.6289 58.7579 70.385 57.9386 71.1653 57.1483C76.2086 52.0398 82.5208 50.0609 89.7172 50Z" fill="black"/>
<path d="M51.1776 83.7486C52.0085 82.9848 52.1167 82.2676 51.5404 81.3407C49.2711 77.6905 50.1241 73.8961 53.7034 71.351C54.028 71.1202 54.4595 70.9739 54.6427 70.4265C53.1622 69.777 51.9252 68.8233 51.1025 67.4489C50.8932 67.0992 50.6422 66.7686 50.4652 66.4053C49.9808 65.4111 50.2547 64.9093 51.3862 64.6525C53.2435 64.2309 53.2347 64.2304 53.3669 62.3625C53.395 61.9643 53.5104 61.5713 53.5904 61.1768C53.7364 60.457 54.2123 60.2055 54.9433 60.3407C55.1697 60.3826 55.3895 60.456 55.6125 60.5144C56.3457 60.7063 56.8994 61.5913 57.6814 61.3005C58.3962 61.0346 58.5053 60.1159 58.9678 59.5313C60.5952 57.4744 60.9559 57.4681 62.4663 59.6432C62.8862 60.248 63.2651 60.8783 63.6865 61.5338C64.4987 61.1652 65.2376 60.7674 66.0234 60.4884C67.1471 60.0895 67.7055 60.4481 67.8666 61.5731C67.8873 61.7179 67.8889 61.8655 67.8929 62.0119C67.9131 62.7426 67.7201 63.56 68.0043 64.1817C68.3442 64.9252 69.3941 64.5376 70.0996 64.8033C71.0523 65.1622 71.209 65.5851 70.7575 66.4679C69.0998 69.7095 65.85 71.3968 62.5541 70.5962C62.3442 70.5452 62.1086 70.5895 61.8528 70.5895C61.8528 71.5165 61.8253 72.3853 61.8577 73.252C61.9721 76.3102 60.6194 78.7047 58.1815 80.6084C57.5558 81.0969 56.8969 81.5479 56.2442 82.0046C55.1964 82.7378 55.1645 82.8412 56.1416 83.7274C57.1818 84.6709 58.1278 85.681 58.8388 86.869C60.4623 89.582 60.4206 92.3031 58.8252 95.015C57.3782 97.4747 57.14 96.7437 59.4932 98.7694C62.3255 101.208 63.2674 104.817 61.7774 108.395C61.3291 109.471 61.4497 110.091 62.4839 110.781C64.7946 112.322 66.4164 114.344 66.966 117.075C67.2516 118.495 67.1887 119.84 66.6858 121.18C66.4945 121.689 66.1879 122.139 65.4994 121.96C64.8558 121.793 64.8483 121.288 64.9606 120.799C65.2706 119.45 65.2758 118.12 64.8703 116.782C64.1935 114.551 62.7552 112.948 60.5324 111.803C59.6395 113.381 60.1491 114.726 60.8061 116.066C61.0742 116.613 61.8858 117.217 60.9567 117.75C60.1331 118.222 59.7446 117.431 59.3205 116.933C58.218 115.64 57.9632 114.122 58.3127 112.57C58.6379 111.126 58.1535 110.179 56.8842 109.427C54.5817 108.063 53.3059 106.027 52.8547 103.528C52.5549 101.869 53.0937 100.325 53.9053 98.8901C54.4735 97.8854 54.4176 97.228 53.3878 96.4702C51.2984 94.933 49.7874 92.9632 49.1791 90.4554C48.5598 87.9027 49.6245 85.8008 51.1776 83.7486ZM51.3383 87.5685C50.3363 90.8949 52.9517 93.8985 55.2881 95.4787C55.6199 95.7032 55.9417 95.7372 56.1949 95.3977C57.4035 93.777 58.3076 92.0555 57.904 89.9868C57.441 87.6143 55.7246 86.0062 54.0089 84.4127C53.5218 83.9604 53.1476 84.3147 52.8664 84.681C52.2291 85.511 51.6447 86.3738 51.3383 87.5685ZM52.3927 78.5546C52.7281 79.5117 52.9582 80.5294 53.9425 81.0932C55.4513 80.5549 56.6219 79.6336 57.6249 78.5815C59.1915 76.9382 60.1962 74.9955 60.043 72.716C59.8852 70.3688 59.6886 70.2975 57.4798 71.2721C57.2002 71.3954 56.9142 71.5084 56.6446 71.6492C53.8533 73.107 51.9075 75.0519 52.3927 78.5546ZM56.1327 106.071C56.7758 106.803 57.4726 107.489 58.2858 108.05C59.2442 108.711 59.5783 108.609 59.9881 107.602C61.168 104.702 59.7547 100.826 56.9575 99.2067C56.376 98.87 56.0763 98.999 55.7826 99.5365C54.5876 101.723 54.4733 103.859 56.1327 106.071ZM59.3442 62.3658C58.597 64.0241 58.5652 65.6281 59.7242 67.1539C60.3331 67.9553 60.7975 67.9815 61.4143 67.1762C61.9453 66.483 62.2906 65.6797 62.3412 64.8378C62.4438 63.1292 62.0594 61.5492 60.6854 60.2635C59.9726 60.8466 59.7522 61.5611 59.3442 62.3658ZM64.5865 62.9745C64.2875 63.2384 64.1806 63.5714 64.1342 63.9506C63.9935 65.0997 63.8535 66.2508 63.3614 67.3952C65.6416 66.278 66.7606 63.9735 65.8551 62.3825C65.4225 62.4322 65.0588 62.6326 64.5865 62.9745ZM55.192 64.4539C55.7337 65.5745 56.1135 66.8295 57.8476 67.2963C57.3056 66.0495 57.2317 64.9365 57.0613 63.8359C56.9445 63.0814 56.4436 62.3418 55.5553 62.4809C54.7405 62.6086 55.1334 63.4174 55.1065 63.9537C55.1011 64.0609 55.1337 64.1698 55.192 64.4539ZM67.252 66.3241C66.1424 67.1289 65.4394 68.3325 63.8574 69.0285C66.1576 69.2462 68.2825 67.9053 68.493 66.3722C68.1555 66.1441 67.7866 66.1482 67.252 66.3241ZM54.7955 68.6915C55.4844 68.9947 56.1782 69.2664 57.0074 69.0275C56.4443 68.5555 55.9143 68.1394 55.4197 67.6884C54.9763 67.2841 54.604 66.8063 54.1406 66.4262C53.7367 66.0949 53.1701 65.9578 52.7856 66.3782C52.4251 66.7723 52.8655 67.1343 53.151 67.3997C53.6176 67.8335 54.1435 68.2101 54.7955 68.6915Z" fill="black"/>
<path d="M97.0073 91.0688C94.7827 94.0907 92.0503 96.5527 89.5034 99.1801C85.3037 103.513 81.7558 108.214 80.6019 114.279C80.2851 115.944 80.158 117.621 80.1881 119.314C80.1972 119.823 80.1772 120.35 80.0534 120.84C79.847 121.657 79.2583 122.065 78.3894 121.991C77.5786 121.922 77.2275 121.416 77.1808 120.66C77.0145 117.971 77.2089 115.304 77.8703 112.694C79.4556 106.439 83.111 101.428 87.6964 96.955C90.3953 94.3222 93.092 91.6684 95.228 88.5437C96.9638 86.0045 98.2351 83.3135 98.0636 80.1409C97.9115 77.3255 96.0704 75.1986 93.3611 74.785C91.5087 74.5021 89.5098 75.6129 88.511 77.4704C88.1185 78.2003 87.9043 79.175 86.848 79.2053C85.8291 79.2346 85.5946 78.2772 85.1915 77.6097C83.8087 75.3201 81.8195 74.356 79.3925 74.8472C77.342 75.2622 75.6087 77.3829 75.311 79.7182C74.9106 82.86 76.1563 85.4663 77.9907 87.8771C78.5688 88.6369 79.2699 89.3108 79.9498 89.9901C80.4076 90.4474 80.7008 90.9426 80.4253 91.5625C80.144 92.1952 79.5848 92.4997 78.8836 92.4404C76.4779 92.2371 74.1746 91.6737 72.0617 90.4817C65.589 86.8301 63.2359 79.3366 64.2123 72.8203C64.2737 72.411 64.4395 72.0354 64.7308 71.7405C65.2807 71.1836 65.9552 70.8092 66.7395 71.1025C67.5768 71.4155 67.2162 72.17 67.1444 72.739C66.6831 76.3958 67.053 79.9158 68.8531 83.2085C70.1256 85.5363 71.9885 87.2391 74.6948 88.4285C73.7845 86.8346 73.0692 85.4424 72.6576 83.9146C71.9648 81.3439 72.0116 78.8503 73.2187 76.4152C75.6607 71.4888 81.8339 70.3141 85.9087 74.0674C86.6137 74.7169 86.9972 74.6195 87.6309 74.0407C91.8577 70.1803 98.4413 71.8544 100.362 77.2217C101.709 80.9843 100.757 84.452 99.045 87.8184C98.48 88.9291 97.7251 89.9466 97.0073 91.0688Z" fill="black"/>
<path d="M151.587 88.3786C152.636 87.807 153.633 87.3156 154.574 86.7252C155.509 86.1383 155.65 85.4675 155.151 84.4546C154.841 83.8263 154.537 83.1844 153.976 82.748C153.674 82.5136 153.557 82.1975 153.443 81.8244C153.069 80.5964 152.765 79.3378 151.241 79.015C150.625 78.8846 150.184 78.1366 150.244 77.4572C150.299 76.8323 150.835 76.3753 151.394 76.0822C151.783 75.8783 152.12 76.0796 152.316 76.402C152.594 76.8586 153.438 77.0235 153.085 77.8084C152.787 78.471 153.062 78.9305 153.385 79.4493C154.22 80.787 155.154 82.067 155.682 83.5936C155.916 84.2683 156.347 84.7021 157 84.9449C157.592 85.1649 158 85.6522 157.815 86.3238C157.581 87.1702 157.928 87.7959 158.348 88.3877C159.262 89.676 160.072 91.0308 160.841 92.4175C161.345 93.3276 162.025 93.7243 163.065 93.3463C163.896 93.0442 164.184 93.3505 163.885 94.1816C163.641 94.8554 163.621 95.4616 163.877 96.1272C164.157 96.8546 163.854 97.1702 163.173 96.9096C162.501 96.6521 161.879 96.6404 161.212 96.902C160.751 97.0827 160.342 96.8597 160.477 96.3266C161.017 94.1935 159.941 92.5758 158.958 90.963C158.463 90.1515 157.91 89.3744 157.432 88.5451C156.782 87.4193 155.807 87.0837 154.718 87.693C153.538 88.3533 152.244 88.8068 151.25 89.832C150.941 90.1517 150.458 90.3475 150.022 90.4583C147.919 90.9924 146.303 92.2259 145.099 94.096C145.002 94.2457 144.863 94.3646 144.663 94.5871C144.113 93.9746 143.594 93.396 143 92.7348C143.418 92.2005 143.827 91.661 144.255 91.1378C144.432 90.92 144.689 90.8129 144.905 91.0481C145.542 91.7398 146.149 91.3352 146.735 90.9995C147.813 90.383 149.04 90.0255 149.817 88.8893C150.221 88.2993 150.982 88.7315 151.587 88.3786Z" fill="black"/>
<path d="M15.7953 80.9031C15.8352 81.7256 16.2272 82.2389 16.8126 82.7107C17.9064 83.5923 18.9412 84.5418 20.0004 85.4632C20.626 86.0075 21.1603 86.6938 22.1755 86.5596C22.4526 86.523 22.7675 86.7111 22.885 86.9608C23.2641 87.7662 24.05 87.9128 24.7981 88.1176C26.1709 88.4932 27.5527 88.8383 28.925 89.2155C29.6235 89.4075 30.2635 89.5274 30.9849 89.1586C31.6239 88.8319 32.4862 89.5895 32.3249 90.3834C32.1993 91.0017 32.349 91.4421 32.7037 91.9026C33.1236 92.4477 33.1037 92.9939 32.6023 93.4842C32.1098 93.9659 31.5471 94.1745 30.8637 93.828C30.1886 93.4856 30.0105 92.9454 30.1611 92.2672C30.5117 90.6881 30.2689 90.2957 28.5873 89.9807C27.4605 89.7696 26.365 89.4675 25.2882 89.102C24.2634 88.754 23.2722 88.4738 22.1722 88.8991C21.5668 89.1331 20.8989 88.8544 20.8355 88.2329C20.7149 87.0501 19.8482 86.4519 19.0737 85.764C18.025 84.8325 16.9632 83.9131 15.8738 83.0263C14.9934 82.3096 14.4193 82.3826 13.7132 83.2586C13.3422 83.7189 13.0185 84.2156 12.6927 84.7077C12.6016 84.8453 12.4811 85.1098 12.5398 85.1724C13.4149 86.1061 12.4981 86.5162 11.99 87.0738C11.7152 87.3752 11.532 87.7538 11.22 88.2314C10.4614 87.5277 10.1109 86.5743 9 85.9862C10.1003 85.5139 10.3182 84.2549 11.6833 84.371C12.1974 84.4147 13.3759 82.3022 13.3999 81.47C13.4191 80.8017 13.5693 80.2108 14.3406 80.0389C15.0359 79.8839 15.5107 80.1963 15.7953 80.9031Z" fill="black"/>
<path d="M29.6954 111.95C30.5736 110.713 31.7891 109.83 32.3794 108.473C32.6165 107.928 32.8372 107.461 32.6402 106.829C32.3531 105.908 32.965 105.334 33.7812 105.091C34.6885 104.82 35.5144 105.164 35.8725 106.012C36.2178 106.831 35.8389 107.719 35.0122 107.908C33.0823 108.347 32.5355 109.861 31.8814 111.272C31.556 111.974 31.1664 112.591 30.7485 113.237C29.8741 114.588 28.6082 115.906 29.3404 117.758C29.457 118.052 29.3439 118.378 29.1701 118.645C28.0279 120.402 28.556 122.131 29.3256 123.813C29.6145 124.445 29.7789 124.978 29.5712 125.677C29.15 127.094 29.7165 128.313 30.5961 129.44C31.22 130.24 31.1196 131.174 30.3708 131.681C29.794 132.072 29.1679 132.127 28.5753 131.714C27.9436 131.273 27.7149 130.589 28.031 129.967C28.8812 128.292 28.6651 126.725 27.6257 125.266C26.6522 123.9 25.2708 122.987 23.6021 122.522C23.2272 122.418 22.9528 122.24 22.7558 121.93C22.1861 121.033 21.2234 120.592 20.3643 120.032C19.9254 119.745 19.4925 119.801 18.9942 119.951C17.7624 120.322 17.4459 119.815 17.1125 118.729C16.6569 117.243 17.6724 116.835 18.5906 116.138C20.8101 118.719 23.7159 117.926 26.3069 117.128C28.5838 116.428 29.2834 114.193 29.6954 111.95ZM24.5502 121.487C25.5295 122.284 26.4699 123.144 27.9067 123.553C27.887 122.269 27.7897 121.204 27.4684 120.176C27.2358 119.431 26.6415 118.808 25.9109 118.681C24.1558 118.377 22.3799 118.618 20.3529 118.64C21.6206 120.073 23.1762 120.507 24.5502 121.487Z" fill="black"/>
<path d="M151.362 111.476C147.712 112.611 144.817 114.53 142.729 117.422C142.118 118.267 141.198 118.855 140.35 119.479C139.156 120.358 138.51 121.356 138.971 122.78C139.085 123.135 139.285 123.541 138.895 123.844C138.464 124.181 138.122 123.786 137.771 123.635C137.144 123.365 136.595 123.514 136.053 123.823C135.791 123.973 135.517 124.11 135.227 123.868C134.907 123.602 134.968 123.307 135.199 123.038C135.726 122.423 135.645 121.836 135.164 121.239C134.968 120.997 134.918 120.736 135.178 120.49C135.439 120.242 135.727 120.3 136.006 120.448C137.146 121.051 137.972 120.644 138.807 119.864C139.736 118.994 140.361 117.85 141.295 117.094C142.343 116.247 143.257 115.293 144.281 114.437C144.907 113.914 145.393 113.317 145.572 112.534C145.749 111.76 146.306 111.476 147.162 111.556C149.094 111.736 150.627 111.077 151.823 109.697C152.103 109.375 152.401 108.753 152.955 109.105C153.596 109.511 154.549 109.966 154.257 110.85C153.794 112.251 154.055 113.419 155.101 114.489C155.224 114.614 155.377 114.789 155.368 114.934C155.247 116.803 156.528 117.967 157.867 119.11C157.94 119.172 157.949 119.296 158 119.422C157.495 119.962 156.986 120.507 156.364 121.172C155.827 120.51 155.322 119.887 154.78 119.217C155.996 118.272 154.998 117.181 154.372 116.156C154.027 115.592 153.793 115.083 153.789 114.433C153.78 113.033 152.805 111.848 151.362 111.476Z" fill="black"/>
<path d="M56.9943 153.587C56.2502 151.139 54.4516 149.902 52.1832 149.145C51.8646 149.039 51.6455 148.848 51.6021 148.502C51.377 146.707 49.9208 145.658 48.921 144.335C48.7335 144.087 48.4277 143.959 48.1029 143.934C47.147 143.859 46.6043 143.368 46.4848 142.438C46.4236 141.961 46.0374 141.745 45.6767 141.52C44.5594 140.823 43.4367 140.134 42.316 139.443C41.9625 139.224 41.6326 139.155 41.2352 139.411C39.9405 140.247 39.8243 138.822 39.2583 138.353C38.6387 137.838 39.2815 137.522 39.6484 137.209C40.7036 136.308 41.5835 136.325 42.069 137.529C42.4789 138.546 43.251 138.971 44.0558 139.468C44.8137 139.937 45.5827 140.39 46.3645 140.819C47.1563 141.254 47.7331 140.994 48.0214 140.192C48.4221 139.079 48.8046 137.958 48.4285 136.745C48.2422 136.144 48.5402 135.715 49.0817 135.432C50.6468 134.613 51.2971 133.033 52.306 131.752C52.4732 131.54 52.5379 131.259 52.3534 131.003C51.7516 130.168 52.4601 129.747 52.9587 129.312C53.4587 128.876 54.0352 128.915 54.5635 129.32C55.1198 129.746 55.7306 130.144 55.3226 131.003C55.0879 131.497 55.2302 131.994 55.5362 132.409C56.3152 133.466 56.5265 134.916 57.9229 135.559C58.3247 135.744 58.3387 136.27 58.3029 136.698C58.1523 138.495 58.3639 140.179 59.6797 141.601C60.1037 142.06 60.0953 142.65 59.7224 143.192C59.1324 144.05 58.9906 144.998 59.0092 146.017C59.0265 146.963 58.8843 147.911 58.8347 148.858C58.7779 149.945 58.5103 151.067 59.4762 151.972C59.8438 152.316 59.7262 152.753 59.4559 153.12C59.0828 153.628 58.6459 154.089 57.9253 153.985C57.6287 153.943 57.3531 153.762 56.9943 153.587ZM54.0002 148.617C54.613 149.432 55.5106 149.924 56.3078 150.528C57.3508 151.318 57.6122 151.232 57.8286 149.933C58.0842 148.398 57.8231 146.826 58.1574 145.286C58.3374 144.457 58.2771 143.62 57.7323 142.883C57.5661 142.658 57.5131 142.386 57.65 142.125C58.1862 141.106 57.7433 140.151 57.5498 139.144C57.3527 138.118 56.2369 137.474 56.2631 136.564C56.3113 134.888 55.1653 133.859 54.4688 132.587C54.1104 131.933 53.5316 131.909 53.066 132.516C52.1005 133.773 50.7432 134.817 50.6784 136.587C50.6712 136.784 50.4686 136.982 50.335 137.164C49.259 138.633 48.5214 140.152 49.4857 141.966C49.5705 142.126 49.6049 142.341 49.5807 142.52C49.432 143.618 50.0092 144.415 50.7124 145.157C51.7693 146.272 52.8367 147.378 54.0002 148.617Z" fill="black"/>
<path d="M127.573 134.985C128.375 133.984 129.35 133.181 129.347 131.834C129.345 131.183 130.034 130.997 130.637 131C131.262 131.003 131.77 131.3 131.937 131.895C132.112 132.521 131.938 133.154 131.235 133.309C129.77 133.633 128.966 134.595 128.244 135.687C128.162 135.81 128.005 135.926 128 136.05C127.917 138.01 125.786 139.374 126.09 141.373C126.382 143.295 125.105 144.833 124.961 146.627C124.919 147.141 124.843 147.6 125.115 148.085C125.39 148.576 125.279 149.072 124.896 149.496C124.489 149.948 123.986 149.975 123.426 149.77C123.177 149.679 122.887 149.538 122.651 149.583C120.385 150.019 118.129 150.52 115.975 151.306C115.362 151.53 115.252 152.387 114.564 152.761C113.956 153.091 113.656 153.121 113.247 152.584C112.872 152.09 112.402 151.659 112 151.229C114.133 148.76 113.434 146.229 112.286 143.701C112.09 143.27 111.948 142.909 112.234 142.487C112.553 142.018 113.008 141.706 113.587 141.854C114.433 142.071 115.059 141.717 115.76 141.388C118.416 140.141 121.095 138.937 123.77 137.726C124.3 137.486 124.804 137.267 124.936 136.635C125.044 136.122 125.461 135.83 126.001 135.77C126.614 135.701 127.09 135.432 127.573 134.985ZM116.128 150.157C117.466 149.808 118.785 149.267 120.146 149.15C123.166 148.89 124.76 146.427 124.293 143.597C124.25 143.34 124.18 143.076 124.364 142.867C125.288 141.816 125.178 140.486 125.475 139.271C125.675 138.452 125.314 138.175 124.49 138.444C123.98 138.611 123.468 138.785 122.986 139.01C120.879 139.991 118.814 141.059 116.672 141.965C114.841 142.74 114.039 143.71 114.111 145.618C114.153 146.736 114.244 147.854 114.358 148.969C114.448 149.843 114.866 150.417 116.128 150.157Z" fill="black"/>
<path d="M92.2539 147.862C94.0517 147.604 94.9192 149.004 96.2283 149.522C96.8698 149.776 97.511 149.981 98.1845 149.759C99.0664 149.468 99.4417 150.042 99.8117 150.53C100.251 151.11 99.8453 151.649 99.3721 151.961C97.481 153.205 97.656 155.36 96.6418 156.987C96.3151 157.512 96.8897 158.003 97.33 158.352C96.3163 159.994 95.9131 160.21 94.6176 159.852C93.7672 159.617 93.3959 158.517 93.9598 157.897C94.0554 157.792 94.1484 157.669 94.2737 157.604C96.3358 156.538 96.5818 154.508 97.2857 152.757C97.8717 151.299 96.1237 149.653 94.2063 149.786C93.6442 149.825 93.3431 149.683 92.9627 149.324C92.0457 148.46 90.9709 147.895 89.5655 148.377C89.3264 148.459 89.0412 148.498 88.7896 148.469C86.5267 148.207 84.8673 149.186 83.4199 150.612C83.2326 150.797 83.019 150.94 82.7412 150.932C81.5834 150.899 80.6785 151.486 79.7063 151.924C78.8517 152.309 78.0978 152.735 77.6566 153.581C77.4238 154.028 76.9611 154.722 76.2946 154.249C75.7257 153.846 74.7063 153.48 75.0806 152.529C75.4186 151.671 76.4137 151.258 77.1748 151.537C78.4294 151.997 79.5343 151.318 80.2809 150.744C82.0346 149.397 84.2823 149.034 86.1187 147.919C86.3369 147.786 86.5708 147.671 86.7702 147.518C87.3133 147.101 87.3818 146.626 86.7756 146.242C85.6822 145.549 84.833 144.49 83.3714 144.325C83.1777 144.304 82.9452 144.138 82.8383 143.978C82.2785 143.143 81.3424 142.758 80.4931 142.259C79.8324 141.871 79.2575 141.737 78.8218 142.584C77.953 142.068 77.6413 141.204 76.8629 140.678C77.4049 140.02 77.9504 139.475 78.595 139C79.5176 139.45 80.255 139.789 80.5474 140.947C80.7961 141.933 82.2151 142.448 83.3754 142.769C83.883 142.909 84.1768 143.13 84.5116 143.489C85.6811 144.742 87.0168 145.759 89.0274 145.435C89.8872 145.296 90.5961 145.327 90.2816 146.441C90.1467 146.919 90.4084 147.222 90.9075 147.383C91.3322 147.52 91.748 147.68 92.2539 147.862Z" fill="black"/>
</svg>
