<!DOCTYPE svg PUBLIC "-//W3C//DTD SVG 1.1//EN" "http://www.w3.org/Graphics/SVG/1.1/DTD/svg11.dtd">

<!-- Uploaded to: SVG Repo, www.svgrepo.com, Transformed by: SVG Repo Mixer Tools -->
<svg fill="#f60505" width="64px" height="64px" viewBox="0 0 24.00 24.00" xmlns="http://www.w3.org/2000/svg" stroke="#000000" stroke-width="0.00024000000000000003" transform="matrix(1, 0, 0, 1, 0, 0)">

<g id="SVGRepo_bgCarrier" stroke-width="0"/>

<g id="SVGRepo_tracerCarrier" stroke-linecap="round" stroke-linejoin="round" stroke="#CCCCCC" stroke-width="0.192"/>

<g id="SVGRepo_iconCarrier"> <path d="M13,13.5 C13,13.7761424 12.7761424,14 12.5,14 C12.2238576,14 12,13.7761424 12,13.5 L12,9.5 C12,9.22385763 12.2238576,9 12.5,9 C12.7761424,9 13,9.22385763 13,9.5 L13,13.5 Z M12,16 L13,16 L13,17 L12,17 L12,16 Z M12.058106,3.26605614 C12.2459104,2.91131462 12.7540896,2.91131462 12.941894,3.26605614 L21.941894,20.2660561 C22.1181882,20.5990564 21.8767875,21 21.5,21 L3.5,21 C3.12321253,21 2.88181181,20.5990564 3.05810604,20.2660561 L12.058106,3.26605614 Z M4.33045247,20 L20.6695475,20 L12.5,4.56863245 L4.33045247,20 Z"/> </g>

</svg>