<svg width="195" height="43" viewBox="0 0 195 43" fill="none" xmlns="http://www.w3.org/2000/svg">
<path d="M1.088 30.77L13.634 13.328H19.142L6.596 30.77H1.088ZM1.088 34V30.77L4.556 29.92H18.87V34H1.088ZM1.802 14.178V10.098H19.142V13.328L15.64 14.178H1.802ZM29.147 34.34C27.4924 34.34 25.9964 33.966 24.659 33.218C23.3444 32.4473 22.2904 31.416 21.497 30.124C20.7264 28.8093 20.341 27.3473 20.341 25.738C20.341 24.1287 20.7264 22.6893 21.497 21.42C22.2677 20.128 23.3217 19.108 24.659 18.36C25.9964 17.5893 27.481 17.204 29.113 17.204C30.7904 17.204 32.2864 17.5893 33.601 18.36C34.9384 19.108 35.9924 20.128 36.763 21.42C37.5337 22.6893 37.919 24.1287 37.919 25.738C37.919 27.3473 37.5337 28.8093 36.763 30.124C35.9924 31.416 34.9384 32.4473 33.601 33.218C32.2864 33.966 30.8017 34.34 29.147 34.34ZM29.113 30.192C29.9517 30.192 30.6884 30.0107 31.323 29.648C31.9804 29.2627 32.479 28.7413 32.819 28.084C33.1817 27.404 33.363 26.6333 33.363 25.772C33.363 24.9107 33.1817 24.1513 32.819 23.494C32.4564 22.8367 31.9577 22.3267 31.323 21.964C30.6884 21.5787 29.9517 21.386 29.113 21.386C28.297 21.386 27.5717 21.5787 26.937 21.964C26.3024 22.3267 25.8037 22.8367 25.441 23.494C25.0784 24.1513 24.897 24.9107 24.897 25.772C24.897 26.6333 25.0784 27.404 25.441 28.084C25.8037 28.7413 26.3024 29.2627 26.937 29.648C27.5717 30.0107 28.297 30.192 29.113 30.192ZM47.7225 34.34C46.2038 34.34 44.8438 33.966 43.6425 33.218C42.4411 32.47 41.4891 31.45 40.7865 30.158C40.1065 28.866 39.7665 27.4153 39.7665 25.806C39.7665 24.174 40.1065 22.712 40.7865 21.42C41.4891 20.128 42.4298 19.108 43.6085 18.36C44.8098 17.612 46.1811 17.238 47.7225 17.238C48.9011 17.238 49.9551 17.476 50.8845 17.952C51.8365 18.428 52.5958 19.0967 53.1625 19.958C53.7518 20.7967 54.0691 21.7487 54.1145 22.814V28.662C54.0691 29.7273 53.7631 30.6907 53.1965 31.552C52.6298 32.4133 51.8705 33.0933 50.9185 33.592C49.9665 34.0907 48.9011 34.34 47.7225 34.34ZM48.4705 30.226C49.3091 30.226 50.0345 30.0447 50.6465 29.682C51.2811 29.2967 51.7685 28.7753 52.1085 28.118C52.4711 27.438 52.6525 26.656 52.6525 25.772C52.6525 24.9107 52.4711 24.1513 52.1085 23.494C51.7685 22.814 51.2811 22.2927 50.6465 21.93C50.0345 21.5447 49.3205 21.352 48.5045 21.352C47.6658 21.352 46.9291 21.5447 46.2945 21.93C45.6825 22.3153 45.1951 22.8367 44.8325 23.494C44.4925 24.1513 44.3225 24.9107 44.3225 25.772C44.3225 26.656 44.4925 27.438 44.8325 28.118C45.1951 28.7753 45.6938 29.2967 46.3285 29.682C46.9631 30.0447 47.6771 30.226 48.4705 30.226ZM56.8345 34H52.4145V29.58L53.1285 25.568L52.3805 21.624V9.418H56.8345V34ZM60.7747 34V17.578H65.2627V34H60.7747ZM63.0187 14.926C62.2934 14.926 61.6927 14.688 61.2167 14.212C60.7407 13.7133 60.5027 13.1013 60.5027 12.376C60.5027 11.6733 60.7407 11.0727 61.2167 10.574C61.6927 10.0753 62.2934 9.826 63.0187 9.826C63.7667 9.826 64.3674 10.0753 64.8207 10.574C65.2967 11.0727 65.5347 11.6733 65.5347 12.376C65.5347 13.1013 65.2967 13.7133 64.8207 14.212C64.3674 14.688 63.7667 14.926 63.0187 14.926ZM76.0763 34.34C74.5803 34.34 73.2317 33.966 72.0303 33.218C70.829 32.47 69.8883 31.45 69.2083 30.158C68.5283 28.866 68.1883 27.4153 68.1883 25.806C68.1883 24.174 68.5283 22.712 69.2083 21.42C69.8883 20.128 70.829 19.108 72.0303 18.36C73.2317 17.612 74.5803 17.238 76.0763 17.238C77.255 17.238 78.309 17.476 79.2383 17.952C80.1677 18.428 80.9043 19.0967 81.4483 19.958C82.015 20.7967 82.321 21.7487 82.3663 22.814V28.73C82.321 29.818 82.015 30.7813 81.4483 31.62C80.9043 32.4587 80.1677 33.1273 79.2383 33.626C78.309 34.102 77.255 34.34 76.0763 34.34ZM76.8923 30.226C78.139 30.226 79.1477 29.818 79.9183 29.002C80.689 28.1633 81.0743 27.0867 81.0743 25.772C81.0743 24.9107 80.893 24.1513 80.5303 23.494C80.1903 22.814 79.703 22.2927 79.0683 21.93C78.4563 21.5447 77.731 21.352 76.8923 21.352C76.0763 21.352 75.351 21.5447 74.7163 21.93C74.1043 22.2927 73.617 22.814 73.2543 23.494C72.9143 24.1513 72.7443 24.9107 72.7443 25.772C72.7443 26.656 72.9143 27.438 73.2543 28.118C73.617 28.7753 74.1043 29.2967 74.7163 29.682C75.351 30.0447 76.0763 30.226 76.8923 30.226ZM80.8363 34V29.58L81.5503 25.568L80.8363 21.624V17.578H85.2563V34H80.8363ZM96.9486 34.34C95.2713 34.34 93.7639 33.966 92.4266 33.218C91.0893 32.47 90.0353 31.45 89.2646 30.158C88.4939 28.866 88.1086 27.4153 88.1086 25.806C88.1086 24.174 88.4939 22.712 89.2646 21.42C90.0353 20.128 91.0893 19.108 92.4266 18.36C93.7866 17.5893 95.2939 17.204 96.9486 17.204C98.2406 17.204 99.4306 17.442 100.519 17.918C101.607 18.394 102.547 19.074 103.341 19.958L100.485 22.848C100.054 22.372 99.5326 22.0093 98.9206 21.76C98.3313 21.5107 97.6739 21.386 96.9486 21.386C96.1326 21.386 95.3959 21.5787 94.7386 21.964C94.1039 22.3267 93.5939 22.8367 93.2086 23.494C92.8459 24.1287 92.6646 24.888 92.6646 25.772C92.6646 26.6333 92.8459 27.404 93.2086 28.084C93.5939 28.7413 94.1039 29.2627 94.7386 29.648C95.3959 30.0107 96.1326 30.192 96.9486 30.192C97.6966 30.192 98.3653 30.0673 98.9546 29.818C99.5666 29.546 100.088 29.1607 100.519 28.662L103.409 31.552C102.57 32.4587 101.607 33.15 100.519 33.626C99.4306 34.102 98.2406 34.34 96.9486 34.34Z" fill="#09818B"/>
<path d="M109.807 25.126V21.352H115.349C116.074 21.352 116.732 21.2047 117.321 20.91C117.91 20.6153 118.375 20.196 118.715 19.652C119.055 19.0853 119.225 18.4053 119.225 17.612C119.225 16.8413 119.055 16.1727 118.715 15.606C118.375 15.0393 117.91 14.6087 117.321 14.314C116.732 14.0193 116.074 13.872 115.349 13.872H109.807V10.098H115.825C117.344 10.098 118.704 10.404 119.905 11.016C121.129 11.628 122.092 12.5007 122.795 13.634C123.498 14.7447 123.849 16.0707 123.849 17.612C123.849 19.1533 123.498 20.4907 122.795 21.624C122.092 22.7347 121.129 23.596 119.905 24.208C118.704 24.82 117.344 25.126 115.825 25.126H109.807ZM106.407 34V10.098H111.031V34H106.407ZM126.882 34V9.418H131.336V34H126.882ZM142.287 34.34C140.836 34.34 139.544 34.034 138.411 33.422C137.3 32.81 136.427 31.96 135.793 30.872C135.158 29.784 134.841 28.526 134.841 27.098V17.578H139.329V26.996C139.329 27.676 139.442 28.2653 139.669 28.764C139.895 29.24 140.235 29.6027 140.689 29.852C141.142 30.1013 141.675 30.226 142.287 30.226C143.216 30.226 143.941 29.9427 144.463 29.376C144.984 28.8093 145.245 28.016 145.245 26.996V17.578H149.699V27.098C149.699 28.5487 149.381 29.818 148.747 30.906C148.135 31.994 147.262 32.844 146.129 33.456C145.018 34.0453 143.737 34.34 142.287 34.34ZM158.889 34.374C157.96 34.374 157.042 34.2493 156.135 34C155.251 33.7507 154.435 33.4107 153.687 32.98C152.939 32.5267 152.293 31.9827 151.749 31.348L154.401 28.662C154.968 29.2967 155.625 29.7727 156.373 30.09C157.121 30.4073 157.949 30.566 158.855 30.566C159.581 30.566 160.125 30.464 160.487 30.26C160.873 30.056 161.065 29.75 161.065 29.342C161.065 28.8887 160.861 28.5373 160.453 28.288C160.068 28.0387 159.558 27.8347 158.923 27.676C158.289 27.4947 157.62 27.302 156.917 27.098C156.237 26.8713 155.58 26.588 154.945 26.248C154.311 25.8853 153.789 25.398 153.381 24.786C152.996 24.1513 152.803 23.3353 152.803 22.338C152.803 21.2953 153.053 20.3887 153.551 19.618C154.073 18.8473 154.809 18.2467 155.761 17.816C156.713 17.3853 157.835 17.17 159.127 17.17C160.487 17.17 161.711 17.408 162.799 17.884C163.91 18.36 164.828 19.074 165.553 20.026L162.867 22.712C162.369 22.1 161.802 21.658 161.167 21.386C160.555 21.114 159.887 20.978 159.161 20.978C158.504 20.978 157.994 21.08 157.631 21.284C157.291 21.488 157.121 21.7713 157.121 22.134C157.121 22.542 157.314 22.8593 157.699 23.086C158.107 23.3127 158.629 23.5167 159.263 23.698C159.898 23.8567 160.555 24.0493 161.235 24.276C161.938 24.48 162.595 24.7747 163.207 25.16C163.842 25.5453 164.352 26.0553 164.737 26.69C165.145 27.3247 165.349 28.1407 165.349 29.138C165.349 30.7473 164.771 32.028 163.615 32.98C162.459 33.9093 160.884 34.374 158.889 34.374ZM173.997 34.374C173.068 34.374 172.15 34.2493 171.243 34C170.359 33.7507 169.543 33.4107 168.795 32.98C168.047 32.5267 167.401 31.9827 166.857 31.348L169.509 28.662C170.076 29.2967 170.733 29.7727 171.481 30.09C172.229 30.4073 173.056 30.566 173.963 30.566C174.688 30.566 175.232 30.464 175.595 30.26C175.98 30.056 176.173 29.75 176.173 29.342C176.173 28.8887 175.969 28.5373 175.561 28.288C175.176 28.0387 174.666 27.8347 174.031 27.676C173.396 27.4947 172.728 27.302 172.025 27.098C171.345 26.8713 170.688 26.588 170.053 26.248C169.418 25.8853 168.897 25.398 168.489 24.786C168.104 24.1513 167.911 23.3353 167.911 22.338C167.911 21.2953 168.16 20.3887 168.659 19.618C169.18 18.8473 169.917 18.2467 170.869 17.816C171.821 17.3853 172.943 17.17 174.235 17.17C175.595 17.17 176.819 17.408 177.907 17.884C179.018 18.36 179.936 19.074 180.661 20.026L177.975 22.712C177.476 22.1 176.91 21.658 176.275 21.386C175.663 21.114 174.994 20.978 174.269 20.978C173.612 20.978 173.102 21.08 172.739 21.284C172.399 21.488 172.229 21.7713 172.229 22.134C172.229 22.542 172.422 22.8593 172.807 23.086C173.215 23.3127 173.736 23.5167 174.371 23.698C175.006 23.8567 175.663 24.0493 176.343 24.276C177.046 24.48 177.703 24.7747 178.315 25.16C178.95 25.5453 179.46 26.0553 179.845 26.69C180.253 27.3247 180.457 28.1407 180.457 29.138C180.457 30.7473 179.879 32.028 178.723 32.98C177.567 33.9093 175.992 34.374 173.997 34.374Z" fill="black"/>
<path d="M186.039 6.09778C186.039 6.09778 182.636 6.68376 181.229 9.05958C179.821 11.4354 180.942 14.7013 180.942 14.7013C180.942 14.7013 184.345 14.1153 185.752 11.7395C187.16 9.3637 186.039 6.09778 186.039 6.09778Z" fill="#09818B"/>
<path d="M179.259 12.8898C179.189 12.1406 179.203 11.4217 179.3 10.7531C179.427 9.87545 179.698 9.08092 180.107 8.39163C180.378 7.93339 180.72 7.50612 181.126 7.11426C179.98 5.75281 178.463 5.01047 178.463 5.01047C178.463 5.01047 176.471 7.83096 177.156 10.5062C177.505 11.8704 178.482 12.9331 179.357 13.6473C179.319 13.414 179.284 13.1599 179.259 12.8898Z" fill="#09818B"/>
<path d="M177.813 14.013C176.829 13.0365 176.183 11.9661 175.893 10.8317C175.761 10.3157 175.7 9.77196 175.71 9.20748C173.937 9.05542 172.339 9.60332 172.339 9.60332C172.339 9.60332 172.925 13.0061 175.301 14.4136C176.513 15.1314 177.955 15.1916 179.079 15.0782C178.681 14.7933 178.241 14.4383 177.813 14.013Z" fill="#09818B"/>
<path d="M190.63 12.2215C190.63 12.2215 189.25 11.2475 187.505 10.8961C187.357 11.4408 187.146 11.9458 186.875 12.404C186.466 13.0933 185.9 13.7132 185.191 14.2464C184.652 14.6527 184.028 15.01 183.337 15.3084C183.088 15.416 182.849 15.5081 182.626 15.5866C183.672 16.0103 185.074 16.3572 186.438 16.0081C189.113 15.3234 190.63 12.2215 190.63 12.2215Z" fill="#09818B"/>
<path d="M188.274 16.6508C187.784 16.931 187.278 17.1391 186.762 17.2712C185.627 17.5616 184.378 17.5091 183.049 17.1154C182.47 16.944 181.948 16.7285 181.507 16.5169C181.947 17.5566 182.693 18.7931 183.904 19.5109C186.28 20.9184 189.546 19.7975 189.546 19.7975C189.546 19.7975 189.259 18.133 188.274 16.6508Z" fill="#09818B"/>
</svg>
