<svg width="17" height="17" viewBox="0 0 17 17" fill="none" xmlns="http://www.w3.org/2000/svg">
<path fill-rule="evenodd" clip-rule="evenodd" d="M4.76266 2.5708C5.28459 2.22717 5.90225 1.96896 6.62394 1.80881C6.61544 1.74656 6.61109 1.68324 6.61109 1.61905C6.61109 0.724872 7.45684 0 8.49998 0C9.54321 0 10.3889 0.724872 10.3889 1.61905C10.3889 1.68324 10.3845 1.74656 10.376 1.80881C11.0978 1.96896 11.7154 2.22717 12.2373 2.5708C13.1589 3.17753 13.6926 3.99172 14.0084 4.80341C14.3219 5.60912 14.435 6.44863 14.4902 7.15579C14.5126 7.44284 14.5261 7.71889 14.538 7.96223L14.5461 8.1264C14.5609 8.41856 14.5756 8.63632 14.6007 8.79734C14.7855 9.98062 15.0149 10.8106 15.3413 11.4743C15.6604 12.1229 16.0881 12.6449 16.7233 13.1895C16.9934 13.421 17.0743 13.7692 16.9281 14.0717C16.7819 14.3742 16.4375 14.5714 16.0555 14.5714H10.1362C10.2969 14.8096 10.3889 15.086 10.3889 15.381C10.3889 16.2752 9.54321 17 8.49998 17C7.45684 17 6.61109 16.2752 6.61109 15.381C6.61109 15.086 6.70308 14.8096 6.86383 14.5714H0.944471C0.562482 14.5714 0.2181 14.3742 0.0719196 14.0717C-0.0742611 13.7692 0.00653602 13.421 0.276646 13.1895C0.913219 12.6439 1.33979 12.1256 1.658 11.4798C1.98371 10.8186 2.21321 9.98912 2.39929 8.79734C2.42444 8.63632 2.43907 8.41856 2.45391 8.1264L2.46204 7.96223C2.47392 7.71889 2.48739 7.44284 2.5098 7.15579C2.56501 6.44863 2.67807 5.60912 2.99158 4.80341C3.3074 3.99172 3.84109 3.17753 4.76266 2.5708ZM2.8982 12.9524C3.08424 12.6886 3.25015 12.4098 3.39807 12.1097C3.81823 11.2569 4.07585 10.265 4.27148 9.01219C4.30954 8.76844 4.32661 8.48025 4.34101 8.19683L4.34967 8.02198C4.36151 7.77993 4.3738 7.52873 4.39447 7.26386C4.44591 6.6049 4.54571 5.9266 4.78343 5.31564C5.01883 4.71066 5.37472 4.20937 5.91327 3.85479C6.44565 3.50429 7.24604 3.2381 8.49998 3.2381C9.75401 3.2381 10.5543 3.50429 11.0867 3.85479C11.6253 4.20937 11.9812 4.71066 12.2165 5.31564C12.4543 5.9266 12.5541 6.6049 12.6056 7.26386C12.6262 7.52873 12.6385 7.77993 12.6503 8.02198L12.659 8.19683C12.6734 8.48025 12.6905 8.76844 12.7285 9.01219C12.923 10.2575 13.1806 11.2489 13.6007 12.1031C13.7495 12.4055 13.9163 12.6864 14.1037 12.9524H2.8982Z" fill="#017D88" stroke="#017D88" stroke-width="0.5"/>
</svg>

