<svg width="20" height="20" viewBox="0 0 20 20" fill="none" xmlns="http://www.w3.org/2000/svg">
<path d="M8.3333 7.5C8.79355 7.5 9.16663 7.87309 9.16663 8.33333C9.16663 8.7936 8.79355 9.16668 8.3333 9.16668C7.87309 9.16668 7.5 8.7936 7.5 8.33333C7.5 7.87309 7.87309 7.5 8.3333 7.5Z" fill="#09818B"/>
<path d="M10.832 11.6654C10.832 12.1256 11.2052 12.4987 11.6654 12.4987C12.1256 12.4987 12.4987 12.1256 12.4987 11.6654C12.4987 11.2051 12.1256 10.832 11.6654 10.832C11.2052 10.832 10.832 11.2051 10.832 11.6654Z" fill="#09818B"/>
<path d="M8.92255 12.2559L12.2559 8.9226C12.5814 8.59718 12.5814 8.06952 12.2559 7.74408C11.9305 7.41864 11.4029 7.41864 11.0774 7.74408L7.74408 11.0774C7.41864 11.4029 7.41864 11.9305 7.74408 12.2559C8.06952 12.5814 8.59713 12.5814 8.92255 12.2559Z" fill="#09818B"/>
<path fill-rule="evenodd" clip-rule="evenodd" d="M13.5926 3.39244L12.6418 3.62042L12.1308 2.78694C11.1553 1.19602 8.84376 1.19602 7.8683 2.78694L7.35723 3.62042L6.40648 3.39244C4.59175 2.95727 2.95727 4.59175 3.39244 6.40648L3.62042 7.35723L2.78694 7.8683C1.19602 8.84381 1.19602 11.1553 2.78694 12.1308L3.62042 12.6419L3.39244 13.5926C2.95727 15.4073 4.59175 17.0418 6.40648 16.6066L7.35723 16.3786L7.8683 17.2121C8.84376 18.8031 11.1553 18.8031 12.1308 17.2121L12.6418 16.3786L13.5926 16.6066C15.4073 17.0418 17.0418 15.4073 16.6067 13.5926L16.3787 12.6419L17.2122 12.1308C18.8031 11.1553 18.8031 8.84381 17.2122 7.8683L16.3787 7.35723L16.6067 6.40648C17.0418 4.59175 15.4073 2.95727 13.5926 3.39244ZM9.2891 3.65815C9.61426 3.12784 10.3848 3.12784 10.7099 3.65815L11.5373 5.00749C11.7259 5.31512 12.0912 5.46639 12.4421 5.38225L13.9813 5.01315C14.5862 4.8681 15.131 5.41293 14.9859 6.01784L14.6168 7.55701C14.5327 7.90792 14.6839 8.27312 14.9916 8.46173L16.3409 9.28915C16.8713 9.61431 16.8713 10.3848 16.3409 10.71L14.9916 11.5373C14.6839 11.726 14.5327 12.0911 14.6168 12.4421L14.9859 13.9812C15.131 14.5861 14.5862 15.131 13.9813 14.9859L12.4421 14.6168C12.0912 14.5327 11.7259 14.684 11.5373 14.9916L10.7099 16.341C10.3848 16.8712 9.61426 16.8712 9.2891 16.341L8.46176 14.9916C8.27312 14.684 7.90792 14.5327 7.55701 14.6168L6.01784 14.9859C5.41293 15.131 4.8681 14.5861 5.01315 13.9812L5.38225 12.4421C5.4664 12.0911 5.31512 11.726 5.00749 11.5373L3.65815 10.71C3.12784 10.3848 3.12784 9.61431 3.65815 9.28915L5.00749 8.46173C5.31512 8.27312 5.4664 7.90792 5.38225 7.55701L5.01315 6.01784C4.8681 5.41293 5.41293 4.8681 6.01784 5.01315L7.55701 5.38225C7.90792 5.46639 8.27312 5.31512 8.46176 5.00749L9.2891 3.65815Z" fill="#09818B"/>
</svg>
