<svg width="22" height="26" viewBox="0 0 22 26" fill="none" xmlns="http://www.w3.org/2000/svg">
<g clip-path="url(#clip0_812_3073)">
<path d="M16.6334 3.71075C16.042 3.22091 15.4355 3.02845 14.8288 3.1387C13.8801 3.31108 13.282 4.16123 13.1217 4.41749C12.8955 4.77783 5.20321 17.1774 5.20321 17.1774C5.15279 17.2587 5.12124 17.3548 5.11152 17.455C5.02323 18.3876 4.51287 22.5469 4.5077 22.5891C4.4812 22.8021 4.55736 23.0154 4.70359 23.1422C4.80883 23.2329 4.93786 23.2684 5.06224 23.2458C5.11142 23.2369 5.15944 23.219 5.20528 23.1918C5.23806 23.1721 8.5355 21.2164 9.08054 20.9109C9.15224 20.8704 9.21504 20.8098 9.26233 20.7342C9.56835 20.2472 16.7578 8.79775 17.2312 8.00859C17.7212 7.19411 17.9145 6.40264 17.8061 5.65856C17.6983 4.92351 17.3038 4.2686 16.6325 3.71148L16.6334 3.71075ZM13.2033 6.2323C13.453 6.2573 14.0508 6.37981 14.7211 6.9663C15.3985 7.55894 15.6609 8.3294 15.7144 8.50619C14.1393 11.0305 10.51 16.8133 9.07923 19.0923C8.86787 18.6919 8.54854 18.2207 8.0805 17.812C7.50918 17.3128 6.96225 17.0718 6.54962 16.9551C7.9627 14.6776 11.6532 8.72921 13.2029 6.23294L13.2033 6.2323ZM6.03053 18.0146C6.30126 18.0489 6.87169 18.1879 7.50692 18.743C7.99639 19.1712 8.26886 19.6915 8.40292 20.015C7.77806 20.3843 6.41483 21.2327 5.54604 21.7476C5.67989 20.6443 5.9242 18.9201 6.03053 18.0146ZM16.4415 7.33395C16.4252 7.36095 16.398 7.4048 16.3656 7.45759C16.157 7.02979 15.8189 6.49278 15.2941 6.03434C14.7582 5.56587 14.2453 5.32553 13.8433 5.2012C13.8705 5.15791 13.8913 5.12382 13.8998 5.11083C13.9455 5.03788 14.3646 4.3936 14.9766 4.2824C15.3289 4.21838 15.6998 4.34551 16.0786 4.66C16.528 5.03318 16.7874 5.43459 16.8487 5.85368C16.9112 6.28172 16.7736 6.77986 16.441 7.33404L16.4415 7.33395Z" fill="#0F4249"/>
</g>
<defs>
<clipPath id="clip0_812_3073">
<rect width="19.3805" height="22.7251" fill="white" transform="matrix(0.98389 -0.178777 0.129009 0.991643 0 3.46484)"/>
</clipPath>
</defs>
</svg>
