<svg width="17" height="17" viewBox="0 0 17 17" fill="none" xmlns="http://www.w3.org/2000/svg">
<path fill-rule="evenodd" clip-rule="evenodd" d="M13.4867 14.6571H2.79966C2.22445 14.6571 1.7997 14.0896 2.01665 13.5676C3.02325 11.1541 5.38808 9.77142 8.14274 9.77142C10.8982 9.77142 13.2631 11.1541 14.2697 13.5676C14.4866 14.0896 14.0619 14.6571 13.4867 14.6571ZM4.81786 4.88571C4.81786 3.08939 6.3099 1.62856 8.14274 1.62856C9.97641 1.62856 11.4676 3.08939 11.4676 4.88571C11.4676 6.68202 9.97641 8.14285 8.14274 8.14285C6.3099 8.14285 4.81786 6.68202 4.81786 4.88571ZM16.2496 14.3607C15.6453 11.6255 13.7551 9.60692 11.2673 8.69084C12.5856 7.651 13.3545 5.96948 13.0719 4.12838C12.7444 1.9925 10.9307 0.283353 8.74122 0.0341812C5.71891 -0.310262 3.15542 1.99417 3.15542 4.88571C3.15542 6.42471 3.88357 7.79594 5.01902 8.69084C2.53034 9.60692 0.640977 11.6255 0.0358481 14.3607C-0.183594 15.355 0.634328 16.2857 1.67252 16.2857H14.613C15.652 16.2857 16.4699 15.355 16.2496 14.3607Z" fill="#328286"/>
</svg>
