<svg width="9" height="15" viewBox="0 0 9 15" fill="none" xmlns="http://www.w3.org/2000/svg">
<path d="M3.57995 10.0805L3.55995 6.28047L4.09995 6.26047C4.56662 6.26047 4.97328 6.16047 5.31995 5.96047C5.67995 5.76047 5.95995 5.48714 6.15995 5.14047C6.35995 4.7938 6.45995 4.40713 6.45995 3.98047C6.45995 3.54047 6.35995 3.1538 6.15995 2.82047C5.97328 2.48713 5.69995 2.22713 5.33995 2.04047C4.99328 1.8538 4.57995 1.76047 4.09995 1.76047C3.45995 1.76047 2.90662 1.92047 2.43995 2.24047C1.97328 2.56047 1.59995 3.0138 1.31995 3.60047L-4.87715e-05 2.50047C0.386618 1.7138 0.939951 1.10047 1.65995 0.660468C2.39328 0.220468 3.23328 0.000468016 4.17995 0.000468016C4.99328 0.000468016 5.71328 0.167135 6.33995 0.500468C6.96662 0.820468 7.45328 1.2738 7.79995 1.86047C8.14662 2.4338 8.31995 3.10047 8.31995 3.86047C8.31995 4.5538 8.15995 5.18713 7.83995 5.76047C7.53328 6.32047 7.09328 6.78713 6.51995 7.16047C5.95995 7.52047 5.29328 7.7538 4.51995 7.86047L5.29995 7.06047L5.13995 10.0805H3.57995ZM4.33995 14.6805C3.96662 14.6805 3.65328 14.5538 3.39995 14.3005C3.15995 14.0471 3.03995 13.7338 3.03995 13.3605C3.03995 12.9871 3.15995 12.6805 3.39995 12.4405C3.65328 12.1871 3.96662 12.0605 4.33995 12.0605C4.71328 12.0605 5.01995 12.1871 5.25995 12.4405C5.51328 12.6805 5.63995 12.9871 5.63995 13.3605C5.63995 13.7338 5.51328 14.0471 5.25995 14.3005C5.01995 14.5538 4.71328 14.6805 4.33995 14.6805Z" fill="#017D88"/>
</svg>
