<svg width="14" height="14" viewBox="0 0 14 14" fill="none" xmlns="http://www.w3.org/2000/svg">
<path d="M5.46187 7.69355L11.9846 1.17324M5.64728 7.98678L7.12631 10.9449C7.48375 11.6597 7.66244 12.0172 7.88758 12.113C8.08298 12.1962 8.30632 12.1811 8.48881 12.0725C8.69904 11.9473 8.82815 11.5691 9.08643 10.8127L11.881 2.62866C12.106 1.96964 12.2185 1.64012 12.1415 1.42214C12.0745 1.23251 11.9254 1.08334 11.7358 1.01635C11.5177 0.939334 11.1882 1.05185 10.5292 1.27688L2.34511 4.07145C1.58877 4.32972 1.21059 4.45885 1.0854 4.66909C0.976757 4.85154 0.961703 5.07489 1.04488 5.27024C1.14072 5.49538 1.49815 5.67413 2.213 6.03151L5.17109 7.51061C5.2889 7.5695 5.3478 7.59892 5.39878 7.63825C5.4441 7.67319 5.4847 7.71379 5.51957 7.75904C5.55897 7.81008 5.58838 7.86898 5.64728 7.98678Z" stroke="white" stroke-width="1.98333" stroke-linecap="round" stroke-linejoin="round"/>
</svg>
