<svg width="64" height="64" viewBox="0 0 64 64" fill="none" xmlns="http://www.w3.org/2000/svg">
<path d="M33.7098 55.153C38.7727 52.5149 53.3327 43.8946 53.3327 31.9984V21.9119C53.3327 19.7799 53.3327 18.7139 52.9839 17.7976C52.6759 16.988 52.1754 16.2658 51.5255 15.6931C50.79 15.0449 49.792 14.6706 47.7958 13.922L47.7956 13.9219L33.4975 8.56015L33.4962 8.55968C32.9427 8.3521 32.6658 8.24828 32.3807 8.20709C32.1279 8.17055 31.8708 8.17055 31.618 8.20709C31.3329 8.24828 31.056 8.3521 30.5025 8.55968L30.5012 8.56015L16.2031 13.9219L16.2029 13.922C14.2067 14.6706 13.2087 15.0449 12.4731 15.6931C11.8233 16.2658 11.3227 16.988 11.0147 17.7976C10.666 18.7139 10.666 19.7799 10.666 21.9119V31.9984C10.666 43.8946 25.2259 52.5149 30.2889 55.153C30.8364 55.4384 31.1103 55.581 31.49 55.6549C31.786 55.7125 32.2127 55.7125 32.5087 55.6549C32.8884 55.581 33.1623 55.4384 33.7098 55.153Z" fill="#55A5A9"/>
<path d="M23.9993 31.9984L29.3327 37.3317L39.9993 26.665M53.3327 31.9984C53.3327 43.8946 38.7727 52.5149 33.7098 55.153C33.1623 55.4384 32.8884 55.581 32.5087 55.6549C32.2127 55.7125 31.786 55.7125 31.49 55.6549C31.1103 55.581 30.8364 55.4384 30.2889 55.153C25.2259 52.5149 10.666 43.8946 10.666 31.9984V21.9119C10.666 19.7799 10.666 18.7139 11.0147 17.7976C11.3227 16.988 11.8233 16.2658 12.4731 15.6931C13.2087 15.0448 14.2068 14.6706 16.2031 13.9219L30.5012 8.56015C31.0556 8.35226 31.3327 8.24831 31.618 8.20709C31.8708 8.17055 32.1279 8.17055 32.3807 8.20709C32.666 8.24831 32.9431 8.35226 33.4975 8.56015L47.7956 13.9219C49.7919 14.6706 50.79 15.0448 51.5255 15.6931C52.1754 16.2658 52.6759 16.988 52.9839 17.7976C53.3327 18.7139 53.3327 19.7799 53.3327 21.9119V31.9984Z" stroke="url(#paint0_linear_1_31216)" stroke-width="5.33333" stroke-linecap="round" stroke-linejoin="round"/>
<defs>
<linearGradient id="paint0_linear_1_31216" x1="31.9993" y1="8.17969" x2="31.9993" y2="55.6981" gradientUnits="userSpaceOnUse">
<stop offset="0.293269" stop-color="#E8EBE4"/>
<stop offset="1" stop-color="#007D88" stop-opacity="0.7"/>
</linearGradient>
</defs>
</svg>
