<svg width="16" height="13" viewBox="0 0 16 13" fill="none" xmlns="http://www.w3.org/2000/svg">
<path d="M14.6896 5.30947C14.9799 5.30947 15.2206 5.06877 15.2206 4.77852V4.07059C15.2206 0.948625 14.272 0 11.15 0H6.72545V1.59284C6.72545 1.88309 6.48475 2.12379 6.1945 2.12379C5.90425 2.12379 5.66355 1.88309 5.66355 1.59284V0H4.07071C0.948747 0 0.00012207 0.948625 0.00012207 4.07059V4.42455C0.00012207 4.71481 0.240818 4.9555 0.531069 4.9555C1.21068 4.9555 1.76994 5.51477 1.76994 6.19438C1.76994 6.87399 1.21068 7.43325 0.531069 7.43325C0.240818 7.43325 0.00012207 7.67395 0.00012207 7.9642V8.31816C0.00012207 11.4401 0.948747 12.3888 4.07071 12.3888H5.66355V10.7959C5.66355 10.5057 5.90425 10.265 6.1945 10.265C6.48475 10.265 6.72545 10.5057 6.72545 10.7959V12.3888H11.15C14.272 12.3888 15.2206 11.4401 15.2206 8.31816C15.2206 8.02791 14.9799 7.78722 14.6896 7.78722C14.01 7.78722 13.4508 7.22795 13.4508 6.54834C13.4508 5.86873 14.01 5.30947 14.6896 5.30947ZM6.72545 7.73058C6.72545 8.02083 6.48475 8.26153 6.1945 8.26153C5.90425 8.26153 5.66355 8.02083 5.66355 7.73058V4.65817C5.66355 4.36792 5.90425 4.12722 6.1945 4.12722C6.48475 4.12722 6.72545 4.36792 6.72545 4.65817V7.73058Z" fill="#005E66" stroke="black" stroke-width="0.000354369"/>
</svg>
