<svg width="66" height="65" viewBox="0 0 66 65" fill="none" xmlns="http://www.w3.org/2000/svg">
<path d="M32.6979 64.5C14.6608 64.5 0 50.04 0 32.25C0 14.46 14.6608 0 32.6979 0C50.735 0 65.3958 14.46 65.3958 32.25C65.3958 50.04 50.735 64.5 32.6979 64.5ZM32.6979 4.5C17.1854 4.5 4.5625 16.95 4.5625 32.25C4.5625 47.55 17.1854 60 32.6979 60C48.2104 60 60.8333 47.55 60.8333 32.25C60.8333 16.95 48.2104 4.5 32.6979 4.5Z" fill="#22C55E"/>
<ellipse cx="32.5" cy="32" rx="28.5" ry="29" fill="#22C55E"/>
<path d="M29.8817 42.5025C29.2734 42.5025 28.6955 42.2625 28.2696 41.8425L19.6616 33.3525C18.7795 32.4825 18.7795 31.0425 19.6616 30.1725C20.5436 29.3025 22.0036 29.3025 22.8857 30.1725L29.8817 37.0725L45.5159 21.6525C46.398 20.7825 47.858 20.7825 48.74 21.6525C49.6221 22.5225 49.6221 23.9625 48.74 24.8325L31.4938 41.8425C31.068 42.2625 30.49 42.5025 29.8817 42.5025Z" fill="#F6F6F6"/>
</svg>
