<svg width="14" height="12" viewBox="0 0 14 12" fill="none" xmlns="http://www.w3.org/2000/svg">
<path fill-rule="evenodd" clip-rule="evenodd" d="M8.68816 3.66393H11.5132C11.73 3.66393 11.9057 3.48819 11.9057 3.27142C11.9057 3.05464 11.73 2.87891 11.5132 2.87891H8.4057C8.45296 3.1607 8.5503 3.42553 8.68816 3.66393ZM6.98277 3.66393C6.90372 3.41224 6.84931 3.14961 6.82247 2.87891H0.522883C0.306107 2.87891 0.130371 3.05464 0.130371 3.27142C0.130371 3.48819 0.306107 3.66393 0.522883 3.66393H6.98277ZM0.522883 6.80403C0.306107 6.80403 0.130371 6.97979 0.130371 7.19654C0.130371 7.41328 0.306107 7.58905 0.522883 7.58905H11.5132C11.73 7.58905 11.9057 7.41328 11.9057 7.19654C11.9057 6.97979 11.73 6.80403 11.5132 6.80403H0.522883ZM0.522883 10.7291C0.306107 10.7291 0.130371 10.9049 0.130371 11.1217C0.130371 11.3384 0.306107 11.5142 0.522883 11.5142H11.5132C11.73 11.5142 11.9057 11.3384 11.9057 11.1217C11.9057 10.9049 11.73 10.7291 11.5132 10.7291H0.522883Z" fill="#017D88" stroke="black" stroke-width="0.26087"/>
<path d="M10.7281 4.841C12.0288 4.841 13.0832 3.7866 13.0832 2.48593C13.0832 1.18526 12.0288 0.130859 10.7281 0.130859C9.42745 0.130859 8.37305 1.18526 8.37305 2.48593C8.37305 3.7866 9.42745 4.841 10.7281 4.841Z" fill="#017D88" stroke="black" stroke-width="0.26087"/>
</svg>
