<svg width="17" height="17" viewBox="0 0 17 17" fill="none" xmlns="http://www.w3.org/2000/svg">
<g clip-path="url(#clip0_740_2796)">
<path d="M5.98008 1.94727H11.9248C12.8863 1.94727 13.7815 2.49534 14.1658 3.37633C14.2897 3.66055 14.3606 3.97133 14.3676 4.2945C14.3738 4.62742 14.3119 4.94971 14.1923 5.24544C13.8222 6.16185 12.9067 6.73914 11.9195 6.73914H8.49998L12.4445 8.93055C13.1033 9.29622 13.6549 9.83898 13.9931 10.5128C14.4659 11.4549 14.5075 12.5227 14.0746 13.3886C13.839 13.8597 13.4982 14.2014 13.1475 14.4476C12.5729 14.8513 11.8796 15.0505 11.1775 15.0505H5.05305C4.8804 15.0505 4.70862 15.0382 4.53951 15.0018C3.46107 14.7672 2.65534 13.8154 2.63232 12.7042C2.6093 11.5602 3.42123 10.5571 4.52889 10.3109C4.70154 10.272 4.87951 10.2596 5.05659 10.2596H8.49909L4.38987 7.98669C3.74352 7.62898 3.21316 7.08357 2.9068 6.41065C2.72441 6.00956 2.59956 5.52789 2.63144 4.97893C2.66685 4.36622 2.88998 3.78273 3.25477 3.28867C3.88873 2.4307 4.91227 1.94727 5.9792 1.94727H5.98008Z" stroke="#328286" stroke-width="1.5" stroke-linecap="round" stroke-linejoin="round"/>
<path d="M8.5 6.74023V10.2607" stroke="#328286" stroke-width="1.5" stroke-miterlimit="10"/>
</g>
<defs>
<clipPath id="clip0_740_2796">
<rect width="17" height="17" fill="white"/>
</clipPath>
</defs>
</svg>
