<svg width="24" height="19" viewBox="0 0 24 19" fill="none" xmlns="http://www.w3.org/2000/svg">
<path d="M17.3111 7.5998C18.3908 7.61019 19.4233 8.03146 20.1868 8.77314C20.9503 9.51481 21.384 10.5178 21.3947 11.5666C21.4084 12.6021 20.9652 13.5916 20.2444 14.3266C19.4668 15.1195 18.417 15.5197 17.3111 15.5335C15.6923 15.5537 15.6903 17.9942 17.3111 17.9739C20.9345 17.9286 23.8603 15.0864 23.9069 11.5666C23.9535 8.04649 20.8643 5.20366 17.3111 5.15932C15.6903 5.13908 15.6923 7.57958 17.3111 7.5998ZM6.59632 15.5189C5.51661 15.5085 4.48415 15.0872 3.72064 14.3455C2.95713 13.6039 2.52346 12.6009 2.51275 11.552C2.49905 10.5165 2.94213 9.52703 3.66302 8.79191C4.44058 7.99904 5.49039 7.59897 6.5963 7.58513C8.21509 7.56491 8.21708 5.12439 6.5963 5.14466C2.97287 5.1899 0.0470896 8.03206 0.000519815 11.552C-0.04605 15.0721 3.04313 17.915 6.59632 17.9594C8.2171 17.9796 8.21511 15.5391 6.59632 15.5189Z" fill="#0C6268"/>
<path d="M7.88809 6.40776C7.89875 5.35891 8.33239 4.35595 9.09589 3.61426C9.85939 2.87258 10.8918 2.45132 11.9715 2.44096C13.0375 2.42765 14.0561 2.85812 14.8127 3.55838C15.6289 4.31373 16.0408 5.33348 16.0551 6.40776C16.0759 7.98028 18.5882 7.98224 18.5674 6.40776C18.5208 2.88793 15.5949 0.0457442 11.9715 0.000504978C8.34793 -0.0447343 5.42153 2.95609 5.37586 6.40776C5.35497 7.98224 7.86728 7.98028 7.88809 6.40776Z" fill="#0F4249"/>
<path d="M12.7625 8.45794C13.1551 8.83936 13.1551 9.45763 12.7625 9.83901L9.84556 12.6727C9.45292 13.054 8.81644 13.054 8.42387 12.6727C8.03123 12.2912 8.03123 11.6729 8.42387 11.2915L11.3408 8.45794C11.7333 8.07652 12.3699 8.07652 12.7625 8.45794Z" fill="#0F4249"/>
<path d="M11.3412 8.45789C11.7337 8.07654 12.3702 8.07654 12.7628 8.45789L15.6798 11.2916C16.0724 11.6728 16.0724 12.2912 15.6798 12.6727C15.2872 13.054 14.6506 13.054 14.2581 12.6727L11.3412 9.83907C10.9484 9.45763 10.9484 8.83931 11.3412 8.45789Z" fill="#0F4249"/>
<path d="M12.0266 12.1699C12.5956 12.1699 13.0568 12.618 13.0568 13.1706V17.2769C13.0568 17.8295 12.5956 18.2775 12.0266 18.2775C11.4578 18.2775 10.9966 17.8295 10.9966 17.2769V13.1706C10.9966 12.618 11.4578 12.1699 12.0266 12.1699Z" fill="#0F4249"/>
</svg>
