<svg width="80" height="70" viewBox="0 0 80 70" fill="none" xmlns="http://www.w3.org/2000/svg">
<path d="M56.9785 38.3518C61.7429 38.3518 65.6053 42.2141 65.6053 46.9785M66.7419 56.7352L74.232 64.232M70.7813 46.9785C70.7813 54.6016 64.6016 60.7813 56.9785 60.7813C49.3555 60.7813 43.1758 54.6016 43.1758 46.9785C43.1758 39.3555 49.3555 33.1758 56.9785 33.1758C64.6016 33.1758 70.7813 39.3555 70.7813 46.9785Z" stroke="#07808B" stroke-width="2.5" stroke-linecap="round" stroke-linejoin="round"/>
<path d="M58.0948 11.2391L48.3162 1.40995C47.4055 0.499218 46.1945 0 44.9094 0H16.4776C12.6457 0 9.52899 3.11674 9.52899 6.9452V20.4983C9.52899 21.1594 10.0619 21.689 10.7197 21.689C11.3774 21.689 11.9104 21.1594 11.9104 20.4983V6.9452C11.9104 4.4255 13.9612 2.37803 16.4776 2.37803H44.9094C45.5604 2.37803 46.1642 2.63101 46.6263 3.08975L56.4082 12.9156C56.8602 13.3743 57.1166 13.9848 57.1166 14.6291V62.0514C57.1166 64.5745 55.0691 66.6186 52.5494 66.6186H16.4776C13.9612 66.6186 11.9104 64.5745 11.9104 62.0514V48.5051C11.9104 47.8541 11.3774 47.3178 10.7197 47.3178C10.0619 47.3178 9.52899 47.8541 9.52899 48.5051V62.0514C9.52899 65.8833 12.6457 69 16.4776 69H52.5494C56.3813 69 59.4912 65.8833 59.4912 62.0514V14.6291C59.4912 13.3541 58.9988 12.1431 58.0948 11.2391ZM16.0795 32.547C16.5349 32.0747 16.5248 31.3225 16.0559 30.8672C15.5803 30.4118 14.8281 30.4287 14.3694 30.8975L9.79884 35.6435L6.97893 33.2553C6.47971 32.8337 5.73089 32.8944 5.3025 33.3936C4.88087 33.8928 4.94158 34.6484 5.44755 35.0667L9.11073 38.1834C9.33335 38.3757 9.60657 38.4668 9.87642 38.4668C10.1901 38.4668 10.5038 38.342 10.7332 38.1025L16.0795 32.547ZM2.3814 34.5034C2.3814 29.9025 6.12216 26.1583 10.7197 26.1583C15.3206 26.1583 19.058 29.9025 19.058 34.5034C19.058 39.0942 15.3206 42.8383 10.7197 42.8383C6.12216 42.8383 2.3814 39.0942 2.3814 34.5034ZM21.436 34.5034C21.436 28.5903 16.6327 23.7803 10.7197 23.7803C4.80666 23.7803 0 28.5903 0 34.5034C0 40.4063 4.80666 45.2163 10.7197 45.2163C16.6327 45.2163 21.436 40.4063 21.436 34.5034ZM45.0679 4.22986C44.4101 4.22986 43.8772 4.75944 43.8772 5.42056V14.4672C43.8772 15.125 44.4101 15.6579 45.0679 15.6579H53.73C54.381 15.6579 54.9173 15.125 54.9173 14.4672C54.9173 13.8094 54.381 13.2799 53.73 13.2799H46.2586V5.42056C46.2586 4.75944 45.7257 4.22986 45.0679 4.22986Z" fill="black"/>
</svg>
