<svg width="13" height="18" viewBox="0 0 13 18" fill="none" xmlns="http://www.w3.org/2000/svg">
<path d="M6.50007 11.1428C8.04155 11.1428 9.28575 9.89853 9.28575 8.35716V2.78572C9.28575 1.24428 8.04155 0 6.50007 0C4.9586 0 3.71436 1.24428 3.71436 2.78572V8.35716C3.71436 9.89853 4.9586 11.1428 6.50007 11.1428Z" fill="#328286"/>
<path d="M11.4215 8.35742H13C13 11.5238 10.4743 14.1424 7.42852 14.5974V17.6431H5.57148V14.5974C2.52572 14.1424 0 11.5238 0 8.35742H1.57857C1.57857 11.1431 3.93715 13.0931 6.5 13.0931C9.06284 13.0931 11.4215 11.1431 11.4215 8.35742Z" fill="#328286"/>
</svg>
