<svg width="39" height="39" viewBox="0 0 39 39" fill="none" xmlns="http://www.w3.org/2000/svg">
<path d="M28.1669 21.6667H36.8336V15.1667C36.8336 14.592 36.6053 14.0409 36.199 13.6346C35.7927 13.2283 35.2416 13 34.6669 13H2.16668C1.59204 13 1.04094 13.2283 0.634606 13.6346C0.228275 14.0409 0 14.592 0 15.1667V36.8335C0 37.4081 0.228275 37.9592 0.634606 38.3656C1.04094 38.7719 1.59204 39.0002 2.16668 39.0002H34.6669C35.2416 39.0002 35.7927 38.7719 36.199 38.3656C36.6053 37.9592 36.8336 37.4081 36.8336 36.8335V30.3335H28.1669C27.5922 30.3335 27.0411 30.1052 26.6348 29.6989C26.2285 29.2925 26.0002 28.7414 26.0002 28.1668V23.8334C26.0002 23.2588 26.2285 22.7077 26.6348 22.3013C27.0411 21.895 27.5922 21.6667 28.1669 21.6667Z" fill="#09818B"/>
<path d="M36.8336 30.3335V36.8335C36.8336 37.4081 36.6053 37.9592 36.199 38.3656C35.7927 38.7719 35.2416 39.0002 34.6669 39.0002H2.16668C1.59204 39.0002 1.04094 38.7719 0.634606 38.3656C0.228275 37.9592 0 37.4081 0 36.8335V15.1667C0 14.592 0.228275 14.0409 0.634606 13.6346C1.04094 13.2283 1.59204 13 2.16668 13H34.6669C35.2416 13 35.7927 13.2283 36.199 13.6346C36.6053 14.0409 36.8336 14.592 36.8336 15.1667V21.6667" stroke="black" stroke-width="0.000670455" stroke-linecap="round" stroke-linejoin="round"/>
<path d="M30.7884 13.0001L34.6667 7.45339L24.0283 0L14.9066 13.0001H30.7884ZM13.1949 2.16668L5.58984 13.0001H14.9066L19.4999 6.50005L13.1949 2.16668ZM39.0001 30.3336H28.1667C27.592 30.3336 27.0409 30.1053 26.6346 29.6989C26.2283 29.2926 26 28.7415 26 28.1669V23.8335C26 23.2589 26.2283 22.7078 26.6346 22.3014C27.0409 21.8951 27.592 21.6668 28.1667 21.6668H39.0001V30.3336Z" fill="#FFDB6C"/>
</svg>
