<svg width="17" height="17" viewBox="0 0 17 17" fill="none" xmlns="http://www.w3.org/2000/svg">
<path d="M10.3216 10.627L10.9288 11.9338C10.9288 11.9338 13.6609 12.5141 13.6609 13.8942C13.6609 14.8744 12.4466 14.8744 12.4466 14.8744H9.2085L7.61475 13.989" stroke="#328286" stroke-width="1.56" stroke-linecap="round" stroke-linejoin="round"/>
<path d="M6.67864 10.627L6.0715 11.9338C6.0715 11.9338 3.33936 12.5141 3.33936 13.8942C3.33936 14.8744 4.55364 14.8744 4.55364 14.8744H6.0209L7.61467 13.989L9.56259 12.7494" stroke="#328286" stroke-width="1.56" stroke-linecap="round" stroke-linejoin="round"/>
<path d="M2.125 11.281C2.125 11.281 3.64286 10.9543 4.55357 10.6275C5.46429 6.05338 8.19641 6.38011 8.5 6.38011C8.80359 6.38011 11.5357 6.05338 12.4464 10.6275C13.3571 10.9543 14.875 11.281 14.875 11.281" stroke="#328286" stroke-width="1.56" stroke-linecap="round" stroke-linejoin="round"/>
<path d="M8.50016 4.95833C9.28259 4.95833 9.91683 4.32407 9.91683 3.54167C9.91683 2.75926 9.28259 2.125 8.50016 2.125C7.71774 2.125 7.0835 2.75926 7.0835 3.54167C7.0835 4.32407 7.71774 4.95833 8.50016 4.95833Z" stroke="#328286" stroke-width="1.56" stroke-linecap="round" stroke-linejoin="round"/>
</svg>
