<svg width="18" height="18" viewBox="0 0 18 18" fill="none" xmlns="http://www.w3.org/2000/svg">
<circle cx="9" cy="9" r="9" fill="#F9F2E9"/>
<path d="M5.872 12.09C5.506 12.09 5.179 12.018 4.891 11.874C4.609 11.724 4.381 11.526 4.207 11.28L4.936 10.614C5.038 10.77 5.167 10.89 5.323 10.974C5.479 11.058 5.65 11.1 5.836 11.1C6.04 11.1 6.214 11.058 6.358 10.974C6.502 10.89 6.613 10.77 6.691 10.614C6.769 10.458 6.808 10.272 6.808 10.056V5.7H7.843V9.975C7.843 10.395 7.759 10.764 7.591 11.082C7.429 11.4 7.201 11.649 6.907 11.829C6.613 12.003 6.268 12.09 5.872 12.09ZM10.7693 12.09C10.4033 12.09 10.0763 12.009 9.78827 11.847C9.50627 11.685 9.28427 11.463 9.12227 11.181C8.96627 10.893 8.88827 10.563 8.88827 10.191V7.68H9.87827V10.146C9.87827 10.356 9.91127 10.536 9.97727 10.686C10.0493 10.83 10.1513 10.941 10.2833 11.019C10.4213 11.097 10.5833 11.136 10.7693 11.136C11.0573 11.136 11.2763 11.052 11.4263 10.884C11.5823 10.71 11.6603 10.464 11.6603 10.146V7.68H12.6503V10.191C12.6503 10.569 12.5693 10.902 12.4073 11.19C12.2513 11.472 12.0323 11.694 11.7503 11.856C11.4683 12.012 11.1413 12.09 10.7693 12.09Z" fill="#F0920C"/>
</svg>
