<svg width="18" height="18" viewBox="0 0 18 18" fill="none" xmlns="http://www.w3.org/2000/svg">
<circle cx="9" cy="9" r="9" fill="#FEEDEC"/>
<path d="M3.684 12V5.7H4.404L7.023 10.011H6.555L9.174 5.7H9.894V12H8.859V7.518L9.093 7.581L7.149 10.776H6.429L4.485 7.581L4.719 7.518V12H3.684ZM12.9342 12.09C12.5442 12.09 12.1902 11.991 11.8722 11.793C11.5602 11.595 11.3112 11.328 11.1252 10.992C10.9452 10.65 10.8552 10.269 10.8552 9.849C10.8552 9.423 10.9452 9.042 11.1252 8.706C11.3112 8.364 11.5602 8.094 11.8722 7.896C12.1902 7.692 12.5442 7.59 12.9342 7.59C13.2642 7.59 13.5552 7.662 13.8072 7.806C14.0652 7.944 14.2692 8.136 14.4192 8.382C14.5692 8.628 14.6442 8.907 14.6442 9.219V10.461C14.6442 10.773 14.5692 11.052 14.4192 11.298C14.2752 11.544 14.0742 11.739 13.8162 11.883C13.5582 12.021 13.2642 12.09 12.9342 12.09ZM13.0962 11.154C13.4622 11.154 13.7562 11.031 13.9782 10.785C14.2062 10.539 14.3202 10.224 14.3202 9.84C14.3202 9.582 14.2692 9.354 14.1672 9.156C14.0652 8.958 13.9212 8.805 13.7352 8.697C13.5552 8.583 13.3422 8.526 13.0962 8.526C12.8562 8.526 12.6432 8.583 12.4572 8.697C12.2772 8.805 12.1332 8.958 12.0252 9.156C11.9232 9.354 11.8722 9.582 11.8722 9.84C11.8722 10.098 11.9232 10.326 12.0252 10.524C12.1332 10.722 12.2772 10.878 12.4572 10.992C12.6432 11.1 12.8562 11.154 13.0962 11.154ZM14.2572 12V10.839L14.4282 9.786L14.2572 8.742V7.68H15.2472V12H14.2572Z" fill="#D93333"/>
</svg>
