<svg width="18" height="18" viewBox="0 0 18 18" fill="none" xmlns="http://www.w3.org/2000/svg">
<circle cx="9" cy="9" r="9" fill="#F3F7F2"/>
<path d="M3.684 12V5.7H4.404L7.023 10.011H6.555L9.174 5.7H9.894V12H8.859V7.518L9.093 7.581L7.149 10.776H6.429L4.485 7.581L4.719 7.518V12H3.684ZM13.1322 12.09C12.7002 12.09 12.3102 11.994 11.9622 11.802C11.6202 11.604 11.3472 11.334 11.1432 10.992C10.9452 10.65 10.8462 10.266 10.8462 9.84C10.8462 9.414 10.9452 9.033 11.1432 8.697C11.3412 8.355 11.6082 8.085 11.9442 7.887C12.2862 7.689 12.6642 7.59 13.0782 7.59C13.4802 7.59 13.8342 7.683 14.1402 7.869C14.4522 8.055 14.6952 8.31 14.8692 8.634C15.0492 8.958 15.1392 9.327 15.1392 9.741C15.1392 9.813 15.1332 9.888 15.1212 9.966C15.1152 10.038 15.1032 10.119 15.0852 10.209H11.5392V9.399H14.5722L14.2032 9.723C14.1912 9.459 14.1402 9.237 14.0502 9.057C13.9602 8.877 13.8312 8.739 13.6632 8.643C13.5012 8.547 13.3002 8.499 13.0602 8.499C12.8082 8.499 12.5892 8.553 12.4032 8.661C12.2172 8.769 12.0732 8.922 11.9712 9.12C11.8692 9.312 11.8182 9.543 11.8182 9.813C11.8182 10.083 11.8722 10.32 11.9802 10.524C12.0882 10.728 12.2412 10.887 12.4392 11.001C12.6372 11.109 12.8652 11.163 13.1232 11.163C13.3452 11.163 13.5492 11.124 13.7352 11.046C13.9272 10.968 14.0892 10.854 14.2212 10.704L14.8512 11.343C14.6412 11.589 14.3862 11.775 14.0862 11.901C13.7862 12.027 13.4682 12.09 13.1322 12.09Z" fill="#0D780A"/>
</svg>
