<svg width="18" height="18" viewBox="0 0 18 18" fill="none" xmlns="http://www.w3.org/2000/svg">
<circle cx="9" cy="9" r="9" fill="#FAF6F0"/>
<path d="M8.491 12L5.575 8.715L8.428 5.7H9.751L6.601 8.976V8.409L9.841 12H8.491ZM4.684 12V5.7H5.719V12H4.684ZM12.1722 12.09C11.7402 12.09 11.3502 11.994 11.0022 11.802C10.6602 11.604 10.3872 11.334 10.1832 10.992C9.98521 10.65 9.88621 10.266 9.88621 9.84C9.88621 9.414 9.98521 9.033 10.1832 8.697C10.3812 8.355 10.6482 8.085 10.9842 7.887C11.3262 7.689 11.7042 7.59 12.1182 7.59C12.5202 7.59 12.8742 7.683 13.1802 7.869C13.4922 8.055 13.7352 8.31 13.9092 8.634C14.0892 8.958 14.1792 9.327 14.1792 9.741C14.1792 9.813 14.1732 9.888 14.1612 9.966C14.1552 10.038 14.1432 10.119 14.1252 10.209H10.5792V9.399H13.6122L13.2432 9.723C13.2312 9.459 13.1802 9.237 13.0902 9.057C13.0002 8.877 12.8712 8.739 12.7032 8.643C12.5412 8.547 12.3402 8.499 12.1002 8.499C11.8482 8.499 11.6292 8.553 11.4432 8.661C11.2572 8.769 11.1132 8.922 11.0112 9.12C10.9092 9.312 10.8582 9.543 10.8582 9.813C10.8582 10.083 10.9122 10.32 11.0202 10.524C11.1282 10.728 11.2812 10.887 11.4792 11.001C11.6772 11.109 11.9052 11.163 12.1632 11.163C12.3852 11.163 12.5892 11.124 12.7752 11.046C12.9672 10.968 13.1292 10.854 13.2612 10.704L13.8912 11.343C13.6812 11.589 13.4262 11.775 13.1262 11.901C12.8262 12.027 12.5082 12.09 12.1722 12.09Z" fill="#C06916"/>
</svg>
