<svg width="18" height="18" viewBox="0 0 18 18" fill="none" xmlns="http://www.w3.org/2000/svg">
<circle cx="9" cy="9" r="9" fill="#EEEDEC"/>
<path d="M3.684 12V5.7H4.404L7.023 10.011H6.555L9.174 5.7H9.894V12H8.859V7.518L9.093 7.581L7.149 10.776H6.429L4.485 7.581L4.719 7.518V12H3.684ZM13.1052 12.09C12.6852 12.09 12.3042 11.991 11.9622 11.793C11.6202 11.589 11.3472 11.316 11.1432 10.974C10.9452 10.632 10.8462 10.251 10.8462 9.831C10.8462 9.411 10.9452 9.033 11.1432 8.697C11.3472 8.361 11.6202 8.094 11.9622 7.896C12.3042 7.692 12.6852 7.59 13.1052 7.59C13.5312 7.59 13.9152 7.689 14.2572 7.887C14.5992 8.085 14.8692 8.355 15.0672 8.697C15.2712 9.033 15.3732 9.411 15.3732 9.831C15.3732 10.251 15.2712 10.632 15.0672 10.974C14.8692 11.316 14.5992 11.589 14.2572 11.793C13.9152 11.991 13.5312 12.09 13.1052 12.09ZM13.1052 11.136C13.3512 11.136 13.5672 11.082 13.7532 10.974C13.9452 10.86 14.0922 10.704 14.1942 10.506C14.3022 10.308 14.3562 10.083 14.3562 9.831C14.3562 9.579 14.3022 9.357 14.1942 9.165C14.0862 8.973 13.9392 8.823 13.7532 8.715C13.5672 8.601 13.3512 8.544 13.1052 8.544C12.8652 8.544 12.6492 8.601 12.4572 8.715C12.2712 8.823 12.1242 8.973 12.0162 9.165C11.9142 9.357 11.8632 9.579 11.8632 9.831C11.8632 10.083 11.9142 10.308 12.0162 10.506C12.1242 10.704 12.2712 10.86 12.4572 10.974C12.6492 11.082 12.8652 11.136 13.1052 11.136Z" fill="#4C4C4C"/>
</svg>
