<svg width="18" height="18" viewBox="0 0 18 18" fill="none" xmlns="http://www.w3.org/2000/svg">
<circle cx="9" cy="9" r="9" fill="#CDF4F4"/>
<path d="M4.684 12V5.7H5.404L5.719 6.888V12H4.684ZM9.049 12L5.278 7.077L5.404 5.7L9.175 10.623L9.049 12ZM9.049 12L8.734 10.893V5.7H9.769V12H9.049ZM13.0072 12.09C12.5752 12.09 12.1852 11.994 11.8372 11.802C11.4952 11.604 11.2222 11.334 11.0182 10.992C10.8202 10.65 10.7212 10.266 10.7212 9.84C10.7212 9.414 10.8202 9.033 11.0182 8.697C11.2162 8.355 11.4832 8.085 11.8192 7.887C12.1612 7.689 12.5392 7.59 12.9532 7.59C13.3552 7.59 13.7092 7.683 14.0152 7.869C14.3272 8.055 14.5702 8.31 14.7442 8.634C14.9242 8.958 15.0142 9.327 15.0142 9.741C15.0142 9.813 15.0082 9.888 14.9962 9.966C14.9902 10.038 14.9782 10.119 14.9602 10.209H11.4142V9.399H14.4472L14.0782 9.723C14.0662 9.459 14.0152 9.237 13.9252 9.057C13.8352 8.877 13.7062 8.739 13.5382 8.643C13.3762 8.547 13.1752 8.499 12.9352 8.499C12.6832 8.499 12.4642 8.553 12.2782 8.661C12.0922 8.769 11.9482 8.922 11.8462 9.12C11.7442 9.312 11.6932 9.543 11.6932 9.813C11.6932 10.083 11.7472 10.32 11.8552 10.524C11.9632 10.728 12.1162 10.887 12.3142 11.001C12.5122 11.109 12.7402 11.163 12.9982 11.163C13.2202 11.163 13.4242 11.124 13.6102 11.046C13.8022 10.968 13.9642 10.854 14.0962 10.704L14.7262 11.343C14.5162 11.589 14.2612 11.775 13.9612 11.901C13.6612 12.027 13.3432 12.09 13.0072 12.09Z" fill="#0BCFD0"/>
</svg>
