<svg width="18" height="18" viewBox="0 0 18 18" fill="none" xmlns="http://www.w3.org/2000/svg">
<circle cx="9" cy="9" r="9" fill="#F6F3FE"/>
<path d="M4.395 9.624V8.724H5.97C6.186 8.724 6.375 8.682 6.537 8.598C6.705 8.508 6.837 8.385 6.933 8.229C7.029 8.067 7.077 7.878 7.077 7.662C7.077 7.446 7.029 7.26 6.933 7.104C6.837 6.942 6.705 6.819 6.537 6.735C6.375 6.645 6.186 6.6 5.97 6.6H4.395V5.7H6.024C6.42 5.7 6.774 5.781 7.086 5.943C7.404 6.105 7.653 6.333 7.833 6.627C8.019 6.921 8.112 7.266 8.112 7.662C8.112 8.058 8.019 8.403 7.833 8.697C7.653 8.991 7.404 9.219 7.086 9.381C6.774 9.543 6.42 9.624 6.024 9.624H4.395ZM3.684 12V5.7H4.719V12H3.684ZM10.7536 12.09C10.3876 12.09 10.0606 12.009 9.77264 11.847C9.49064 11.685 9.26864 11.463 9.10664 11.181C8.95064 10.893 8.87264 10.563 8.87264 10.191V7.68H9.86264V10.146C9.86264 10.356 9.89564 10.536 9.96164 10.686C10.0336 10.83 10.1356 10.941 10.2676 11.019C10.4056 11.097 10.5676 11.136 10.7536 11.136C11.0416 11.136 11.2606 11.052 11.4106 10.884C11.5666 10.71 11.6446 10.464 11.6446 10.146V7.68H12.6346V10.191C12.6346 10.569 12.5536 10.902 12.3916 11.19C12.2356 11.472 12.0166 11.694 11.7346 11.856C11.4526 12.012 11.1256 12.09 10.7536 12.09Z" fill="#630ED5"/>
</svg>
