<svg width="18" height="18" viewBox="0 0 18 18" fill="none" xmlns="http://www.w3.org/2000/svg">
<circle cx="9" cy="9" r="9" fill="#EFEFEF"/>
<path d="M4.395 9.327V8.472H5.988C6.306 8.472 6.552 8.391 6.726 8.229C6.906 8.061 6.996 7.83 6.996 7.536C6.996 7.272 6.909 7.05 6.735 6.87C6.561 6.69 6.315 6.6 5.997 6.6H4.395V5.7H6.042C6.438 5.7 6.786 5.781 7.086 5.943C7.386 6.099 7.617 6.315 7.779 6.591C7.947 6.861 8.031 7.17 8.031 7.518C8.031 7.884 7.947 8.202 7.779 8.472C7.617 8.742 7.386 8.952 7.086 9.102C6.786 9.252 6.438 9.327 6.042 9.327H4.395ZM3.684 12V5.7H4.719V12H3.684ZM7.14 12L4.935 9.264L5.898 8.913L8.445 12H7.14ZM10.7545 12.09C10.3645 12.09 10.0105 11.991 9.69248 11.793C9.38048 11.595 9.13148 11.328 8.94548 10.992C8.76548 10.65 8.67548 10.269 8.67548 9.849C8.67548 9.423 8.76548 9.042 8.94548 8.706C9.13148 8.364 9.38048 8.094 9.69248 7.896C10.0105 7.692 10.3645 7.59 10.7545 7.59C11.0845 7.59 11.3755 7.662 11.6275 7.806C11.8855 7.944 12.0895 8.136 12.2395 8.382C12.3895 8.628 12.4645 8.907 12.4645 9.219V10.461C12.4645 10.773 12.3895 11.052 12.2395 11.298C12.0955 11.544 11.8945 11.739 11.6365 11.883C11.3785 12.021 11.0845 12.09 10.7545 12.09ZM10.9165 11.154C11.2825 11.154 11.5765 11.031 11.7985 10.785C12.0265 10.539 12.1405 10.224 12.1405 9.84C12.1405 9.582 12.0895 9.354 11.9875 9.156C11.8855 8.958 11.7415 8.805 11.5555 8.697C11.3755 8.583 11.1625 8.526 10.9165 8.526C10.6765 8.526 10.4635 8.583 10.2775 8.697C10.0975 8.805 9.95348 8.958 9.84548 9.156C9.74348 9.354 9.69248 9.582 9.69248 9.84C9.69248 10.098 9.74348 10.326 9.84548 10.524C9.95348 10.722 10.0975 10.878 10.2775 10.992C10.4635 11.1 10.6765 11.154 10.9165 11.154ZM12.0775 12V10.839L12.2485 9.786L12.0775 8.742V7.68H13.0675V12H12.0775Z" fill="#1D1E1D"/>
</svg>
