<svg width="18" height="18" viewBox="0 0 18 18" fill="none" xmlns="http://www.w3.org/2000/svg">
<circle cx="9" cy="9" r="9" fill="#F1F7F7"/>
<path d="M6.439 12.09C5.941 12.09 5.518 12 5.17 11.82C4.822 11.64 4.51 11.376 4.234 11.028L4.936 10.326C5.11 10.578 5.317 10.776 5.557 10.92C5.797 11.058 6.103 11.127 6.475 11.127C6.823 11.127 7.099 11.055 7.303 10.911C7.513 10.767 7.618 10.569 7.618 10.317C7.618 10.107 7.564 9.936 7.456 9.804C7.348 9.672 7.204 9.564 7.024 9.48C6.85 9.39 6.655 9.312 6.439 9.246C6.229 9.174 6.016 9.096 5.8 9.012C5.59 8.922 5.395 8.811 5.215 8.679C5.041 8.547 4.9 8.376 4.792 8.166C4.684 7.956 4.63 7.689 4.63 7.365C4.63 6.993 4.72 6.678 4.9 6.42C5.086 6.156 5.335 5.955 5.647 5.817C5.959 5.679 6.307 5.61 6.691 5.61C7.105 5.61 7.474 5.691 7.798 5.853C8.128 6.015 8.395 6.222 8.599 6.474L7.897 7.176C7.717 6.972 7.528 6.822 7.33 6.726C7.138 6.624 6.916 6.573 6.664 6.573C6.352 6.573 6.106 6.636 5.926 6.762C5.752 6.888 5.665 7.065 5.665 7.293C5.665 7.485 5.719 7.641 5.827 7.761C5.935 7.875 6.076 7.974 6.25 8.058C6.43 8.136 6.625 8.211 6.835 8.283C7.051 8.355 7.264 8.436 7.474 8.526C7.69 8.616 7.885 8.733 8.059 8.877C8.239 9.015 8.383 9.195 8.491 9.417C8.599 9.639 8.653 9.918 8.653 10.254C8.653 10.818 8.452 11.265 8.05 11.595C7.654 11.925 7.117 12.09 6.439 12.09ZM11.3062 12.09C10.9162 12.09 10.5622 11.991 10.2442 11.793C9.93224 11.595 9.68324 11.328 9.49724 10.992C9.31724 10.65 9.22724 10.269 9.22724 9.849C9.22724 9.423 9.31724 9.042 9.49724 8.706C9.68324 8.364 9.93224 8.094 10.2442 7.896C10.5622 7.692 10.9162 7.59 11.3062 7.59C11.6362 7.59 11.9272 7.662 12.1792 7.806C12.4372 7.944 12.6412 8.136 12.7912 8.382C12.9412 8.628 13.0162 8.907 13.0162 9.219V10.461C13.0162 10.773 12.9412 11.052 12.7912 11.298C12.6472 11.544 12.4462 11.739 12.1882 11.883C11.9302 12.021 11.6362 12.09 11.3062 12.09ZM11.4682 11.154C11.8342 11.154 12.1282 11.031 12.3502 10.785C12.5782 10.539 12.6922 10.224 12.6922 9.84C12.6922 9.582 12.6412 9.354 12.5392 9.156C12.4372 8.958 12.2932 8.805 12.1072 8.697C11.9272 8.583 11.7142 8.526 11.4682 8.526C11.2282 8.526 11.0152 8.583 10.8292 8.697C10.6492 8.805 10.5052 8.958 10.3972 9.156C10.2952 9.354 10.2442 9.582 10.2442 9.84C10.2442 10.098 10.2952 10.326 10.3972 10.524C10.5052 10.722 10.6492 10.878 10.8292 10.992C11.0152 11.1 11.2282 11.154 11.4682 11.154ZM12.6292 12V10.839L12.8002 9.786L12.6292 8.742V7.68H13.6192V12H12.6292Z" fill="#109CA4"/>
</svg>
