<svg width="18" height="18" viewBox="0 0 18 18" fill="none" xmlns="http://www.w3.org/2000/svg">
<circle cx="9" cy="9" r="9" fill="#F9F2E9"/>
<path d="M6.439 12.09C5.941 12.09 5.518 12 5.17 11.82C4.822 11.64 4.51 11.376 4.234 11.028L4.936 10.326C5.11 10.578 5.317 10.776 5.557 10.92C5.797 11.058 6.103 11.127 6.475 11.127C6.823 11.127 7.099 11.055 7.303 10.911C7.513 10.767 7.618 10.569 7.618 10.317C7.618 10.107 7.564 9.936 7.456 9.804C7.348 9.672 7.204 9.564 7.024 9.48C6.85 9.39 6.655 9.312 6.439 9.246C6.229 9.174 6.016 9.096 5.8 9.012C5.59 8.922 5.395 8.811 5.215 8.679C5.041 8.547 4.9 8.376 4.792 8.166C4.684 7.956 4.63 7.689 4.63 7.365C4.63 6.993 4.72 6.678 4.9 6.42C5.086 6.156 5.335 5.955 5.647 5.817C5.959 5.679 6.307 5.61 6.691 5.61C7.105 5.61 7.474 5.691 7.798 5.853C8.128 6.015 8.395 6.222 8.599 6.474L7.897 7.176C7.717 6.972 7.528 6.822 7.33 6.726C7.138 6.624 6.916 6.573 6.664 6.573C6.352 6.573 6.106 6.636 5.926 6.762C5.752 6.888 5.665 7.065 5.665 7.293C5.665 7.485 5.719 7.641 5.827 7.761C5.935 7.875 6.076 7.974 6.25 8.058C6.43 8.136 6.625 8.211 6.835 8.283C7.051 8.355 7.264 8.436 7.474 8.526C7.69 8.616 7.885 8.733 8.059 8.877C8.239 9.015 8.383 9.195 8.491 9.417C8.599 9.639 8.653 9.918 8.653 10.254C8.653 10.818 8.452 11.265 8.05 11.595C7.654 11.925 7.117 12.09 6.439 12.09ZM11.323 12.09C10.957 12.09 10.63 12.009 10.342 11.847C10.06 11.685 9.83798 11.463 9.67598 11.181C9.51998 10.893 9.44198 10.563 9.44198 10.191V7.68H10.432V10.146C10.432 10.356 10.465 10.536 10.531 10.686C10.603 10.83 10.705 10.941 10.837 11.019C10.975 11.097 11.137 11.136 11.323 11.136C11.611 11.136 11.83 11.052 11.98 10.884C12.136 10.71 12.214 10.464 12.214 10.146V7.68H13.204V10.191C13.204 10.569 13.123 10.902 12.961 11.19C12.805 11.472 12.586 11.694 12.304 11.856C12.022 12.012 11.695 12.09 11.323 12.09Z" fill="#F0920C"/>
</svg>
