<svg width="18" height="18" viewBox="0 0 18 18" fill="none" xmlns="http://www.w3.org/2000/svg">
<circle cx="9" cy="9" r="9" fill="#F9F2E9"/>
<path d="M7.114 12.09C6.64 12.09 6.214 11.982 5.836 11.766C5.458 11.55 5.158 11.256 4.936 10.884C4.72 10.506 4.612 10.08 4.612 9.606V5.7H5.647V9.597C5.647 9.903 5.71 10.17 5.836 10.398C5.968 10.62 6.145 10.794 6.367 10.92C6.589 11.04 6.838 11.1 7.114 11.1C7.396 11.1 7.645 11.04 7.861 10.92C8.077 10.794 8.248 10.62 8.374 10.398C8.5 10.17 8.563 9.906 8.563 9.606V5.7H9.598V9.615C9.598 10.089 9.49 10.512 9.274 10.884C9.058 11.256 8.764 11.55 8.392 11.766C8.02 11.982 7.594 12.09 7.114 12.09ZM10.7629 12V7.68H11.7529V12H10.7629ZM11.7529 9.597L11.4109 9.426C11.4109 8.88 11.5309 8.439 11.7709 8.103C12.0169 7.761 12.3859 7.59 12.8779 7.59C13.0939 7.59 13.2889 7.629 13.4629 7.707C13.6369 7.785 13.7989 7.911 13.9489 8.085L13.3009 8.751C13.2229 8.667 13.1359 8.607 13.0399 8.571C12.9439 8.535 12.8329 8.517 12.7069 8.517C12.4309 8.517 12.2029 8.604 12.0229 8.778C11.8429 8.952 11.7529 9.225 11.7529 9.597Z" fill="#F0920C"/>
</svg>
