<svg width="18" height="18" viewBox="0 0 18 18" fill="none" xmlns="http://www.w3.org/2000/svg">
<circle cx="9" cy="9" r="9" fill="#E7D0EF"/>
<path d="M6.763 12L4.216 5.7H5.341L7.33 10.803H6.934L8.941 5.7H10.048L7.483 12H6.763ZM11.9525 12.09C11.5205 12.09 11.1305 11.994 10.7825 11.802C10.4405 11.604 10.1675 11.334 9.96348 10.992C9.76548 10.65 9.66648 10.266 9.66648 9.84C9.66648 9.414 9.76548 9.033 9.96348 8.697C10.1615 8.355 10.4285 8.085 10.7645 7.887C11.1065 7.689 11.4845 7.59 11.8985 7.59C12.3005 7.59 12.6545 7.683 12.9605 7.869C13.2725 8.055 13.5155 8.31 13.6895 8.634C13.8695 8.958 13.9595 9.327 13.9595 9.741C13.9595 9.813 13.9535 9.888 13.9415 9.966C13.9355 10.038 13.9235 10.119 13.9055 10.209H10.3595V9.399H13.3925L13.0235 9.723C13.0115 9.459 12.9605 9.237 12.8705 9.057C12.7805 8.877 12.6515 8.739 12.4835 8.643C12.3215 8.547 12.1205 8.499 11.8805 8.499C11.6285 8.499 11.4095 8.553 11.2235 8.661C11.0375 8.769 10.8935 8.922 10.7915 9.12C10.6895 9.312 10.6385 9.543 10.6385 9.813C10.6385 10.083 10.6925 10.32 10.8005 10.524C10.9085 10.728 11.0615 10.887 11.2595 11.001C11.4575 11.109 11.6855 11.163 11.9435 11.163C12.1655 11.163 12.3695 11.124 12.5555 11.046C12.7475 10.968 12.9095 10.854 13.0415 10.704L13.6715 11.343C13.4615 11.589 13.2065 11.775 12.9065 11.901C12.6065 12.027 12.2885 12.09 11.9525 12.09Z" fill="#E603D5"/>
</svg>
